{
.appVersion = "3112";
classes = (
{
automatic = 1;
code = "A Aacute Abreve Abreveacute Abrevedotbelow Abrevegrave Abrevehookabove Abrevetilde Acaron Acircumflex Acircumflexacute Acircumflexdotbelow Acircumflexgrave Acircumflexhookabove Acircumflextilde Adblgrave Adieresis Adotbelow Agrave Ahookabove Ainvertedbreve Amacron Aogonek Aring Aringacute Atilde AE AEacute B C Cacute Ccaron Ccedilla Ccircumflex Cdotaccent D Eth Dcaron Dcroat Dzcaron E Eacute Ebreve Ecaron Ecircumflex Ecircumflexacute Ecircumflexdotbelow Ecircumflexgrave Ecircumflexhookabove Ecircumflextilde Edblgrave Edieresis Edotaccent Edotbelow Egrave Ehookabove Einvertedbreve Emacron Eogonek Etilde Schwa F G Gbreve Gcaron Gcircumflex Gcommaaccent Gdotaccent H Hbar Hcircumflex I IJ Iacute Ibreve Icircumflex Idblgrave Idieresis Idotaccent Idotbelow Igrave Ihookabove Iinvertedbreve Imacron Iogonek Itilde J Jcircumflex K Kcommaaccent L LJ Lacute Lcaron Lcommaaccent Ldot Lslash M N NJ Nacute Ncaron Ncommaaccent Ntilde Eng O Oacute Obreve Ocircumflex Ocircumflexacute Ocircumflexdotbelow Ocircumflexgrave Ocircumflexhookabove Ocircumflextilde Odblgrave Odieresis Odieresismacron Odotaccentmacron Odotbelow Ograve Ohookabove Ohorn Ohornacute Ohorndotbelow Ohorngrave Ohornhookabove Ohungarumlaut Oinvertedbreve Omacron Oogonek Oslash Oslashacute Otilde Otildemacron OE P Thorn Q R Racute Rcaron Rcommaaccent Rdblgrave Rinvertedbreve S Sacute Scaron Scedilla Scircumflex Scommaaccent Germandbls T Tbar Tcaron Tcedilla Tcommaaccent U Uacute Ubreve Ucircumflex Udblgrave Udieresis Udotbelow Ugrave Uhookabove Uhorn Uhornacute Uhorndotbelow Uhorngrave Uhornhookabove Uhorntilde Uhungarumlaut Uinvertedbreve Umacron Uogonek Uring Utilde V W Wacute Wcircumflex Wdieresis Wgrave X Y Yacute Ycircumflex Ydieresis Ydotbelow Ygrave Yhookabove Ymacron Ytilde Z Zacute Zcaron Zdotaccent";
name = Uppercase;
}
);
copyright = "Copyright 2020 The Geologica Project Authors (https://github.com/monokromskriftforlag/geologisk)";

glyphs = (
{
color = 1;
glyphname = A;
lastChange = "2022-02-16 15:08:08 +0000";
layers = (
{
anchors = (
{
name = bottom;
position = "{650, 0}";
},
{
name = ogonek;
position = "{1288, 0}";
},
{
name = top;
position = "{650, 1400}";
},
{
name = topleft;
position = "{332, 1400}";
}
);
layerId = "38FA562F-EF2C-4367-983C-F15B205514DC";
paths = (
{
closed = 1;
nodes = (
"162 0 LINE",
"314 384 LINE",
"998 384 LINE",
"1158 0 LINE",
"1288 0 LINE",
"700 1400 LINE",
"600 1400 LINE",
"36 0 LINE"
);
},
{
closed = 1;
nodes = (
"646 1228 LINE",
"954 492 LINE",
"356 492 LINE"
);
}
);
width = 1324;
}
);
leftKerningGroup = A;
rightKerningGroup = A;
rightMetricsKey = "=|";
unicode = 0041;
},
{
color = 9;
glyphname = Aacute;
lastChange = "2022-02-16 15:07:55 +0000";
layers = (
{
anchors = (
{
name = bottom;
position = "{650, 0}";
},
{
name = ogonek;
position = "{1288, 0}";
},
{
name = top;
position = "{650, 1400}";
},
{
name = topleft;
position = "{332, 1400}";
}
);
layerId = "38FA562F-EF2C-4367-983C-F15B205514DC";
paths = (
{
closed = 1;
nodes = (
"162 0 LINE",
"314 384 LINE",
"998 384 LINE",
"1158 0 LINE",
"1288 0 LINE",
"700 1400 LINE",
"600 1400 LINE",
"36 0 LINE"
);
},
{
closed = 1;
nodes = (
"646 1228 LINE",
"954 492 LINE",
"356 492 LINE"
);
},
{
closed = 1;
nodes = (
"694 1594 LINE",
"896 1906 LINE",
"776 1906 LINE",
"586 1594 LINE"
);
}
);
width = 1324;
}
);
leftKerningGroup = A;
rightKerningGroup = A;
unicode = 00C1;
},
{
color = 6;
glyphname = Abreve;
lastChange = "2022-02-16 15:07:45 +0000";
layers = (
{
anchors = (
{
name = bottom;
position = "{650, 0}";
},
{
name = ogonek;
position = "{1288, 0}";
},
{
name = top;
position = "{650, 1814}";
},
{
name = topleft;
position = "{332, 1400}";
}
);
layerId = "38FA562F-EF2C-4367-983C-F15B205514DC";
paths = (
{
closed = 1;
nodes = (
"162 0 LINE",
"314 384 LINE",
"998 384 LINE",
"1158 0 LINE",
"1288 0 LINE",
"700 1400 LINE",
"600 1400 LINE",
"36 0 LINE"
);
},
{
closed = 1;
nodes = (
"646 1228 LINE",
"954 492 LINE",
"356 492 LINE"
);
},
{
closed = 1;
nodes = (
"844 1584 OFFCURVE",
"990 1720 OFFCURVE",
"984 1906 CURVE",
"880 1906 LINE",
"888 1770 OFFCURVE",
"796 1678 OFFCURVE",
"650 1678 CURVE SMOOTH",
"504 1678 OFFCURVE",
"408 1770 OFFCURVE",
"414 1906 CURVE",
"312 1906 LINE",
"304 1720 OFFCURVE",
"448 1584 OFFCURVE",
"650 1584 CURVE SMOOTH"
);
}
);
width = 1324;
}
);
leftKerningGroup = A;
rightKerningGroup = A;
unicode = 0102;
},
{
color = 6;
glyphname = Abreveacute;
lastChange = "2022-02-16 15:07:45 +0000";
layers = (
{
anchors = (
{
name = bottom;
position = "{650, 0}";
},
{
name = ogonek;
position = "{1288, 0}";
},
{
name = top;
position = "{650, 1814}";
},
{
name = topleft;
position = "{332, 1400}";
}
);
layerId = "38FA562F-EF2C-4367-983C-F15B205514DC";
paths = (
{
closed = 1;
nodes = (
"162 0 LINE",
"314 384 LINE",
"998 384 LINE",
"1158 0 LINE",
"1288 0 LINE",
"700 1400 LINE",
"600 1400 LINE",
"36 0 LINE"
);
},
{
closed = 1;
nodes = (
"646 1228 LINE",
"954 492 LINE",
"356 492 LINE"
);
},
{
closed = 1;
nodes = (
"844 1584 OFFCURVE",
"990 1720 OFFCURVE",
"984 1906 CURVE",
"880 1906 LINE",
"888 1770 OFFCURVE",
"796 1678 OFFCURVE",
"650 1678 CURVE SMOOTH",
"504 1678 OFFCURVE",
"408 1770 OFFCURVE",
"414 1906 CURVE",
"312 1906 LINE",
"304 1720 OFFCURVE",
"448 1584 OFFCURVE",
"650 1584 CURVE SMOOTH"
);
},
{
closed = 1;
nodes = (
"694 2008 LINE",
"896 2320 LINE",
"776 2320 LINE",
"586 2008 LINE"
);
}
);
width = 1324;
}
);
leftKerningGroup = A;
rightKerningGroup = A;
unicode = 1EAE;
},
{
color = 6;
glyphname = Abrevedotbelow;
lastChange = "2022-02-16 15:07:45 +0000";
layers = (
{
anchors = (
{
name = bottom;
position = "{650, 0}";
},
{
name = ogonek;
position = "{1288, 0}";
},
{
name = top;
position = "{650, 1814}";
},
{
name = topleft;
position = "{332, 1400}";
}
);
layerId = "38FA562F-EF2C-4367-983C-F15B205514DC";
paths = (
{
closed = 1;
nodes = (
"162 0 LINE",
"314 384 LINE",
"998 384 LINE",
"1158 0 LINE",
"1288 0 LINE",
"700 1400 LINE",
"600 1400 LINE",
"36 0 LINE"
);
},
{
closed = 1;
nodes = (
"646 1228 LINE",
"954 492 LINE",
"356 492 LINE"
);
},
{
closed = 1;
nodes = (
"702 -472 OFFCURVE",
"744 -430 OFFCURVE",
"744 -378 CURVE SMOOTH",
"744 -326 OFFCURVE",
"702 -284 OFFCURVE",
"650 -284 CURVE SMOOTH",
"598 -284 OFFCURVE",
"556 -326 OFFCURVE",
"556 -378 CURVE SMOOTH",
"556 -430 OFFCURVE",
"598 -472 OFFCURVE",
"650 -472 CURVE SMOOTH"
);
},
{
closed = 1;
nodes = (
"844 1584 OFFCURVE",
"990 1720 OFFCURVE",
"984 1906 CURVE",
"880 1906 LINE",
"888 1770 OFFCURVE",
"796 1678 OFFCURVE",
"650 1678 CURVE SMOOTH",
"504 1678 OFFCURVE",
"408 1770 OFFCURVE",
"414 1906 CURVE",
"312 1906 LINE",
"304 1720 OFFCURVE",
"448 1584 OFFCURVE",
"650 1584 CURVE SMOOTH"
);
}
);
width = 1324;
}
);
leftKerningGroup = A;
rightKerningGroup = A;
unicode = 1EB6;
},
{
color = 6;
glyphname = Abrevegrave;
lastChange = "2022-02-16 15:07:45 +0000";
layers = (
{
anchors = (
{
name = bottom;
position = "{650, 0}";
},
{
name = ogonek;
position = "{1288, 0}";
},
{
name = top;
position = "{650, 1814}";
},
{
name = topleft;
position = "{332, 1400}";
}
);
layerId = "38FA562F-EF2C-4367-983C-F15B205514DC";
paths = (
{
closed = 1;
nodes = (
"162 0 LINE",
"314 384 LINE",
"998 384 LINE",
"1158 0 LINE",
"1288 0 LINE",
"700 1400 LINE",
"600 1400 LINE",
"36 0 LINE"
);
},
{
closed = 1;
nodes = (
"646 1228 LINE",
"954 492 LINE",
"356 492 LINE"
);
},
{
closed = 1;
nodes = (
"844 1584 OFFCURVE",
"990 1720 OFFCURVE",
"984 1906 CURVE",
"880 1906 LINE",
"888 1770 OFFCURVE",
"796 1678 OFFCURVE",
"650 1678 CURVE SMOOTH",
"504 1678 OFFCURVE",
"408 1770 OFFCURVE",
"414 1906 CURVE",
"312 1906 LINE",
"304 1720 OFFCURVE",
"448 1584 OFFCURVE",
"650 1584 CURVE SMOOTH"
);
},
{
closed = 1;
nodes = (
"732 2008 LINE",
"544 2320 LINE",
"418 2320 LINE",
"620 2008 LINE"
);
}
);
width = 1324;
}
);
leftKerningGroup = A;
rightKerningGroup = A;
unicode = 1EB0;
},
{
color = 6;
glyphname = Abrevehookabove;
lastChange = "2022-02-16 15:07:45 +0000";
layers = (
{
anchors = (
{
name = bottom;
position = "{650, 0}";
},
{
name = ogonek;
position = "{1288, 0}";
},
{
name = top;
position = "{650, 1814}";
},
{
name = topleft;
position = "{332, 1400}";
}
);
layerId = "38FA562F-EF2C-4367-983C-F15B205514DC";
paths = (
{
closed = 1;
nodes = (
"162 0 LINE",
"314 384 LINE",
"998 384 LINE",
"1158 0 LINE",
"1288 0 LINE",
"700 1400 LINE",
"600 1400 LINE",
"36 0 LINE"
);
},
{
closed = 1;
nodes = (
"646 1228 LINE",
"954 492 LINE",
"356 492 LINE"
);
},
{
closed = 1;
nodes = (
"844 1584 OFFCURVE",
"990 1720 OFFCURVE",
"984 1906 CURVE",
"880 1906 LINE",
"888 1770 OFFCURVE",
"796 1678 OFFCURVE",
"650 1678 CURVE SMOOTH",
"504 1678 OFFCURVE",
"408 1770 OFFCURVE",
"414 1906 CURVE",
"312 1906 LINE",
"304 1720 OFFCURVE",
"448 1584 OFFCURVE",
"650 1584 CURVE SMOOTH"
);
},
{
closed = 1;
nodes = (
"682 2008 LINE",
"646 2080 OFFCURVE",
"662 2104 OFFCURVE",
"752 2140 CURVE SMOOTH",
"866 2186 OFFCURVE",
"900 2218 OFFCURVE",
"900 2290 CURVE SMOOTH",
"900 2376 OFFCURVE",
"794 2440 OFFCURVE",
"652 2440 CURVE SMOOTH",
"568 2440 OFFCURVE",
"486 2424 OFFCURVE",
"418 2394 CURVE",
"454 2320 LINE",
"502 2342 OFFCURVE",
"578 2358 OFFCURVE",
"648 2358 CURVE SMOOTH",
"738 2358 OFFCURVE",
"804 2324 OFFCURVE",
"804 2272 CURVE SMOOTH",
"804 2230 OFFCURVE",
"782 2218 OFFCURVE",
"682 2184 CURVE SMOOTH",
"570 2146 OFFCURVE",
"544 2092 OFFCURVE",
"588 2008 CURVE"
);
}
);
width = 1324;
}
);
leftKerningGroup = A;
rightKerningGroup = A;
unicode = 1EB2;
},
{
color = 6;
glyphname = Abrevetilde;
lastChange = "2022-02-16 15:07:45 +0000";
layers = (
{
anchors = (
{
name = bottom;
position = "{650, 0}";
},
{
name = ogonek;
position = "{1288, 0}";
},
{
name = top;
position = "{650, 2174}";
},
{
name = topleft;
position = "{332, 1400}";
}
);
layerId = "38FA562F-EF2C-4367-983C-F15B205514DC";
paths = (
{
closed = 1;
nodes = (
"162 0 LINE",
"314 384 LINE",
"998 384 LINE",
"1158 0 LINE",
"1288 0 LINE",
"700 1400 LINE",
"600 1400 LINE",
"36 0 LINE"
);
},
{
closed = 1;
nodes = (
"646 1228 LINE",
"954 492 LINE",
"356 492 LINE"
);
},
{
closed = 1;
nodes = (
"844 1584 OFFCURVE",
"990 1720 OFFCURVE",
"984 1906 CURVE",
"880 1906 LINE",
"888 1770 OFFCURVE",
"796 1678 OFFCURVE",
"650 1678 CURVE SMOOTH",
"504 1678 OFFCURVE",
"408 1770 OFFCURVE",
"414 1906 CURVE",
"312 1906 LINE",
"304 1720 OFFCURVE",
"448 1584 OFFCURVE",
"650 1584 CURVE SMOOTH"
);
},
{
closed = 1;
nodes = (
"402 2126 OFFCURVE",
"444 2164 OFFCURVE",
"500 2164 CURVE SMOOTH",
"590 2164 OFFCURVE",
"686 2068 OFFCURVE",
"798 2068 CURVE SMOOTH",
"886 2068 OFFCURVE",
"960 2130 OFFCURVE",
"1004 2234 CURVE",
"928 2280 LINE",
"900 2208 OFFCURVE",
"858 2164 OFFCURVE",
"800 2164 CURVE SMOOTH",
"710 2164 OFFCURVE",
"614 2262 OFFCURVE",
"500 2262 CURVE SMOOTH",
"408 2262 OFFCURVE",
"338 2194 OFFCURVE",
"296 2092 CURVE",
"372 2048 LINE"
);
}
);
width = 1324;
}
);
leftKerningGroup = A;
rightKerningGroup = A;
unicode = 1EB4;
},
{
color = 9;
glyphname = Acircumflex;
lastChange = "2022-02-16 15:07:55 +0000";
layers = (
{
anchors = (
{
name = bottom;
position = "{650, 0}";
},
{
name = ogonek;
position = "{1288, 0}";
},
{
name = top;
position = "{650, 1850}";
},
{
name = top_right;
position = "{968, 1648}";
},
{
name = topleft;
position = "{332, 1400}";
}
);
layerId = "38FA562F-EF2C-4367-983C-F15B205514DC";
paths = (
{
closed = 1;
nodes = (
"162 0 LINE",
"314 384 LINE",
"998 384 LINE",
"1158 0 LINE",
"1288 0 LINE",
"700 1400 LINE",
"600 1400 LINE",
"36 0 LINE"
);
},
{
closed = 1;
nodes = (
"646 1228 LINE",
"954 492 LINE",
"356 492 LINE"
);
},
{
closed = 1;
nodes = (
"450 1594 LINE",
"656 1830 LINE",
"854 1594 LINE",
"974 1594 LINE",
"722 1906 LINE",
"596 1906 LINE",
"326 1594 LINE"
);
}
);
width = 1324;
}
);
leftKerningGroup = A;
rightKerningGroup = A;
unicode = 00C2;
},
{
color = 6;
glyphname = Acircumflexacute;
lastChange = "2022-02-16 15:07:45 +0000";
layers = (
{
anchors = (
{
name = bottom;
position = "{650, 0}";
},
{
name = ogonek;
position = "{1288, 0}";
},
{
name = top;
position = "{650, 1850}";
},
{
name = top_right;
position = "{968, 1648}";
},
{
name = topleft;
position = "{332, 1400}";
}
);
layerId = "38FA562F-EF2C-4367-983C-F15B205514DC";
paths = (
{
closed = 1;
nodes = (
"162 0 LINE",
"314 384 LINE",
"998 384 LINE",
"1158 0 LINE",
"1288 0 LINE",
"700 1400 LINE",
"600 1400 LINE",
"36 0 LINE"
);
},
{
closed = 1;
nodes = (
"646 1228 LINE",
"954 492 LINE",
"356 492 LINE"
);
},
{
closed = 1;
nodes = (
"450 1594 LINE",
"656 1830 LINE",
"854 1594 LINE",
"974 1594 LINE",
"722 1906 LINE",
"596 1906 LINE",
"326 1594 LINE"
);
},
{
closed = 1;
nodes = (
"1012 1842 LINE",
"1214 2154 LINE",
"1094 2154 LINE",
"904 1842 LINE"
);
}
);
width = 1324;
}
);
leftKerningGroup = A;
rightKerningGroup = Aviet;
unicode = 1EA4;
},
{
color = 6;
glyphname = Acircumflexdotbelow;
lastChange = "2022-02-16 15:07:45 +0000";
layers = (
{
anchors = (
{
name = bottom;
position = "{650, 0}";
},
{
name = ogonek;
position = "{1288, 0}";
},
{
name = top;
position = "{650, 1850}";
},
{
name = top_right;
position = "{968, 1648}";
},
{
name = topleft;
position = "{332, 1400}";
}
);
layerId = "38FA562F-EF2C-4367-983C-F15B205514DC";
paths = (
{
closed = 1;
nodes = (
"162 0 LINE",
"314 384 LINE",
"998 384 LINE",
"1158 0 LINE",
"1288 0 LINE",
"700 1400 LINE",
"600 1400 LINE",
"36 0 LINE"
);
},
{
closed = 1;
nodes = (
"646 1228 LINE",
"954 492 LINE",
"356 492 LINE"
);
},
{
closed = 1;
nodes = (
"702 -472 OFFCURVE",
"744 -430 OFFCURVE",
"744 -378 CURVE SMOOTH",
"744 -326 OFFCURVE",
"702 -284 OFFCURVE",
"650 -284 CURVE SMOOTH",
"598 -284 OFFCURVE",
"556 -326 OFFCURVE",
"556 -378 CURVE SMOOTH",
"556 -430 OFFCURVE",
"598 -472 OFFCURVE",
"650 -472 CURVE SMOOTH"
);
},
{
closed = 1;
nodes = (
"450 1594 LINE",
"656 1830 LINE",
"854 1594 LINE",
"974 1594 LINE",
"722 1906 LINE",
"596 1906 LINE",
"326 1594 LINE"
);
}
);
width = 1324;
}
);
leftKerningGroup = A;
rightKerningGroup = A;
unicode = 1EAC;
},
{
color = 6;
glyphname = Acircumflexgrave;
lastChange = "2022-02-16 15:07:45 +0000";
layers = (
{
anchors = (
{
name = bottom;
position = "{650, 0}";
},
{
name = ogonek;
position = "{1288, 0}";
},
{
name = top;
position = "{650, 1850}";
},
{
name = top_right;
position = "{968, 1648}";
},
{
name = topleft;
position = "{332, 1400}";
}
);
layerId = "38FA562F-EF2C-4367-983C-F15B205514DC";
paths = (
{
closed = 1;
nodes = (
"162 0 LINE",
"314 384 LINE",
"998 384 LINE",
"1158 0 LINE",
"1288 0 LINE",
"700 1400 LINE",
"600 1400 LINE",
"36 0 LINE"
);
},
{
closed = 1;
nodes = (
"646 1228 LINE",
"954 492 LINE",
"356 492 LINE"
);
},
{
closed = 1;
nodes = (
"450 1594 LINE",
"656 1830 LINE",
"854 1594 LINE",
"974 1594 LINE",
"722 1906 LINE",
"596 1906 LINE",
"326 1594 LINE"
);
},
{
closed = 1;
nodes = (
"1050 1842 LINE",
"862 2154 LINE",
"736 2154 LINE",
"938 1842 LINE"
);
}
);
width = 1324;
}
);
leftKerningGroup = A;
rightKerningGroup = Aviet;
unicode = 1EA6;
},
{
color = 6;
glyphname = Acircumflexhookabove;
lastChange = "2022-02-16 15:07:45 +0000";
layers = (
{
anchors = (
{
name = bottom;
position = "{650, 0}";
},
{
name = ogonek;
position = "{1288, 0}";
},
{
name = top;
position = "{650, 1850}";
},
{
name = top_right;
position = "{968, 1648}";
},
{
name = topleft;
position = "{332, 1400}";
}
);
layerId = "38FA562F-EF2C-4367-983C-F15B205514DC";
paths = (
{
closed = 1;
nodes = (
"162 0 LINE",
"314 384 LINE",
"998 384 LINE",
"1158 0 LINE",
"1288 0 LINE",
"700 1400 LINE",
"600 1400 LINE",
"36 0 LINE"
);
},
{
closed = 1;
nodes = (
"646 1228 LINE",
"954 492 LINE",
"356 492 LINE"
);
},
{
closed = 1;
nodes = (
"450 1594 LINE",
"656 1830 LINE",
"854 1594 LINE",
"974 1594 LINE",
"722 1906 LINE",
"596 1906 LINE",
"326 1594 LINE"
);
},
{
closed = 1;
nodes = (
"1000 1842 LINE",
"964 1914 OFFCURVE",
"980 1938 OFFCURVE",
"1070 1974 CURVE SMOOTH",
"1184 2020 OFFCURVE",
"1218 2052 OFFCURVE",
"1218 2124 CURVE SMOOTH",
"1218 2210 OFFCURVE",
"1112 2274 OFFCURVE",
"970 2274 CURVE SMOOTH",
"886 2274 OFFCURVE",
"804 2258 OFFCURVE",
"736 2228 CURVE",
"772 2154 LINE",
"820 2176 OFFCURVE",
"896 2192 OFFCURVE",
"966 2192 CURVE SMOOTH",
"1056 2192 OFFCURVE",
"1122 2158 OFFCURVE",
"1122 2106 CURVE SMOOTH",
"1122 2064 OFFCURVE",
"1100 2052 OFFCURVE",
"1000 2018 CURVE SMOOTH",
"888 1980 OFFCURVE",
"862 1926 OFFCURVE",
"906 1842 CURVE"
);
}
);
width = 1324;
}
);
leftKerningGroup = A;
rightKerningGroup = Aviet;
unicode = 1EA8;
},
{
color = 6;
glyphname = Acircumflextilde;
lastChange = "2022-02-16 15:07:45 +0000";
layers = (
{
anchors = (
{
name = bottom;
position = "{650, 0}";
},
{
name = ogonek;
position = "{1288, 0}";
},
{
name = top;
position = "{650, 2210}";
},
{
name = top_right;
position = "{968, 1648}";
},
{
name = topleft;
position = "{332, 1400}";
}
);
layerId = "38FA562F-EF2C-4367-983C-F15B205514DC";
paths = (
{
closed = 1;
nodes = (
"162 0 LINE",
"314 384 LINE",
"998 384 LINE",
"1158 0 LINE",
"1288 0 LINE",
"700 1400 LINE",
"600 1400 LINE",
"36 0 LINE"
);
},
{
closed = 1;
nodes = (
"646 1228 LINE",
"954 492 LINE",
"356 492 LINE"
);
},
{
closed = 1;
nodes = (
"450 1594 LINE",
"656 1830 LINE",
"854 1594 LINE",
"974 1594 LINE",
"722 1906 LINE",
"596 1906 LINE",
"326 1594 LINE"
);
},
{
closed = 1;
nodes = (
"402 2162 OFFCURVE",
"444 2200 OFFCURVE",
"500 2200 CURVE SMOOTH",
"590 2200 OFFCURVE",
"686 2104 OFFCURVE",
"798 2104 CURVE SMOOTH",
"886 2104 OFFCURVE",
"960 2166 OFFCURVE",
"1004 2270 CURVE",
"928 2316 LINE",
"900 2244 OFFCURVE",
"858 2200 OFFCURVE",
"800 2200 CURVE SMOOTH",
"710 2200 OFFCURVE",
"614 2298 OFFCURVE",
"500 2298 CURVE SMOOTH",
"408 2298 OFFCURVE",
"338 2230 OFFCURVE",
"296 2128 CURVE",
"372 2084 LINE"
);
}
);
width = 1324;
}
);
leftKerningGroup = A;
rightKerningGroup = A;
unicode = 1EAA;
},
{
color = 6;
glyphname = Adblgrave;
lastChange = "2022-02-16 15:07:45 +0000";
layers = (
{
anchors = (
{
name = bottom;
position = "{650, 0}";
},
{
name = ogonek;
position = "{1288, 0}";
},
{
name = top;
position = "{650, 1400}";
},
{
name = topleft;
position = "{332, 1400}";
}
);
layerId = "38FA562F-EF2C-4367-983C-F15B205514DC";
paths = (
{
closed = 1;
nodes = (
"162 0 LINE",
"314 384 LINE",
"998 384 LINE",
"1158 0 LINE",
"1288 0 LINE",
"700 1400 LINE",
"600 1400 LINE",
"36 0 LINE"
);
},
{
closed = 1;
nodes = (
"646 1228 LINE",
"954 492 LINE",
"356 492 LINE"
);
},
{
closed = 1;
nodes = (
"692 1906 LINE",
"570 1906 LINE",
"772 1594 LINE",
"880 1594 LINE"
);
},
{
closed = 1;
nodes = (
"340 1906 LINE",
"220 1906 LINE",
"422 1594 LINE",
"530 1594 LINE"
);
}
);
width = 1324;
}
);
leftKerningGroup = Aaccent;
rightKerningGroup = A;
unicode = 0200;
},
{
color = 9;
glyphname = Adieresis;
lastChange = "2022-02-16 15:07:55 +0000";
layers = (
{
anchors = (
{
name = bottom;
position = "{650, 0}";
},
{
name = ogonek;
position = "{1288, 0}";
},
{
name = top;
position = "{650, 1706}";
},
{
name = topleft;
position = "{332, 1400}";
}
);
layerId = "38FA562F-EF2C-4367-983C-F15B205514DC";
paths = (
{
closed = 1;
nodes = (
"162 0 LINE",
"314 384 LINE",
"998 384 LINE",
"1158 0 LINE",
"1288 0 LINE",
"700 1400 LINE",
"600 1400 LINE",
"36 0 LINE"
);
},
{
closed = 1;
nodes = (
"646 1228 LINE",
"954 492 LINE",
"356 492 LINE"
);
},
{
closed = 1;
nodes = (
"518 1586 OFFCURVE",
"560 1628 OFFCURVE",
"560 1678 CURVE SMOOTH",
"560 1728 OFFCURVE",
"516 1768 OFFCURVE",
"464 1768 CURVE SMOOTH",
"412 1768 OFFCURVE",
"368 1728 OFFCURVE",
"368 1678 CURVE SMOOTH",
"368 1628 OFFCURVE",
"410 1586 OFFCURVE",
"464 1586 CURVE SMOOTH"
);
},
{
closed = 1;
nodes = (
"890 1586 OFFCURVE",
"934 1628 OFFCURVE",
"934 1678 CURVE SMOOTH",
"934 1728 OFFCURVE",
"890 1768 OFFCURVE",
"838 1768 CURVE SMOOTH",
"784 1768 OFFCURVE",
"742 1726 OFFCURVE",
"742 1678 CURVE SMOOTH",
"742 1628 OFFCURVE",
"784 1586 OFFCURVE",
"838 1586 CURVE SMOOTH"
);
}
);
width = 1324;
}
);
leftKerningGroup = A;
rightKerningGroup = A;
unicode = 00C4;
},
{
color = 6;
glyphname = Adotbelow;
lastChange = "2022-02-16 15:07:45 +0000";
layers = (
{
anchors = (
{
name = bottom;
position = "{650, 0}";
},
{
name = ogonek;
position = "{1288, 0}";
},
{
name = top;
position = "{650, 1400}";
},
{
name = topleft;
position = "{332, 1400}";
}
);
layerId = "38FA562F-EF2C-4367-983C-F15B205514DC";
paths = (
{
closed = 1;
nodes = (
"162 0 LINE",
"314 384 LINE",
"998 384 LINE",
"1158 0 LINE",
"1288 0 LINE",
"700 1400 LINE",
"600 1400 LINE",
"36 0 LINE"
);
},
{
closed = 1;
nodes = (
"646 1228 LINE",
"954 492 LINE",
"356 492 LINE"
);
},
{
closed = 1;
nodes = (
"702 -472 OFFCURVE",
"744 -430 OFFCURVE",
"744 -378 CURVE SMOOTH",
"744 -326 OFFCURVE",
"702 -284 OFFCURVE",
"650 -284 CURVE SMOOTH",
"598 -284 OFFCURVE",
"556 -326 OFFCURVE",
"556 -378 CURVE SMOOTH",
"556 -430 OFFCURVE",
"598 -472 OFFCURVE",
"650 -472 CURVE SMOOTH"
);
}
);
width = 1324;
}
);
leftKerningGroup = A;
rightKerningGroup = A;
unicode = 1EA0;
},
{
color = 9;
glyphname = Agrave;
lastChange = "2022-02-16 15:07:55 +0000";
layers = (
{
anchors = (
{
name = bottom;
position = "{650, 0}";
},
{
name = ogonek;
position = "{1288, 0}";
},
{
name = top;
position = "{650, 1400}";
},
{
name = topleft;
position = "{332, 1400}";
}
);
layerId = "38FA562F-EF2C-4367-983C-F15B205514DC";
paths = (
{
closed = 1;
nodes = (
"162 0 LINE",
"314 384 LINE",
"998 384 LINE",
"1158 0 LINE",
"1288 0 LINE",
"700 1400 LINE",
"600 1400 LINE",
"36 0 LINE"
);
},
{
closed = 1;
nodes = (
"646 1228 LINE",
"954 492 LINE",
"356 492 LINE"
);
},
{
closed = 1;
nodes = (
"732 1594 LINE",
"544 1906 LINE",
"418 1906 LINE",
"620 1594 LINE"
);
}
);
width = 1324;
}
);
leftKerningGroup = A;
rightKerningGroup = A;
unicode = 00C0;
},
{
color = 6;
glyphname = Ahookabove;
lastChange = "2022-02-16 15:07:45 +0000";
layers = (
{
anchors = (
{
name = bottom;
position = "{650, 0}";
},
{
name = ogonek;
position = "{1288, 0}";
},
{
name = top;
position = "{650, 1400}";
},
{
name = topleft;
position = "{332, 1400}";
}
);
layerId = "38FA562F-EF2C-4367-983C-F15B205514DC";
paths = (
{
closed = 1;
nodes = (
"162 0 LINE",
"314 384 LINE",
"998 384 LINE",
"1158 0 LINE",
"1288 0 LINE",
"700 1400 LINE",
"600 1400 LINE",
"36 0 LINE"
);
},
{
closed = 1;
nodes = (
"646 1228 LINE",
"954 492 LINE",
"356 492 LINE"
);
},
{
closed = 1;
nodes = (
"682 1594 LINE",
"646 1666 OFFCURVE",
"662 1690 OFFCURVE",
"752 1726 CURVE SMOOTH",
"866 1772 OFFCURVE",
"900 1804 OFFCURVE",
"900 1876 CURVE SMOOTH",
"900 1962 OFFCURVE",
"794 2026 OFFCURVE",
"652 2026 CURVE SMOOTH",
"568 2026 OFFCURVE",
"486 2010 OFFCURVE",
"418 1980 CURVE",
"454 1906 LINE",
"502 1928 OFFCURVE",
"578 1944 OFFCURVE",
"648 1944 CURVE SMOOTH",
"738 1944 OFFCURVE",
"804 1910 OFFCURVE",
"804 1858 CURVE SMOOTH",
"804 1816 OFFCURVE",
"782 1804 OFFCURVE",
"682 1770 CURVE SMOOTH",
"570 1732 OFFCURVE",
"544 1678 OFFCURVE",
"588 1594 CURVE"
);
}
);
width = 1324;
}
);
leftKerningGroup = A;
rightKerningGroup = A;
unicode = 1EA2;
},
{
color = 6;
glyphname = Ainvertedbreve;
lastChange = "2022-02-16 15:07:45 +0000";
layers = (
{
anchors = (
{
name = bottom;
position = "{650, 0}";
},
{
name = ogonek;
position = "{1288, 0}";
},
{
name = top;
position = "{650, 1400}";
},
{
name = topleft;
position = "{332, 1400}";
}
);
layerId = "38FA562F-EF2C-4367-983C-F15B205514DC";
paths = (
{
closed = 1;
nodes = (
"162 0 LINE",
"314 384 LINE",
"998 384 LINE",
"1158 0 LINE",
"1288 0 LINE",
"700 1400 LINE",
"600 1400 LINE",
"36 0 LINE"
);
},
{
closed = 1;
nodes = (
"646 1228 LINE",
"954 492 LINE",
"356 492 LINE"
);
},
{
closed = 1;
nodes = (
"414 1594 LINE",
"408 1730 OFFCURVE",
"504 1822 OFFCURVE",
"650 1822 CURVE SMOOTH",
"794 1822 OFFCURVE",
"888 1730 OFFCURVE",
"880 1594 CURVE",
"984 1594 LINE",
"990 1778 OFFCURVE",
"846 1916 OFFCURVE",
"650 1916 CURVE SMOOTH",
"454 1916 OFFCURVE",
"304 1786 OFFCURVE",
"312 1594 CURVE"
);
}
);
width = 1324;
}
);
leftKerningGroup = A;
rightKerningGroup = A;
unicode = 0202;
},
{
color = 6;
glyphname = Amacron;
lastChange = "2022-02-16 15:07:45 +0000";
layers = (
{
anchors = (
{
name = bottom;
position = "{650, 0}";
},
{
name = ogonek;
position = "{1288, 0}";
},
{
name = top;
position = "{650, 1400}";
},
{
name = topleft;
position = "{332, 1400}";
}
);
layerId = "38FA562F-EF2C-4367-983C-F15B205514DC";
paths = (
{
closed = 1;
nodes = (
"162 0 LINE",
"314 384 LINE",
"998 384 LINE",
"1158 0 LINE",
"1288 0 LINE",
"700 1400 LINE",
"600 1400 LINE",
"36 0 LINE"
);
},
{
closed = 1;
nodes = (
"646 1228 LINE",
"954 492 LINE",
"356 492 LINE"
);
},
{
closed = 1;
nodes = (
"948 1650 LINE",
"948 1750 LINE",
"352 1750 LINE",
"352 1650 LINE"
);
}
);
width = 1324;
}
);
leftKerningGroup = A;
rightKerningGroup = A;
unicode = 0100;
},
{
color = 6;
glyphname = Aogonek;
lastChange = "2022-02-16 15:07:45 +0000";
layers = (
{
anchors = (
{
name = bottom;
position = "{650, 0}";
},
{
name = ogonek;
position = "{1288, 0}";
},
{
name = top;
position = "{650, 1400}";
},
{
name = topleft;
position = "{332, 1400}";
}
);
layerId = "38FA562F-EF2C-4367-983C-F15B205514DC";
paths = (
{
closed = 1;
nodes = (
"162 0 LINE",
"314 384 LINE",
"998 384 LINE",
"1158 0 LINE",
"1288 0 LINE",
"700 1400 LINE",
"600 1400 LINE",
"36 0 LINE"
);
},
{
closed = 1;
nodes = (
"646 1228 LINE",
"954 492 LINE",
"356 492 LINE"
);
},
{
closed = 1;
nodes = (
"1184 -450 OFFCURVE",
"1241 -435 OFFCURVE",
"1290 -409 CURVE",
"1248 -313 LINE",
"1219 -329 OFFCURVE",
"1183 -340 OFFCURVE",
"1144 -340 CURVE SMOOTH",
"1070 -340 OFFCURVE",
"1046 -291 OFFCURVE",
"1048 -229 CURVE SMOOTH",
"1052 -105 OFFCURVE",
"1148 -38 OFFCURVE",
"1288 0 CURVE",
"1248 68 LINE",
"1080 25 OFFCURVE",
"932 -86 OFFCURVE",
"928 -255 CURVE SMOOTH",
"926 -362 OFFCURVE",
"996 -450 OFFCURVE",
"1128 -450 CURVE SMOOTH"
);
}
);
width = 1324;
}
);
leftKerningGroup = A;
rightKerningGroup = Aogonek;
unicode = 0104;
},
{
color = 9;
glyphname = Aring;
lastChange = "2022-02-16 15:07:55 +0000";
layers = (
{
anchors = (
{
name = bottom;
position = "{650, 0}";
},
{
name = ogonek;
position = "{1288, 0}";
},
{
name = top;
position = "{650, 1888}";
},
{
name = topleft;
position = "{332, 1400}";
}
);
layerId = "38FA562F-EF2C-4367-983C-F15B205514DC";
paths = (
{
closed = 1;
nodes = (
"162 0 LINE",
"314 384 LINE",
"998 384 LINE",
"1158 0 LINE",
"1288 0 LINE",
"700 1400 LINE",
"600 1400 LINE",
"36 0 LINE"
);
},
{
closed = 1;
nodes = (
"646 1228 LINE",
"954 492 LINE",
"356 492 LINE"
);
},
{
closed = 1;
nodes = (
"800 1462 OFFCURVE",
"926 1578 OFFCURVE",
"926 1726 CURVE SMOOTH",
"926 1874 OFFCURVE",
"800 1990 OFFCURVE",
"650 1990 CURVE SMOOTH",
"502 1990 OFFCURVE",
"374 1874 OFFCURVE",
"374 1726 CURVE SMOOTH",
"374 1578 OFFCURVE",
"502 1462 OFFCURVE",
"650 1462 CURVE SMOOTH"
);
},
{
closed = 1;
nodes = (
"548 1554 OFFCURVE",
"470 1626 OFFCURVE",
"470 1726 CURVE SMOOTH",
"470 1826 OFFCURVE",
"548 1898 OFFCURVE",
"650 1898 CURVE SMOOTH",
"752 1898 OFFCURVE",
"830 1826 OFFCURVE",
"830 1726 CURVE SMOOTH",
"830 1626 OFFCURVE",
"752 1554 OFFCURVE",
"650 1554 CURVE SMOOTH"
);
}
);
width = 1324;
}
);
leftKerningGroup = A;
rightKerningGroup = A;
unicode = 00C5;
},
{
color = 6;
glyphname = Aringacute;
lastChange = "2022-02-16 15:07:45 +0000";
layers = (
{
anchors = (
{
name = bottom;
position = "{650, 0}";
},
{
name = ogonek;
position = "{1288, 0}";
},
{
name = top;
position = "{650, 1888}";
},
{
name = topleft;
position = "{332, 1400}";
}
);
layerId = "38FA562F-EF2C-4367-983C-F15B205514DC";
paths = (
{
closed = 1;
nodes = (
"162 0 LINE",
"314 384 LINE",
"998 384 LINE",
"1158 0 LINE",
"1288 0 LINE",
"700 1400 LINE",
"600 1400 LINE",
"36 0 LINE"
);
},
{
closed = 1;
nodes = (
"646 1228 LINE",
"954 492 LINE",
"356 492 LINE"
);
},
{
closed = 1;
nodes = (
"800 1462 OFFCURVE",
"926 1578 OFFCURVE",
"926 1726 CURVE SMOOTH",
"926 1874 OFFCURVE",
"800 1990 OFFCURVE",
"650 1990 CURVE SMOOTH",
"502 1990 OFFCURVE",
"374 1874 OFFCURVE",
"374 1726 CURVE SMOOTH",
"374 1578 OFFCURVE",
"502 1462 OFFCURVE",
"650 1462 CURVE SMOOTH"
);
},
{
closed = 1;
nodes = (
"548 1554 OFFCURVE",
"470 1626 OFFCURVE",
"470 1726 CURVE SMOOTH",
"470 1826 OFFCURVE",
"548 1898 OFFCURVE",
"650 1898 CURVE SMOOTH",
"752 1898 OFFCURVE",
"830 1826 OFFCURVE",
"830 1726 CURVE SMOOTH",
"830 1626 OFFCURVE",
"752 1554 OFFCURVE",
"650 1554 CURVE SMOOTH"
);
},
{
closed = 1;
nodes = (
"694 2082 LINE",
"896 2394 LINE",
"776 2394 LINE",
"586 2082 LINE"
);
}
);
width = 1324;
}
);
leftKerningGroup = A;
rightKerningGroup = A;
unicode = 01FA;
},
{
color = 9;
glyphname = Atilde;
lastChange = "2022-02-16 15:07:55 +0000";
layers = (
{
anchors = (
{
name = bottom;
position = "{650, 0}";
},
{
name = ogonek;
position = "{1288, 0}";
},
{
name = top;
position = "{650, 1760}";
},
{
name = topleft;
position = "{332, 1400}";
}
);
layerId = "38FA562F-EF2C-4367-983C-F15B205514DC";
paths = (
{
closed = 1;
nodes = (
"162 0 LINE",
"314 384 LINE",
"998 384 LINE",
"1158 0 LINE",
"1288 0 LINE",
"700 1400 LINE",
"600 1400 LINE",
"36 0 LINE"
);
},
{
closed = 1;
nodes = (
"646 1228 LINE",
"954 492 LINE",
"356 492 LINE"
);
},
{
closed = 1;
nodes = (
"402 1712 OFFCURVE",
"444 1750 OFFCURVE",
"500 1750 CURVE SMOOTH",
"590 1750 OFFCURVE",
"686 1654 OFFCURVE",
"798 1654 CURVE SMOOTH",
"886 1654 OFFCURVE",
"960 1716 OFFCURVE",
"1004 1820 CURVE",
"928 1866 LINE",
"900 1794 OFFCURVE",
"858 1750 OFFCURVE",
"800 1750 CURVE SMOOTH",
"710 1750 OFFCURVE",
"614 1848 OFFCURVE",
"500 1848 CURVE SMOOTH",
"408 1848 OFFCURVE",
"338 1780 OFFCURVE",
"296 1678 CURVE",
"372 1634 LINE"
);
}
);
width = 1324;
}
);
leftKerningGroup = A;
rightKerningGroup = A;
unicode = 00C3;
},
{
color = 9;
glyphname = AE;
lastChange = "2022-02-16 15:07:55 +0000";
layers = (
{
anchors = (
{
name = top;
position = "{1128, 1400}";
}
);
layerId = "38FA562F-EF2C-4367-983C-F15B205514DC";
paths = (
{
closed = 1;
nodes = (
"116 0 LINE",
"302 380 LINE",
"772 380 LINE",
"772 0 LINE",
"1592 0 LINE",
"1592 108 LINE",
"888 108 LINE",
"888 688 LINE",
"1516 688 LINE",
"1516 796 LINE",
"888 796 LINE",
"888 1292 LINE",
"1584 1292 LINE",
"1584 1400 LINE",
"702 1400 LINE",
"-10 0 LINE"
);
},
{
closed = 1;
nodes = (
"772 1312 LINE",
"772 484 LINE",
"348 484 LINE"
);
}
);
width = 1742;
}
);
leftKerningGroup = AE;
rightKerningGroup = E;
rightMetricsKey = E;
unicode = 00C6;
},
{
color = 6;
glyphname = AEacute;
lastChange = "2022-02-16 15:07:45 +0000";
layers = (
{
anchors = (
{
name = top;
position = "{1128, 1400}";
}
);
layerId = "38FA562F-EF2C-4367-983C-F15B205514DC";
paths = (
{
closed = 1;
nodes = (
"116 0 LINE",
"302 380 LINE",
"772 380 LINE",
"772 0 LINE",
"1592 0 LINE",
"1592 108 LINE",
"888 108 LINE",
"888 688 LINE",
"1516 688 LINE",
"1516 796 LINE",
"888 796 LINE",
"888 1292 LINE",
"1584 1292 LINE",
"1584 1400 LINE",
"702 1400 LINE",
"-10 0 LINE"
);
},
{
closed = 1;
nodes = (
"772 1312 LINE",
"772 484 LINE",
"348 484 LINE"
);
},
{
closed = 1;
nodes = (
"1172 1594 LINE",
"1374 1906 LINE",
"1254 1906 LINE",
"1064 1594 LINE"
);
}
);
width = 1742;
}
);
leftKerningGroup = AE;
rightKerningGroup = E;
unicode = 01FC;
},
{
color = 1;
glyphname = B;
lastChange = "2022-02-16 15:08:08 +0000";
layers = (
{
layerId = "38FA562F-EF2C-4367-983C-F15B205514DC";
paths = (
{
closed = 1;
nodes = (
"650 0 LINE SMOOTH",
"920 0 OFFCURVE",
"1090 164 OFFCURVE",
"1090 376 CURVE SMOOTH",
"1090 568 OFFCURVE",
"964 694 OFFCURVE",
"808 736 CURVE",
"918 770 OFFCURVE",
"1046 910 OFFCURVE",
"1046 1048 CURVE SMOOTH",
"1046 1278 OFFCURVE",
"870 1400 OFFCURVE",
"618 1400 CURVE SMOOTH",
"200 1400 LINE",
"200 0 LINE"
);
},
{
closed = 1;
nodes = (
"316 670 LINE",
"604 670 LINE SMOOTH",
"858 670 OFFCURVE",
"974 572 OFFCURVE",
"974 386 CURVE SMOOTH",
"974 196 OFFCURVE",
"860 108 OFFCURVE",
"622 108 CURVE SMOOTH",
"316 108 LINE"
);
},
{
closed = 1;
nodes = (
"316 1292 LINE",
"592 1292 LINE SMOOTH",
"808 1292 OFFCURVE",
"930 1206 OFFCURVE",
"930 1046 CURVE SMOOTH",
"930 878 OFFCURVE",
"796 778 OFFCURVE",
"594 778 CURVE SMOOTH",
"316 778 LINE"
);
}
);
width = 1220;
}
);
leftKerningGroup = H;
leftMetricsKey = I;
rightKerningGroup = B;
unicode = 0042;
},
{
color = 1;
glyphname = C;
lastChange = "2022-02-16 15:08:08 +0000";
layers = (
{
anchors = (
{
name = bottom;
position = "{786, 0}";
},
{
name = top;
position = "{786, 1400}";
}
);
layerId = "38FA562F-EF2C-4367-983C-F15B205514DC";
paths = (
{
closed = 1;
nodes = (
"1016 -30 OFFCURVE",
"1180 18 OFFCURVE",
"1322 130 CURVE",
"1266 230 LINE",
"1146 124 OFFCURVE",
"1006 82 OFFCURVE",
"850 82 CURVE SMOOTH",
"474 82 OFFCURVE",
"232 308 OFFCURVE",
"232 702 CURVE SMOOTH",
"232 1082 OFFCURVE",
"472 1320 OFFCURVE",
"836 1320 CURVE SMOOTH",
"986 1320 OFFCURVE",
"1112 1280 OFFCURVE",
"1210 1198 CURVE",
"1278 1292 LINE",
"1172 1380 OFFCURVE",
"1018 1430 OFFCURVE",
"826 1430 CURVE SMOOTH",
"410 1430 OFFCURVE",
"112 1122 OFFCURVE",
"112 702 CURVE SMOOTH",
"112 264 OFFCURVE",
"392 -30 OFFCURVE",
"826 -30 CURVE SMOOTH"
);
}
);
width = 1392;
}
);
leftKerningGroup = O;
leftMetricsKey = O;
rightKerningGroup = C;
rightMetricsKey = "=c*1.1";
unicode = 0043;
},
{
color = 6;
glyphname = Cacute;
lastChange = "2022-02-16 15:07:45 +0000";
layers = (
{
anchors = (
{
name = bottom;
position = "{786, 0}";
},
{
name = top;
position = "{786, 1400}";
}
);
layerId = "38FA562F-EF2C-4367-983C-F15B205514DC";
paths = (
{
closed = 1;
nodes = (
"1016 -30 OFFCURVE",
"1180 18 OFFCURVE",
"1322 130 CURVE",
"1266 230 LINE",
"1146 124 OFFCURVE",
"1006 82 OFFCURVE",
"850 82 CURVE SMOOTH",
"474 82 OFFCURVE",
"232 308 OFFCURVE",
"232 702 CURVE SMOOTH",
"232 1082 OFFCURVE",
"472 1320 OFFCURVE",
"836 1320 CURVE SMOOTH",
"986 1320 OFFCURVE",
"1112 1280 OFFCURVE",
"1210 1198 CURVE",
"1278 1292 LINE",
"1172 1380 OFFCURVE",
"1018 1430 OFFCURVE",
"826 1430 CURVE SMOOTH",
"410 1430 OFFCURVE",
"112 1122 OFFCURVE",
"112 702 CURVE SMOOTH",
"112 264 OFFCURVE",
"392 -30 OFFCURVE",
"826 -30 CURVE SMOOTH"
);
},
{
closed = 1;
nodes = (
"830 1594 LINE",
"1032 1906 LINE",
"912 1906 LINE",
"722 1594 LINE"
);
}
);
width = 1392;
}
);
leftKerningGroup = O;
rightKerningGroup = Caccent;
unicode = 0106;
},
{
color = 6;
glyphname = Ccaron;
lastChange = "2022-02-16 15:07:45 +0000";
layers = (
{
anchors = (
{
name = bottom;
position = "{786, 0}";
},
{
name = top;
position = "{786, 1400}";
}
);
layerId = "38FA562F-EF2C-4367-983C-F15B205514DC";
paths = (
{
closed = 1;
nodes = (
"1016 -30 OFFCURVE",
"1180 18 OFFCURVE",
"1322 130 CURVE",
"1266 230 LINE",
"1146 124 OFFCURVE",
"1006 82 OFFCURVE",
"850 82 CURVE SMOOTH",
"474 82 OFFCURVE",
"232 308 OFFCURVE",
"232 702 CURVE SMOOTH",
"232 1082 OFFCURVE",
"472 1320 OFFCURVE",
"836 1320 CURVE SMOOTH",
"986 1320 OFFCURVE",
"1112 1280 OFFCURVE",
"1210 1198 CURVE",
"1278 1292 LINE",
"1172 1380 OFFCURVE",
"1018 1430 OFFCURVE",
"826 1430 CURVE SMOOTH",
"410 1430 OFFCURVE",
"112 1122 OFFCURVE",
"112 702 CURVE SMOOTH",
"112 264 OFFCURVE",
"392 -30 OFFCURVE",
"826 -30 CURVE SMOOTH"
);
},
{
closed = 1;
nodes = (
"840 1594 LINE",
"1110 1906 LINE",
"986 1906 LINE",
"780 1670 LINE",
"582 1906 LINE",
"462 1906 LINE",
"716 1594 LINE"
);
}
);
width = 1392;
}
);
leftKerningGroup = O;
rightKerningGroup = Caccent;
unicode = 010C;
},
{
color = 9;
glyphname = Ccedilla;
lastChange = "2022-02-16 15:07:55 +0000";
layers = (
{
anchors = (
{
name = bottom;
position = "{786, 0}";
},
{
name = top;
position = "{786, 1400}";
}
);
layerId = "38FA562F-EF2C-4367-983C-F15B205514DC";
paths = (
{
closed = 1;
nodes = (
"1016 -30 OFFCURVE",
"1180 18 OFFCURVE",
"1322 130 CURVE",
"1266 230 LINE",
"1146 124 OFFCURVE",
"1006 82 OFFCURVE",
"850 82 CURVE SMOOTH",
"474 82 OFFCURVE",
"232 308 OFFCURVE",
"232 702 CURVE SMOOTH",
"232 1082 OFFCURVE",
"472 1320 OFFCURVE",
"836 1320 CURVE SMOOTH",
"986 1320 OFFCURVE",
"1112 1280 OFFCURVE",
"1210 1198 CURVE",
"1278 1292 LINE",
"1172 1380 OFFCURVE",
"1018 1430 OFFCURVE",
"826 1430 CURVE SMOOTH",
"410 1430 OFFCURVE",
"112 1122 OFFCURVE",
"112 702 CURVE SMOOTH",
"112 264 OFFCURVE",
"392 -30 OFFCURVE",
"826 -30 CURVE SMOOTH"
);
},
{
closed = 1;
nodes = (
"864 -450 OFFCURVE",
"1004 -402 OFFCURVE",
"1004 -266 CURVE SMOOTH",
"1004 -160 OFFCURVE",
"910 -102 OFFCURVE",
"784 -94 CURVE",
"824 40 LINE",
"742 40 LINE",
"688 -126 LINE",
"722 -186 LINE",
"808 -174 OFFCURVE",
"896 -200 OFFCURVE",
"896 -270 CURVE SMOOTH",
"896 -336 OFFCURVE",
"826 -360 OFFCURVE",
"766 -360 CURVE SMOOTH",
"702 -360 OFFCURVE",
"628 -336 OFFCURVE",
"604 -308 CURVE",
"566 -394 LINE",
"622 -430 OFFCURVE",
"690 -450 OFFCURVE",
"770 -450 CURVE SMOOTH"
);
}
);
width = 1392;
}
);
leftKerningGroup = O;
rightKerningGroup = C;
unicode = 00C7;
},
{
color = 6;
glyphname = Ccircumflex;
lastChange = "2022-02-16 15:07:45 +0000";
layers = (
{
anchors = (
{
name = bottom;
position = "{786, 0}";
},
{
name = top;
position = "{786, 1850}";
},
{
name = top_right;
position = "{1104, 1648}";
}
);
layerId = "38FA562F-EF2C-4367-983C-F15B205514DC";
paths = (
{
closed = 1;
nodes = (
"1016 -30 OFFCURVE",
"1180 18 OFFCURVE",
"1322 130 CURVE",
"1266 230 LINE",
"1146 124 OFFCURVE",
"1006 82 OFFCURVE",
"850 82 CURVE SMOOTH",
"474 82 OFFCURVE",
"232 308 OFFCURVE",
"232 702 CURVE SMOOTH",
"232 1082 OFFCURVE",
"472 1320 OFFCURVE",
"836 1320 CURVE SMOOTH",
"986 1320 OFFCURVE",
"1112 1280 OFFCURVE",
"1210 1198 CURVE",
"1278 1292 LINE",
"1172 1380 OFFCURVE",
"1018 1430 OFFCURVE",
"826 1430 CURVE SMOOTH",
"410 1430 OFFCURVE",
"112 1122 OFFCURVE",
"112 702 CURVE SMOOTH",
"112 264 OFFCURVE",
"392 -30 OFFCURVE",
"826 -30 CURVE SMOOTH"
);
},
{
closed = 1;
nodes = (
"586 1594 LINE",
"792 1830 LINE",
"990 1594 LINE",
"1110 1594 LINE",
"858 1906 LINE",
"732 1906 LINE",
"462 1594 LINE"
);
}
);
width = 1392;
}
);
leftKerningGroup = O;
rightKerningGroup = Caccent;
unicode = 0108;
},
{
color = 6;
glyphname = Cdotaccent;
lastChange = "2022-02-16 15:07:45 +0000";
layers = (
{
anchors = (
{
name = bottom;
position = "{786, 0}";
},
{
name = top;
position = "{786, 1706}";
}
);
layerId = "38FA562F-EF2C-4367-983C-F15B205514DC";
paths = (
{
closed = 1;
nodes = (
"1016 -30 OFFCURVE",
"1180 18 OFFCURVE",
"1322 130 CURVE",
"1266 230 LINE",
"1146 124 OFFCURVE",
"1006 82 OFFCURVE",
"850 82 CURVE SMOOTH",
"474 82 OFFCURVE",
"232 308 OFFCURVE",
"232 702 CURVE SMOOTH",
"232 1082 OFFCURVE",
"472 1320 OFFCURVE",
"836 1320 CURVE SMOOTH",
"986 1320 OFFCURVE",
"1112 1280 OFFCURVE",
"1210 1198 CURVE",
"1278 1292 LINE",
"1172 1380 OFFCURVE",
"1018 1430 OFFCURVE",
"826 1430 CURVE SMOOTH",
"410 1430 OFFCURVE",
"112 1122 OFFCURVE",
"112 702 CURVE SMOOTH",
"112 264 OFFCURVE",
"392 -30 OFFCURVE",
"826 -30 CURVE SMOOTH"
);
},
{
closed = 1;
nodes = (
"838 1586 OFFCURVE",
"882 1628 OFFCURVE",
"882 1678 CURVE SMOOTH",
"882 1728 OFFCURVE",
"838 1768 OFFCURVE",
"786 1768 CURVE SMOOTH",
"734 1768 OFFCURVE",
"690 1728 OFFCURVE",
"690 1678 CURVE SMOOTH",
"690 1628 OFFCURVE",
"732 1586 OFFCURVE",
"786 1586 CURVE SMOOTH"
);
}
);
width = 1392;
}
);
leftKerningGroup = O;
rightKerningGroup = C;
unicode = 010A;
},
{
color = 1;
glyphname = D;
lastChange = "2022-02-16 15:08:08 +0000";
layers = (
{
anchors = (
{
name = bar;
position = "{436, 742}";
},
{
name = top;
position = "{676, 1400}";
}
);
layerId = "38FA562F-EF2C-4367-983C-F15B205514DC";
paths = (
{
closed = 1;
nodes = (
"596 0 LINE SMOOTH",
"994 0 OFFCURVE",
"1284 294 OFFCURVE",
"1284 698 CURVE SMOOTH",
"1284 1108 OFFCURVE",
"994 1400 OFFCURVE",
"596 1400 CURVE SMOOTH",
"200 1400 LINE",
"200 0 LINE"
);
},
{
closed = 1;
nodes = (
"316 1292 LINE",
"558 1292 LINE SMOOTH",
"926 1292 OFFCURVE",
"1164 1056 OFFCURVE",
"1164 698 CURVE SMOOTH",
"1164 344 OFFCURVE",
"924 108 OFFCURVE",
"558 108 CURVE SMOOTH",
"316 108 LINE"
);
}
);
width = 1396;
}
);
leftKerningGroup = H;
leftMetricsKey = I;
rightKerningGroup = O;
rightMetricsKey = O;
unicode = 0044;
},
{
color = 9;
glyphname = Eth;
lastChange = "2022-02-16 15:07:55 +0000";
layers = (
{
anchors = (
{
name = bar;
position = "{476, 742}";
},
{
name = top;
position = "{716, 1400}";
}
);
layerId = "38FA562F-EF2C-4367-983C-F15B205514DC";
paths = (
{
closed = 1;
nodes = (
"888 698 LINE",
"888 786 LINE",
"64 786 LINE",
"64 698 LINE"
);
},
{
closed = 1;
nodes = (
"636 0 LINE SMOOTH",
"1034 0 OFFCURVE",
"1324 294 OFFCURVE",
"1324 698 CURVE SMOOTH",
"1324 1108 OFFCURVE",
"1034 1400 OFFCURVE",
"636 1400 CURVE SMOOTH",
"240 1400 LINE",
"240 0 LINE"
);
},
{
closed = 1;
nodes = (
"356 1292 LINE",
"598 1292 LINE SMOOTH",
"966 1292 OFFCURVE",
"1204 1056 OFFCURVE",
"1204 698 CURVE SMOOTH",
"1204 344 OFFCURVE",
"964 108 OFFCURVE",
"598 108 CURVE SMOOTH",
"356 108 LINE"
);
}
);
width = 1436;
}
);
leftKerningGroup = Eth;
widthMetricsKey = "=D+40";
rightKerningGroup = O;
rightMetricsKey = D;
unicode = 00D0;
},
{
color = 0;
glyphname = Dcaron;
lastChange = "2022-02-16 15:36:58 +0000";
layers = (
{
anchors = (
{
name = bar;
position = "{436, 742}";
},
{
name = top;
position = "{676, 1400}";
}
);
layerId = "38FA562F-EF2C-4367-983C-F15B205514DC";
paths = (
{
closed = 1;
nodes = (
"596 0 LINE SMOOTH",
"994 0 OFFCURVE",
"1284 294 OFFCURVE",
"1284 698 CURVE SMOOTH",
"1284 1108 OFFCURVE",
"994 1400 OFFCURVE",
"596 1400 CURVE SMOOTH",
"200 1400 LINE",
"200 0 LINE"
);
},
{
closed = 1;
nodes = (
"316 1292 LINE",
"558 1292 LINE SMOOTH",
"926 1292 OFFCURVE",
"1164 1056 OFFCURVE",
"1164 698 CURVE SMOOTH",
"1164 344 OFFCURVE",
"924 108 OFFCURVE",
"558 108 CURVE SMOOTH",
"316 108 LINE"
);
},
{
closed = 1;
nodes = (
"730 1594 LINE",
"1000 1906 LINE",
"876 1906 LINE",
"670 1670 LINE",
"472 1906 LINE",
"352 1906 LINE",
"606 1594 LINE"
);
}
);
width = 1396;
}
);
leftKerningGroup = Haccent;
rightKerningGroup = O;
unicode = 010E;
},
{
color = 6;
glyphname = Dcroat;
lastChange = "2022-02-16 15:07:45 +0000";
layers = (
{
anchors = (
{
name = bar;
position = "{476, 742}";
},
{
name = top;
position = "{716, 1400}";
}
);
layerId = "38FA562F-EF2C-4367-983C-F15B205514DC";
paths = (
{
closed = 1;
nodes = (
"888 698 LINE",
"888 786 LINE",
"64 786 LINE",
"64 698 LINE"
);
},
{
closed = 1;
nodes = (
"636 0 LINE SMOOTH",
"1034 0 OFFCURVE",
"1324 294 OFFCURVE",
"1324 698 CURVE SMOOTH",
"1324 1108 OFFCURVE",
"1034 1400 OFFCURVE",
"636 1400 CURVE SMOOTH",
"240 1400 LINE",
"240 0 LINE"
);
},
{
closed = 1;
nodes = (
"356 1292 LINE",
"598 1292 LINE SMOOTH",
"966 1292 OFFCURVE",
"1204 1056 OFFCURVE",
"1204 698 CURVE SMOOTH",
"1204 344 OFFCURVE",
"964 108 OFFCURVE",
"598 108 CURVE SMOOTH",
"356 108 LINE"
);
}
);
width = 1436;
}
);
leftKerningGroup = Eth;
rightKerningGroup = O;
unicode = 0110;
},
{
color = 6;
glyphname = Dzcaron;
lastChange = "2022-02-16 15:07:45 +0000";
layers = (
{
anchors = (
{
name = bar;
position = "{436, 742}";
},
{
name = top;
position = "{1856, 960}";
}
);
layerId = "38FA562F-EF2C-4367-983C-F15B205514DC";
paths = (
{
closed = 1;
nodes = (
"596 0 LINE SMOOTH",
"994 0 OFFCURVE",
"1284 294 OFFCURVE",
"1284 698 CURVE SMOOTH",
"1284 1108 OFFCURVE",
"994 1400 OFFCURVE",
"596 1400 CURVE SMOOTH",
"200 1400 LINE",
"200 0 LINE"
);
},
{
closed = 1;
nodes = (
"316 1292 LINE",
"558 1292 LINE SMOOTH",
"926 1292 OFFCURVE",
"1164 1056 OFFCURVE",
"1164 698 CURVE SMOOTH",
"1164 344 OFFCURVE",
"924 108 OFFCURVE",
"558 108 CURVE SMOOTH",
"316 108 LINE"
);
},
{
closed = 1;
nodes = (
"2218 0 LINE",
"2218 104 LINE",
"1632 104 LINE",
"2210 864 LINE",
"2210 960 LINE",
"1502 960 LINE",
"1502 856 LINE",
"2074 856 LINE",
"1496 96 LINE",
"1496 0 LINE"
);
},
{
closed = 1;
nodes = (
"1910 1170 LINE",
"2170 1504 LINE",
"2048 1504 LINE",
"1850 1248 LINE",
"1662 1504 LINE",
"1542 1504 LINE",
"1788 1170 LINE"
);
}
);
width = 2318;
}
);
leftKerningGroup = H;
rightKerningGroup = zaccent;
unicode = 01C5;
},
{
color = 1;
glyphname = E;
lastChange = "2022-02-16 15:08:08 +0000";
layers = (
{
anchors = (
{
name = bottom;
position = "{602, 0}";
},
{
name = ogonek;
position = "{1030, 0}";
},
{
name = top;
position = "{602, 1400}";
},
{
name = topleft;
position = "{120, 1400}";
}
);
layerId = "38FA562F-EF2C-4367-983C-F15B205514DC";
paths = (
{
closed = 1;
nodes = (
"1030 0 LINE",
"1030 108 LINE",
"316 108 LINE",
"316 688 LINE",
"944 688 LINE",
"944 796 LINE",
"316 796 LINE",
"316 1292 LINE",
"1024 1292 LINE",
"1024 1400 LINE",
"200 1400 LINE",
"200 0 LINE"
);
}
);
width = 1180;
}
);
leftKerningGroup = H;
leftMetricsKey = I;
rightKerningGroup = E;
unicode = 0045;
},
{
color = 9;
glyphname = Eacute;
lastChange = "2022-02-16 15:07:55 +0000";
layers = (
{
anchors = (
{
name = bottom;
position = "{602, 0}";
},
{
name = ogonek;
position = "{1030, 0}";
},
{
name = top;
position = "{602, 1400}";
},
{
name = topleft;
position = "{120, 1400}";
}
);
layerId = "38FA562F-EF2C-4367-983C-F15B205514DC";
paths = (
{
closed = 1;
nodes = (
"1030 0 LINE",
"1030 108 LINE",
"316 108 LINE",
"316 688 LINE",
"944 688 LINE",
"944 796 LINE",
"316 796 LINE",
"316 1292 LINE",
"1024 1292 LINE",
"1024 1400 LINE",
"200 1400 LINE",
"200 0 LINE"
);
},
{
closed = 1;
nodes = (
"646 1594 LINE",
"848 1906 LINE",
"728 1906 LINE",
"538 1594 LINE"
);
}
);
width = 1180;
}
);
leftKerningGroup = H;
rightKerningGroup = E;
unicode = 00C9;
},
{
color = 6;
glyphname = Ebreve;
lastChange = "2022-02-16 15:07:45 +0000";
layers = (
{
anchors = (
{
name = bottom;
position = "{602, 0}";
},
{
name = ogonek;
position = "{1030, 0}";
},
{
name = top;
position = "{602, 1814}";
},
{
name = topleft;
position = "{120, 1400}";
}
);
layerId = "38FA562F-EF2C-4367-983C-F15B205514DC";
paths = (
{
closed = 1;
nodes = (
"1030 0 LINE",
"1030 108 LINE",
"316 108 LINE",
"316 688 LINE",
"944 688 LINE",
"944 796 LINE",
"316 796 LINE",
"316 1292 LINE",
"1024 1292 LINE",
"1024 1400 LINE",
"200 1400 LINE",
"200 0 LINE"
);
},
{
closed = 1;
nodes = (
"796 1584 OFFCURVE",
"942 1720 OFFCURVE",
"936 1906 CURVE",
"832 1906 LINE",
"840 1770 OFFCURVE",
"748 1678 OFFCURVE",
"602 1678 CURVE SMOOTH",
"456 1678 OFFCURVE",
"360 1770 OFFCURVE",
"366 1906 CURVE",
"264 1906 LINE",
"256 1720 OFFCURVE",
"400 1584 OFFCURVE",
"602 1584 CURVE SMOOTH"
);
}
);
width = 1180;
}
);
leftKerningGroup = Haccent;
rightKerningGroup = E;
unicode = 0114;
},
{
color = 6;
glyphname = Ecaron;
lastChange = "2022-02-16 15:07:45 +0000";
layers = (
{
anchors = (
{
name = bottom;
position = "{602, 0}";
},
{
name = ogonek;
position = "{1030, 0}";
},
{
name = top;
position = "{602, 1400}";
},
{
name = topleft;
position = "{120, 1400}";
}
);
layerId = "38FA562F-EF2C-4367-983C-F15B205514DC";
paths = (
{
closed = 1;
nodes = (
"1030 0 LINE",
"1030 108 LINE",
"316 108 LINE",
"316 688 LINE",
"944 688 LINE",
"944 796 LINE",
"316 796 LINE",
"316 1292 LINE",
"1024 1292 LINE",
"1024 1400 LINE",
"200 1400 LINE",
"200 0 LINE"
);
},
{
closed = 1;
nodes = (
"656 1594 LINE",
"926 1906 LINE",
"802 1906 LINE",
"596 1670 LINE",
"398 1906 LINE",
"278 1906 LINE",
"532 1594 LINE"
);
}
);
width = 1180;
}
);
leftKerningGroup = Haccent;
rightKerningGroup = Ecaron;
unicode = 011A;
},
{
color = 9;
glyphname = Ecircumflex;
lastChange = "2022-02-16 15:07:55 +0000";
layers = (
{
anchors = (
{
name = bottom;
position = "{602, 0}";
},
{
name = ogonek;
position = "{1030, 0}";
},
{
name = top;
position = "{602, 1850}";
},
{
name = top_right;
position = "{920, 1648}";
},
{
name = topleft;
position = "{120, 1400}";
}
);
layerId = "38FA562F-EF2C-4367-983C-F15B205514DC";
paths = (
{
closed = 1;
nodes = (
"1030 0 LINE",
"1030 108 LINE",
"316 108 LINE",
"316 688 LINE",
"944 688 LINE",
"944 796 LINE",
"316 796 LINE",
"316 1292 LINE",
"1024 1292 LINE",
"1024 1400 LINE",
"200 1400 LINE",
"200 0 LINE"
);
},
{
closed = 1;
nodes = (
"402 1594 LINE",
"608 1830 LINE",
"806 1594 LINE",
"926 1594 LINE",
"674 1906 LINE",
"548 1906 LINE",
"278 1594 LINE"
);
}
);
width = 1180;
}
);
leftKerningGroup = H;
rightKerningGroup = E;
unicode = 00CA;
},
{
color = 6;
glyphname = Ecircumflexacute;
lastChange = "2022-02-16 15:07:45 +0000";
layers = (
{
anchors = (
{
name = bottom;
position = "{602, 0}";
},
{
name = ogonek;
position = "{1030, 0}";
},
{
name = top;
position = "{602, 1850}";
},
{
name = top_right;
position = "{920, 1648}";
},
{
name = topleft;
position = "{120, 1400}";
}
);
layerId = "38FA562F-EF2C-4367-983C-F15B205514DC";
paths = (
{
closed = 1;
nodes = (
"1030 0 LINE",
"1030 108 LINE",
"316 108 LINE",
"316 688 LINE",
"944 688 LINE",
"944 796 LINE",
"316 796 LINE",
"316 1292 LINE",
"1024 1292 LINE",
"1024 1400 LINE",
"200 1400 LINE",
"200 0 LINE"
);
},
{
closed = 1;
nodes = (
"402 1594 LINE",
"608 1830 LINE",
"806 1594 LINE",
"926 1594 LINE",
"674 1906 LINE",
"548 1906 LINE",
"278 1594 LINE"
);
},
{
closed = 1;
nodes = (
"964 1842 LINE",
"1166 2154 LINE",
"1046 2154 LINE",
"856 1842 LINE"
);
}
);
width = 1180;
}
);
leftKerningGroup = H;
rightKerningGroup = Eviet;
unicode = 1EBE;
},
{
color = 6;
glyphname = Ecircumflexdotbelow;
lastChange = "2022-02-16 15:07:45 +0000";
layers = (
{
anchors = (
{
name = bottom;
position = "{602, 0}";
},
{
name = ogonek;
position = "{1030, 0}";
},
{
name = top;
position = "{602, 1850}";
},
{
name = top_right;
position = "{920, 1648}";
},
{
name = topleft;
position = "{120, 1400}";
}
);
layerId = "38FA562F-EF2C-4367-983C-F15B205514DC";
paths = (
{
closed = 1;
nodes = (
"1030 0 LINE",
"1030 108 LINE",
"316 108 LINE",
"316 688 LINE",
"944 688 LINE",
"944 796 LINE",
"316 796 LINE",
"316 1292 LINE",
"1024 1292 LINE",
"1024 1400 LINE",
"200 1400 LINE",
"200 0 LINE"
);
},
{
closed = 1;
nodes = (
"654 -472 OFFCURVE",
"696 -430 OFFCURVE",
"696 -378 CURVE SMOOTH",
"696 -326 OFFCURVE",
"654 -284 OFFCURVE",
"602 -284 CURVE SMOOTH",
"550 -284 OFFCURVE",
"508 -326 OFFCURVE",
"508 -378 CURVE SMOOTH",
"508 -430 OFFCURVE",
"550 -472 OFFCURVE",
"602 -472 CURVE SMOOTH"
);
},
{
closed = 1;
nodes = (
"402 1594 LINE",
"608 1830 LINE",
"806 1594 LINE",
"926 1594 LINE",
"674 1906 LINE",
"548 1906 LINE",
"278 1594 LINE"
);
}
);
width = 1180;
}
);
leftKerningGroup = H;
rightKerningGroup = E;
unicode = 1EC6;
},
{
color = 6;
glyphname = Ecircumflexgrave;
lastChange = "2022-02-16 15:07:45 +0000";
layers = (
{
anchors = (
{
name = bottom;
position = "{602, 0}";
},
{
name = ogonek;
position = "{1030, 0}";
},
{
name = top;
position = "{602, 1850}";
},
{
name = top_right;
position = "{920, 1648}";
},
{
name = topleft;
position = "{120, 1400}";
}
);
layerId = "38FA562F-EF2C-4367-983C-F15B205514DC";
paths = (
{
closed = 1;
nodes = (
"1030 0 LINE",
"1030 108 LINE",
"316 108 LINE",
"316 688 LINE",
"944 688 LINE",
"944 796 LINE",
"316 796 LINE",
"316 1292 LINE",
"1024 1292 LINE",
"1024 1400 LINE",
"200 1400 LINE",
"200 0 LINE"
);
},
{
closed = 1;
nodes = (
"402 1594 LINE",
"608 1830 LINE",
"806 1594 LINE",
"926 1594 LINE",
"674 1906 LINE",
"548 1906 LINE",
"278 1594 LINE"
);
},
{
closed = 1;
nodes = (
"1002 1842 LINE",
"814 2154 LINE",
"688 2154 LINE",
"890 1842 LINE"
);
}
);
width = 1180;
}
);
leftKerningGroup = H;
rightKerningGroup = Eviet;
unicode = 1EC0;
},
{
color = 6;
glyphname = Ecircumflexhookabove;
lastChange = "2022-02-16 15:07:45 +0000";
layers = (
{
anchors = (
{
name = bottom;
position = "{602, 0}";
},
{
name = ogonek;
position = "{1030, 0}";
},
{
name = top;
position = "{602, 1850}";
},
{
name = top_right;
position = "{920, 1648}";
},
{
name = topleft;
position = "{120, 1400}";
}
);
layerId = "38FA562F-EF2C-4367-983C-F15B205514DC";
paths = (
{
closed = 1;
nodes = (
"1030 0 LINE",
"1030 108 LINE",
"316 108 LINE",
"316 688 LINE",
"944 688 LINE",
"944 796 LINE",
"316 796 LINE",
"316 1292 LINE",
"1024 1292 LINE",
"1024 1400 LINE",
"200 1400 LINE",
"200 0 LINE"
);
},
{
closed = 1;
nodes = (
"402 1594 LINE",
"608 1830 LINE",
"806 1594 LINE",
"926 1594 LINE",
"674 1906 LINE",
"548 1906 LINE",
"278 1594 LINE"
);
},
{
closed = 1;
nodes = (
"952 1842 LINE",
"916 1914 OFFCURVE",
"932 1938 OFFCURVE",
"1022 1974 CURVE SMOOTH",
"1136 2020 OFFCURVE",
"1170 2052 OFFCURVE",
"1170 2124 CURVE SMOOTH",
"1170 2210 OFFCURVE",
"1064 2274 OFFCURVE",
"922 2274 CURVE SMOOTH",
"838 2274 OFFCURVE",
"756 2258 OFFCURVE",
"688 2228 CURVE",
"724 2154 LINE",
"772 2176 OFFCURVE",
"848 2192 OFFCURVE",
"918 2192 CURVE SMOOTH",
"1008 2192 OFFCURVE",
"1074 2158 OFFCURVE",
"1074 2106 CURVE SMOOTH",
"1074 2064 OFFCURVE",
"1052 2052 OFFCURVE",
"952 2018 CURVE SMOOTH",
"840 1980 OFFCURVE",
"814 1926 OFFCURVE",
"858 1842 CURVE"
);
}
);
width = 1180;
}
);
leftKerningGroup = H;
rightKerningGroup = Eviet;
unicode = 1EC2;
},
{
color = 6;
glyphname = Ecircumflextilde;
lastChange = "2022-02-16 15:07:45 +0000";
layers = (
{
anchors = (
{
name = bottom;
position = "{602, 0}";
},
{
name = ogonek;
position = "{1030, 0}";
},
{
name = top;
position = "{602, 2210}";
},
{
name = top_right;
position = "{920, 1648}";
},
{
name = topleft;
position = "{120, 1400}";
}
);
layerId = "38FA562F-EF2C-4367-983C-F15B205514DC";
paths = (
{
closed = 1;
nodes = (
"1030 0 LINE",
"1030 108 LINE",
"316 108 LINE",
"316 688 LINE",
"944 688 LINE",
"944 796 LINE",
"316 796 LINE",
"316 1292 LINE",
"1024 1292 LINE",
"1024 1400 LINE",
"200 1400 LINE",
"200 0 LINE"
);
},
{
closed = 1;
nodes = (
"402 1594 LINE",
"608 1830 LINE",
"806 1594 LINE",
"926 1594 LINE",
"674 1906 LINE",
"548 1906 LINE",
"278 1594 LINE"
);
},
{
closed = 1;
nodes = (
"354 2162 OFFCURVE",
"396 2200 OFFCURVE",
"452 2200 CURVE SMOOTH",
"542 2200 OFFCURVE",
"638 2104 OFFCURVE",
"750 2104 CURVE SMOOTH",
"838 2104 OFFCURVE",
"912 2166 OFFCURVE",
"956 2270 CURVE",
"880 2316 LINE",
"852 2244 OFFCURVE",
"810 2200 OFFCURVE",
"752 2200 CURVE SMOOTH",
"662 2200 OFFCURVE",
"566 2298 OFFCURVE",
"452 2298 CURVE SMOOTH",
"360 2298 OFFCURVE",
"290 2230 OFFCURVE",
"248 2128 CURVE",
"324 2084 LINE"
);
}
);
width = 1180;
}
);
leftKerningGroup = Haccent;
rightKerningGroup = Eviet;
unicode = 1EC4;
},
{
color = 6;
glyphname = Edblgrave;
lastChange = "2022-02-16 15:07:45 +0000";
layers = (
{
anchors = (
{
name = bottom;
position = "{602, 0}";
},
{
name = ogonek;
position = "{1030, 0}";
},
{
name = top;
position = "{602, 1400}";
},
{
name = topleft;
position = "{120, 1400}";
}
);
layerId = "38FA562F-EF2C-4367-983C-F15B205514DC";
paths = (
{
closed = 1;
nodes = (
"1030 0 LINE",
"1030 108 LINE",
"316 108 LINE",
"316 688 LINE",
"944 688 LINE",
"944 796 LINE",
"316 796 LINE",
"316 1292 LINE",
"1024 1292 LINE",
"1024 1400 LINE",
"200 1400 LINE",
"200 0 LINE"
);
},
{
closed = 1;
nodes = (
"644 1906 LINE",
"522 1906 LINE",
"724 1594 LINE",
"832 1594 LINE"
);
},
{
closed = 1;
nodes = (
"292 1906 LINE",
"172 1906 LINE",
"374 1594 LINE",
"482 1594 LINE"
);
}
);
width = 1180;
}
);
leftKerningGroup = Edblgrave;
rightKerningGroup = E;
unicode = 0204;
},
{
color = 9;
glyphname = Edieresis;
lastChange = "2022-02-16 15:07:55 +0000";
layers = (
{
anchors = (
{
name = bottom;
position = "{602, 0}";
},
{
name = ogonek;
position = "{1030, 0}";
},
{
name = top;
position = "{602, 1706}";
},
{
name = topleft;
position = "{120, 1400}";
}
);
layerId = "38FA562F-EF2C-4367-983C-F15B205514DC";
paths = (
{
closed = 1;
nodes = (
"1030 0 LINE",
"1030 108 LINE",
"316 108 LINE",
"316 688 LINE",
"944 688 LINE",
"944 796 LINE",
"316 796 LINE",
"316 1292 LINE",
"1024 1292 LINE",
"1024 1400 LINE",
"200 1400 LINE",
"200 0 LINE"
);
},
{
closed = 1;
nodes = (
"470 1586 OFFCURVE",
"512 1628 OFFCURVE",
"512 1678 CURVE SMOOTH",
"512 1728 OFFCURVE",
"468 1768 OFFCURVE",
"416 1768 CURVE SMOOTH",
"364 1768 OFFCURVE",
"320 1728 OFFCURVE",
"320 1678 CURVE SMOOTH",
"320 1628 OFFCURVE",
"362 1586 OFFCURVE",
"416 1586 CURVE SMOOTH"
);
},
{
closed = 1;
nodes = (
"842 1586 OFFCURVE",
"886 1628 OFFCURVE",
"886 1678 CURVE SMOOTH",
"886 1728 OFFCURVE",
"842 1768 OFFCURVE",
"790 1768 CURVE SMOOTH",
"736 1768 OFFCURVE",
"694 1726 OFFCURVE",
"694 1678 CURVE SMOOTH",
"694 1628 OFFCURVE",
"736 1586 OFFCURVE",
"790 1586 CURVE SMOOTH"
);
}
);
width = 1180;
}
);
leftKerningGroup = Haccent;
rightKerningGroup = E;
unicode = 00CB;
},
{
color = 6;
glyphname = Edotaccent;
lastChange = "2022-02-16 15:07:45 +0000";
layers = (
{
anchors = (
{
name = bottom;
position = "{602, 0}";
},
{
name = ogonek;
position = "{1030, 0}";
},
{
name = top;
position = "{602, 1706}";
},
{
name = topleft;
position = "{120, 1400}";
}
);
layerId = "38FA562F-EF2C-4367-983C-F15B205514DC";
paths = (
{
closed = 1;
nodes = (
"1030 0 LINE",
"1030 108 LINE",
"316 108 LINE",
"316 688 LINE",
"944 688 LINE",
"944 796 LINE",
"316 796 LINE",
"316 1292 LINE",
"1024 1292 LINE",
"1024 1400 LINE",
"200 1400 LINE",
"200 0 LINE"
);
},
{
closed = 1;
nodes = (
"654 1586 OFFCURVE",
"698 1628 OFFCURVE",
"698 1678 CURVE SMOOTH",
"698 1728 OFFCURVE",
"654 1768 OFFCURVE",
"602 1768 CURVE SMOOTH",
"550 1768 OFFCURVE",
"506 1728 OFFCURVE",
"506 1678 CURVE SMOOTH",
"506 1628 OFFCURVE",
"548 1586 OFFCURVE",
"602 1586 CURVE SMOOTH"
);
}
);
width = 1180;
}
);
leftKerningGroup = H;
rightKerningGroup = E;
unicode = 0116;
},
{
color = 6;
glyphname = Edotbelow;
lastChange = "2022-02-16 15:07:45 +0000";
layers = (
{
anchors = (
{
name = bottom;
position = "{602, 0}";
},
{
name = ogonek;
position = "{1030, 0}";
},
{
name = top;
position = "{602, 1400}";
},
{
name = topleft;
position = "{120, 1400}";
}
);
layerId = "38FA562F-EF2C-4367-983C-F15B205514DC";
paths = (
{
closed = 1;
nodes = (
"1030 0 LINE",
"1030 108 LINE",
"316 108 LINE",
"316 688 LINE",
"944 688 LINE",
"944 796 LINE",
"316 796 LINE",
"316 1292 LINE",
"1024 1292 LINE",
"1024 1400 LINE",
"200 1400 LINE",
"200 0 LINE"
);
},
{
closed = 1;
nodes = (
"654 -472 OFFCURVE",
"696 -430 OFFCURVE",
"696 -378 CURVE SMOOTH",
"696 -326 OFFCURVE",
"654 -284 OFFCURVE",
"602 -284 CURVE SMOOTH",
"550 -284 OFFCURVE",
"508 -326 OFFCURVE",
"508 -378 CURVE SMOOTH",
"508 -430 OFFCURVE",
"550 -472 OFFCURVE",
"602 -472 CURVE SMOOTH"
);
}
);
width = 1180;
}
);
leftKerningGroup = H;
rightKerningGroup = E;
unicode = 1EB8;
},
{
color = 9;
glyphname = Egrave;
lastChange = "2022-02-16 15:07:55 +0000";
layers = (
{
anchors = (
{
name = bottom;
position = "{602, 0}";
},
{
name = ogonek;
position = "{1030, 0}";
},
{
name = top;
position = "{602, 1400}";
},
{
name = topleft;
position = "{120, 1400}";
}
);
layerId = "38FA562F-EF2C-4367-983C-F15B205514DC";
paths = (
{
closed = 1;
nodes = (
"1030 0 LINE",
"1030 108 LINE",
"316 108 LINE",
"316 688 LINE",
"944 688 LINE",
"944 796 LINE",
"316 796 LINE",
"316 1292 LINE",
"1024 1292 LINE",
"1024 1400 LINE",
"200 1400 LINE",
"200 0 LINE"
);
},
{
closed = 1;
nodes = (
"684 1594 LINE",
"496 1906 LINE",
"370 1906 LINE",
"572 1594 LINE"
);
}
);
width = 1180;
}
);
leftKerningGroup = H;
rightKerningGroup = E;
unicode = 00C8;
},
{
color = 6;
glyphname = Ehookabove;
lastChange = "2022-02-16 15:07:45 +0000";
layers = (
{
anchors = (
{
name = bottom;
position = "{602, 0}";
},
{
name = ogonek;
position = "{1030, 0}";
},
{
name = top;
position = "{602, 1400}";
},
{
name = topleft;
position = "{120, 1400}";
}
);
layerId = "38FA562F-EF2C-4367-983C-F15B205514DC";
paths = (
{
closed = 1;
nodes = (
"1030 0 LINE",
"1030 108 LINE",
"316 108 LINE",
"316 688 LINE",
"944 688 LINE",
"944 796 LINE",
"316 796 LINE",
"316 1292 LINE",
"1024 1292 LINE",
"1024 1400 LINE",
"200 1400 LINE",
"200 0 LINE"
);
},
{
closed = 1;
nodes = (
"634 1594 LINE",
"598 1666 OFFCURVE",
"614 1690 OFFCURVE",
"704 1726 CURVE SMOOTH",
"818 1772 OFFCURVE",
"852 1804 OFFCURVE",
"852 1876 CURVE SMOOTH",
"852 1962 OFFCURVE",
"746 2026 OFFCURVE",
"604 2026 CURVE SMOOTH",
"520 2026 OFFCURVE",
"438 2010 OFFCURVE",
"370 1980 CURVE",
"406 1906 LINE",
"454 1928 OFFCURVE",
"530 1944 OFFCURVE",
"600 1944 CURVE SMOOTH",
"690 1944 OFFCURVE",
"756 1910 OFFCURVE",
"756 1858 CURVE SMOOTH",
"756 1816 OFFCURVE",
"734 1804 OFFCURVE",
"634 1770 CURVE SMOOTH",
"522 1732 OFFCURVE",
"496 1678 OFFCURVE",
"540 1594 CURVE"
);
}
);
width = 1180;
}
);
leftKerningGroup = H;
rightKerningGroup = E;
unicode = 1EBA;
},
{
color = 6;
glyphname = Einvertedbreve;
lastChange = "2022-02-16 15:07:45 +0000";
layers = (
{
anchors = (
{
name = bottom;
position = "{602, 0}";
},
{
name = ogonek;
position = "{1030, 0}";
},
{
name = top;
position = "{602, 1400}";
},
{
name = topleft;
position = "{120, 1400}";
}
);
layerId = "38FA562F-EF2C-4367-983C-F15B205514DC";
paths = (
{
closed = 1;
nodes = (
"1030 0 LINE",
"1030 108 LINE",
"316 108 LINE",
"316 688 LINE",
"944 688 LINE",
"944 796 LINE",
"316 796 LINE",
"316 1292 LINE",
"1024 1292 LINE",
"1024 1400 LINE",
"200 1400 LINE",
"200 0 LINE"
);
},
{
closed = 1;
nodes = (
"366 1594 LINE",
"360 1730 OFFCURVE",
"456 1822 OFFCURVE",
"602 1822 CURVE SMOOTH",
"746 1822 OFFCURVE",
"840 1730 OFFCURVE",
"832 1594 CURVE",
"936 1594 LINE",
"942 1778 OFFCURVE",
"798 1916 OFFCURVE",
"602 1916 CURVE SMOOTH",
"406 1916 OFFCURVE",
"256 1786 OFFCURVE",
"264 1594 CURVE"
);
}
);
width = 1180;
}
);
leftKerningGroup = H;
rightKerningGroup = E;
unicode = 0206;
},
{
color = 6;
glyphname = Emacron;
lastChange = "2022-02-16 15:07:45 +0000";
layers = (
{
anchors = (
{
name = bottom;
position = "{602, 0}";
},
{
name = ogonek;
position = "{1030, 0}";
},
{
name = top;
position = "{602, 1400}";
},
{
name = topleft;
position = "{120, 1400}";
}
);
layerId = "38FA562F-EF2C-4367-983C-F15B205514DC";
paths = (
{
closed = 1;
nodes = (
"1030 0 LINE",
"1030 108 LINE",
"316 108 LINE",
"316 688 LINE",
"944 688 LINE",
"944 796 LINE",
"316 796 LINE",
"316 1292 LINE",
"1024 1292 LINE",
"1024 1400 LINE",
"200 1400 LINE",
"200 0 LINE"
);
},
{
closed = 1;
nodes = (
"900 1650 LINE",
"900 1750 LINE",
"304 1750 LINE",
"304 1650 LINE"
);
}
);
width = 1180;
}
);
leftKerningGroup = H;
rightKerningGroup = E;
unicode = 0112;
},
{
color = 6;
glyphname = Eogonek;
lastChange = "2022-02-16 15:07:45 +0000";
layers = (
{
anchors = (
{
name = bottom;
position = "{602, 0}";
},
{
name = ogonek;
position = "{1030, 0}";
},
{
name = top;
position = "{602, 1400}";
},
{
name = topleft;
position = "{120, 1400}";
}
);
layerId = "38FA562F-EF2C-4367-983C-F15B205514DC";
paths = (
{
closed = 1;
nodes = (
"1030 0 LINE",
"1030 108 LINE",
"316 108 LINE",
"316 688 LINE",
"944 688 LINE",
"944 796 LINE",
"316 796 LINE",
"316 1292 LINE",
"1024 1292 LINE",
"1024 1400 LINE",
"200 1400 LINE",
"200 0 LINE"
);
},
{
closed = 1;
nodes = (
"926 -450 OFFCURVE",
"983 -435 OFFCURVE",
"1032 -409 CURVE",
"990 -313 LINE",
"961 -329 OFFCURVE",
"925 -340 OFFCURVE",
"886 -340 CURVE SMOOTH",
"812 -340 OFFCURVE",
"788 -291 OFFCURVE",
"790 -229 CURVE SMOOTH",
"794 -105 OFFCURVE",
"890 -38 OFFCURVE",
"1030 0 CURVE",
"990 68 LINE",
"822 25 OFFCURVE",
"674 -86 OFFCURVE",
"670 -255 CURVE SMOOTH",
"668 -362 OFFCURVE",
"738 -450 OFFCURVE",
"870 -450 CURVE SMOOTH"
);
}
);
width = 1180;
}
);
leftKerningGroup = H;
rightKerningGroup = Eogonek;
unicode = 0118;
},
{
color = 6;
glyphname = Etilde;
lastChange = "2022-02-16 15:07:45 +0000";
layers = (
{
anchors = (
{
name = bottom;
position = "{602, 0}";
},
{
name = ogonek;
position = "{1030, 0}";
},
{
name = top;
position = "{602, 1760}";
},
{
name = topleft;
position = "{120, 1400}";
}
);
layerId = "38FA562F-EF2C-4367-983C-F15B205514DC";
paths = (
{
closed = 1;
nodes = (
"1030 0 LINE",
"1030 108 LINE",
"316 108 LINE",
"316 688 LINE",
"944 688 LINE",
"944 796 LINE",
"316 796 LINE",
"316 1292 LINE",
"1024 1292 LINE",
"1024 1400 LINE",
"200 1400 LINE",
"200 0 LINE"
);
},
{
closed = 1;
nodes = (
"354 1712 OFFCURVE",
"396 1750 OFFCURVE",
"452 1750 CURVE SMOOTH",
"542 1750 OFFCURVE",
"638 1654 OFFCURVE",
"750 1654 CURVE SMOOTH",
"838 1654 OFFCURVE",
"912 1716 OFFCURVE",
"956 1820 CURVE",
"880 1866 LINE",
"852 1794 OFFCURVE",
"810 1750 OFFCURVE",
"752 1750 CURVE SMOOTH",
"662 1750 OFFCURVE",
"566 1848 OFFCURVE",
"452 1848 CURVE SMOOTH",
"360 1848 OFFCURVE",
"290 1780 OFFCURVE",
"248 1678 CURVE",
"324 1634 LINE"
);
}
);
width = 1180;
}
);
leftKerningGroup = H;
rightKerningGroup = E;
unicode = 1EBC;
},
{
color = 6;
glyphname = Schwa;
lastChange = "2022-02-16 15:07:45 +0000";
layers = (
{
layerId = "38FA562F-EF2C-4367-983C-F15B205514DC";
paths = (
{
closed = 1;
nodes = (
"1195 -30 OFFCURVE",
"1487 288 OFFCURVE",
"1487 720 CURVE SMOOTH",
"1487 1142 OFFCURVE",
"1199 1430 OFFCURVE",
"779 1430 CURVE SMOOTH",
"557 1430 OFFCURVE",
"359 1353 OFFCURVE",
"222 1239 CURVE",
"289 1150 LINE",
"407 1258 OFFCURVE",
"583 1318 OFFCURVE",
"779 1318 CURVE SMOOTH",
"1137 1318 OFFCURVE",
"1367 1084 OFFCURVE",
"1367 720 CURVE SMOOTH",
"1367 340 OFFCURVE",
"1137 82 OFFCURVE",
"777 82 CURVE SMOOTH",
"465 82 OFFCURVE",
"243 310 OFFCURVE",
"241 640 CURVE",
"193 602 LINE",
"1407 602 LINE",
"1407 710 LINE",
"113 710 LINE",
"93 284 OFFCURVE",
"373 -30 OFFCURVE",
"777 -30 CURVE SMOOTH"
);
}
);
userData = {
RMXScaler = {
height = 144.3;
verticalShift = 8;
width = 140;
};
};
width = 1599;
}
);
leftKerningGroup = O;
leftMetricsKey = O;
rightKerningGroup = O;
rightMetricsKey = O;
unicode = 018F;
userData = {
RMXScaler = {
source = schwa;
};
};
},
{
color = 1;
glyphname = F;
lastChange = "2022-02-16 15:08:08 +0000";
layers = (
{
layerId = "38FA562F-EF2C-4367-983C-F15B205514DC";
paths = (
{
closed = 1;
nodes = (
"316 0 LINE",
"316 668 LINE",
"948 668 LINE",
"948 776 LINE",
"316 776 LINE",
"316 1292 LINE",
"1008 1292 LINE",
"1008 1400 LINE",
"200 1400 LINE",
"200 0 LINE"
);
}
);
width = 1132;
}
);
leftKerningGroup = H;
leftMetricsKey = I;
rightKerningGroup = F;
unicode = 0046;
},
{
color = 1;
glyphname = G;
lastChange = "2022-02-16 15:08:08 +0000";
layers = (
{
anchors = (
{
name = bottom;
position = "{860, 0}";
},
{
name = top;
position = "{800, 1400}";
}
);
layerId = "38FA562F-EF2C-4367-983C-F15B205514DC";
paths = (
{
closed = 1;
nodes = (
"1010 -30 OFFCURVE",
"1226 16 OFFCURVE",
"1320 92 CURVE",
"1320 686 LINE",
"860 686 LINE",
"860 578 LINE",
"1208 578 LINE",
"1208 150 LINE",
"1150 112 OFFCURVE",
"1036 78 OFFCURVE",
"888 78 CURVE SMOOTH",
"492 78 OFFCURVE",
"232 310 OFFCURVE",
"232 700 CURVE SMOOTH",
"232 1078 OFFCURVE",
"478 1318 OFFCURVE",
"850 1318 CURVE SMOOTH",
"978 1318 OFFCURVE",
"1112 1284 OFFCURVE",
"1220 1216 CURVE",
"1276 1311 LINE",
"1167 1392 OFFCURVE",
"1014 1430 OFFCURVE",
"860 1430 CURVE SMOOTH",
"418 1430 OFFCURVE",
"112 1132 OFFCURVE",
"112 696 CURVE SMOOTH",
"112 262 OFFCURVE",
"432 -30 OFFCURVE",
"886 -30 CURVE SMOOTH"
);
}
);
width = 1500;
}
);
leftKerningGroup = O;
leftMetricsKey = O;
rightKerningGroup = G;
rightMetricsKey = "=I-20";
unicode = 0047;
},
{
color = 6;
glyphname = Gbreve;
lastChange = "2022-02-16 15:07:45 +0000";
layers = (
{
anchors = (
{
name = bottom;
position = "{860, 0}";
},
{
name = top;
position = "{800, 1814}";
}
);
layerId = "38FA562F-EF2C-4367-983C-F15B205514DC";
paths = (
{
closed = 1;
nodes = (
"1010 -30 OFFCURVE",
"1226 16 OFFCURVE",
"1320 92 CURVE",
"1320 686 LINE",
"860 686 LINE",
"860 578 LINE",
"1208 578 LINE",
"1208 150 LINE",
"1150 112 OFFCURVE",
"1036 78 OFFCURVE",
"888 78 CURVE SMOOTH",
"492 78 OFFCURVE",
"232 310 OFFCURVE",
"232 700 CURVE SMOOTH",
"232 1078 OFFCURVE",
"478 1318 OFFCURVE",
"850 1318 CURVE SMOOTH",
"978 1318 OFFCURVE",
"1112 1284 OFFCURVE",
"1220 1216 CURVE",
"1276 1311 LINE",
"1167 1392 OFFCURVE",
"1014 1430 OFFCURVE",
"860 1430 CURVE SMOOTH",
"418 1430 OFFCURVE",
"112 1132 OFFCURVE",
"112 696 CURVE SMOOTH",
"112 262 OFFCURVE",
"432 -30 OFFCURVE",
"886 -30 CURVE SMOOTH"
);
},
{
closed = 1;
nodes = (
"994 1584 OFFCURVE",
"1140 1720 OFFCURVE",
"1134 1906 CURVE",
"1030 1906 LINE",
"1038 1770 OFFCURVE",
"946 1678 OFFCURVE",
"800 1678 CURVE SMOOTH",
"654 1678 OFFCURVE",
"558 1770 OFFCURVE",
"564 1906 CURVE",
"462 1906 LINE",
"454 1720 OFFCURVE",
"598 1584 OFFCURVE",
"800 1584 CURVE SMOOTH"
);
}
);
width = 1500;
}
);
leftKerningGroup = O;
rightKerningGroup = G;
unicode = 011E;
},
{
color = 6;
glyphname = Gcaron;
lastChange = "2022-02-16 15:07:45 +0000";
layers = (
{
anchors = (
{
name = bottom;
position = "{860, 0}";
},
{
name = top;
position = "{800, 1400}";
}
);
layerId = "38FA562F-EF2C-4367-983C-F15B205514DC";
paths = (
{
closed = 1;
nodes = (
"1010 -30 OFFCURVE",
"1226 16 OFFCURVE",
"1320 92 CURVE",
"1320 686 LINE",
"860 686 LINE",
"860 578 LINE",
"1208 578 LINE",
"1208 150 LINE",
"1150 112 OFFCURVE",
"1036 78 OFFCURVE",
"888 78 CURVE SMOOTH",
"492 78 OFFCURVE",
"232 310 OFFCURVE",
"232 700 CURVE SMOOTH",
"232 1078 OFFCURVE",
"478 1318 OFFCURVE",
"850 1318 CURVE SMOOTH",
"978 1318 OFFCURVE",
"1112 1284 OFFCURVE",
"1220 1216 CURVE",
"1276 1311 LINE",
"1167 1392 OFFCURVE",
"1014 1430 OFFCURVE",
"860 1430 CURVE SMOOTH",
"418 1430 OFFCURVE",
"112 1132 OFFCURVE",
"112 696 CURVE SMOOTH",
"112 262 OFFCURVE",
"432 -30 OFFCURVE",
"886 -30 CURVE SMOOTH"
);
},
{
closed = 1;
nodes = (
"854 1594 LINE",
"1124 1906 LINE",
"1000 1906 LINE",
"794 1670 LINE",
"596 1906 LINE",
"476 1906 LINE",
"730 1594 LINE"
);
}
);
width = 1500;
}
);
leftKerningGroup = O;
rightKerningGroup = G;
unicode = 01E6;
},
{
color = 6;
glyphname = Gcircumflex;
lastChange = "2022-02-16 15:07:45 +0000";
layers = (
{
anchors = (
{
name = bottom;
position = "{860, 0}";
},
{
name = top;
position = "{800, 1850}";
},
{
name = top_right;
position = "{1118, 1648}";
}
);
layerId = "38FA562F-EF2C-4367-983C-F15B205514DC";
paths = (
{
closed = 1;
nodes = (
"1010 -30 OFFCURVE",
"1226 16 OFFCURVE",
"1320 92 CURVE",
"1320 686 LINE",
"860 686 LINE",
"860 578 LINE",
"1208 578 LINE",
"1208 150 LINE",
"1150 112 OFFCURVE",
"1036 78 OFFCURVE",
"888 78 CURVE SMOOTH",
"492 78 OFFCURVE",
"232 310 OFFCURVE",
"232 700 CURVE SMOOTH",
"232 1078 OFFCURVE",
"478 1318 OFFCURVE",
"850 1318 CURVE SMOOTH",
"978 1318 OFFCURVE",
"1112 1284 OFFCURVE",
"1220 1216 CURVE",
"1276 1311 LINE",
"1167 1392 OFFCURVE",
"1014 1430 OFFCURVE",
"860 1430 CURVE SMOOTH",
"418 1430 OFFCURVE",
"112 1132 OFFCURVE",
"112 696 CURVE SMOOTH",
"112 262 OFFCURVE",
"432 -30 OFFCURVE",
"886 -30 CURVE SMOOTH"
);
},
{
closed = 1;
nodes = (
"600 1594 LINE",
"806 1830 LINE",
"1004 1594 LINE",
"1124 1594 LINE",
"872 1906 LINE",
"746 1906 LINE",
"476 1594 LINE"
);
}
);
width = 1500;
}
);
leftKerningGroup = O;
rightKerningGroup = G;
unicode = 011C;
},
{
color = 6;
glyphname = Gcommaaccent;
lastChange = "2022-02-16 15:07:45 +0000";
layers = (
{
anchors = (
{
name = bottom;
position = "{860, 0}";
},
{
name = top;
position = "{800, 1400}";
}
);
layerId = "38FA562F-EF2C-4367-983C-F15B205514DC";
paths = (
{
closed = 1;
nodes = (
"1010 -30 OFFCURVE",
"1226 16 OFFCURVE",
"1320 92 CURVE",
"1320 686 LINE",
"860 686 LINE",
"860 578 LINE",
"1208 578 LINE",
"1208 150 LINE",
"1150 112 OFFCURVE",
"1036 78 OFFCURVE",
"888 78 CURVE SMOOTH",
"492 78 OFFCURVE",
"232 310 OFFCURVE",
"232 700 CURVE SMOOTH",
"232 1078 OFFCURVE",
"478 1318 OFFCURVE",
"850 1318 CURVE SMOOTH",
"978 1318 OFFCURVE",
"1112 1284 OFFCURVE",
"1220 1216 CURVE",
"1276 1311 LINE",
"1167 1392 OFFCURVE",
"1014 1430 OFFCURVE",
"860 1430 CURVE SMOOTH",
"418 1430 OFFCURVE",
"112 1132 OFFCURVE",
"112 696 CURVE SMOOTH",
"112 262 OFFCURVE",
"432 -30 OFFCURVE",
"886 -30 CURVE SMOOTH"
);
},
{
closed = 1;
nodes = (
"891 -583 OFFCURVE",
"965 -486 OFFCURVE",
"965 -400 CURVE SMOOTH",
"965 -327 OFFCURVE",
"923 -284 OFFCURVE",
"859 -284 CURVE SMOOTH",
"802 -284 OFFCURVE",
"760 -322 OFFCURVE",
"760 -372 CURVE SMOOTH",
"760 -423 OFFCURVE",
"806 -460 OFFCURVE",
"865 -456 CURVE",
"852 -501 OFFCURVE",
"787 -554 OFFCURVE",
"711 -591 CURVE",
"765 -653 LINE"
);
}
);
width = 1500;
}
);
leftKerningGroup = O;
rightKerningGroup = G;
unicode = 0122;
},
{
color = 6;
glyphname = Gdotaccent;
lastChange = "2022-02-16 15:07:45 +0000";
layers = (
{
anchors = (
{
name = bottom;
position = "{860, 0}";
},
{
name = top;
position = "{800, 1706}";
}
);
layerId = "38FA562F-EF2C-4367-983C-F15B205514DC";
paths = (
{
closed = 1;
nodes = (
"1010 -30 OFFCURVE",
"1226 16 OFFCURVE",
"1320 92 CURVE",
"1320 686 LINE",
"860 686 LINE",
"860 578 LINE",
"1208 578 LINE",
"1208 150 LINE",
"1150 112 OFFCURVE",
"1036 78 OFFCURVE",
"888 78 CURVE SMOOTH",
"492 78 OFFCURVE",
"232 310 OFFCURVE",
"232 700 CURVE SMOOTH",
"232 1078 OFFCURVE",
"478 1318 OFFCURVE",
"850 1318 CURVE SMOOTH",
"978 1318 OFFCURVE",
"1112 1284 OFFCURVE",
"1220 1216 CURVE",
"1276 1311 LINE",
"1167 1392 OFFCURVE",
"1014 1430 OFFCURVE",
"860 1430 CURVE SMOOTH",
"418 1430 OFFCURVE",
"112 1132 OFFCURVE",
"112 696 CURVE SMOOTH",
"112 262 OFFCURVE",
"432 -30 OFFCURVE",
"886 -30 CURVE SMOOTH"
);
},
{
closed = 1;
nodes = (
"852 1586 OFFCURVE",
"896 1628 OFFCURVE",
"896 1678 CURVE SMOOTH",
"896 1728 OFFCURVE",
"852 1768 OFFCURVE",
"800 1768 CURVE SMOOTH",
"748 1768 OFFCURVE",
"704 1728 OFFCURVE",
"704 1678 CURVE SMOOTH",
"704 1628 OFFCURVE",
"746 1586 OFFCURVE",
"800 1586 CURVE SMOOTH"
);
}
);
width = 1500;
}
);
leftKerningGroup = O;
rightKerningGroup = G;
unicode = 0120;
},
{
color = 1;
glyphname = H;
lastChange = "2022-02-16 15:08:08 +0000";
layers = (
{
anchors = (
{
name = top;
position = "{718, 1400}";
},
{
name = topleft;
position = "{120, 1400}";
}
);
layerId = "38FA562F-EF2C-4367-983C-F15B205514DC";
paths = (
{
closed = 1;
nodes = (
"316 0 LINE",
"316 698 LINE",
"1120 698 LINE",
"1120 0 LINE",
"1236 0 LINE",
"1236 1400 LINE",
"1120 1400 LINE",
"1120 806 LINE",
"316 806 LINE",
"316 1400 LINE",
"200 1400 LINE",
"200 0 LINE"
);
}
);
width = 1436;
}
);
leftKerningGroup = H;
leftMetricsKey = I;
rightKerningGroup = H;
rightMetricsKey = "=|I";
unicode = 0048;
},
{
color = 6;
glyphname = Hbar;
lastChange = "2022-02-16 15:07:45 +0000";
layers = (
{
layerId = "38FA562F-EF2C-4367-983C-F15B205514DC";
paths = (
{
closed = 1;
nodes = (
"1256 0 LINE",
"1256 1400 LINE",
"1140 1400 LINE",
"1140 0 LINE"
);
},
{
closed = 1;
nodes = (
"336 0 LINE",
"336 1400 LINE",
"220 1400 LINE",
"220 0 LINE"
);
},
{
closed = 1;
nodes = (
"1168 658 LINE",
"1168 766 LINE",
"310 766 LINE",
"310 658 LINE"
);
},
{
closed = 1;
nodes = (
"1456 1030 LINE",
"1456 1118 LINE",
"20 1118 LINE",
"20 1030 LINE"
);
}
);
width = 1476;
}
);
leftKerningGroup = Hbar;
rightKerningGroup = Hbar;
rightMetricsKey = "=|";
unicode = 0126;
},
{
color = 6;
glyphname = Hcircumflex;
lastChange = "2022-02-16 15:07:45 +0000";
layers = (
{
anchors = (
{
name = top;
position = "{718, 1850}";
},
{
name = top_right;
position = "{1036, 1648}";
},
{
name = topleft;
position = "{120, 1400}";
}
);
layerId = "38FA562F-EF2C-4367-983C-F15B205514DC";
paths = (
{
closed = 1;
nodes = (
"316 0 LINE",
"316 698 LINE",
"1120 698 LINE",
"1120 0 LINE",
"1236 0 LINE",
"1236 1400 LINE",
"1120 1400 LINE",
"1120 806 LINE",
"316 806 LINE",
"316 1400 LINE",
"200 1400 LINE",
"200 0 LINE"
);
},
{
closed = 1;
nodes = (
"518 1594 LINE",
"724 1830 LINE",
"922 1594 LINE",
"1042 1594 LINE",
"790 1906 LINE",
"664 1906 LINE",
"394 1594 LINE"
);
}
);
width = 1436;
}
);
leftKerningGroup = H;
rightKerningGroup = H;
unicode = 0124;
},
{
color = 1;
glyphname = I;
lastChange = "2022-02-16 15:08:08 +0000";
layers = (
{
anchors = (
{
name = bottom;
position = "{258, 0}";
},
{
name = ogonek;
position = "{316, 0}";
},
{
name = top;
position = "{258, 1400}";
},
{
name = topleft;
position = "{120, 1400}";
}
);
layerId = "38FA562F-EF2C-4367-983C-F15B205514DC";
paths = (
{
closed = 1;
nodes = (
"316 0 LINE",
"316 1400 LINE",
"200 1400 LINE",
"200 0 LINE"
);
}
);
width = 516;
}
);
leftKerningGroup = H;
rightKerningGroup = H;
rightMetricsKey = "=|";
unicode = 0049;
},
{
color = 9;
glyphname = Iacute;
lastChange = "2022-02-16 15:07:55 +0000";
layers = (
{
anchors = (
{
name = bottom;
position = "{258, 0}";
},
{
name = ogonek;
position = "{316, 0}";
},
{
name = top;
position = "{258, 1400}";
},
{
name = topleft;
position = "{120, 1400}";
}
);
layerId = "38FA562F-EF2C-4367-983C-F15B205514DC";
paths = (
{
closed = 1;
nodes = (
"316 0 LINE",
"316 1400 LINE",
"200 1400 LINE",
"200 0 LINE"
);
},
{
closed = 1;
nodes = (
"302 1610 LINE",
"476 1944 LINE",
"356 1944 LINE",
"196 1610 LINE"
);
}
);
width = 516;
}
);
leftKerningGroup = Idot;
rightKerningGroup = Iaccent;
unicode = 00CD;
},
{
color = 6;
glyphname = Ibreve;
lastChange = "2022-02-16 15:07:45 +0000";
layers = (
{
anchors = (
{
name = bottom;
position = "{258, 0}";
},
{
name = ogonek;
position = "{316, 0}";
},
{
name = top;
position = "{258, 1844}";
},
{
name = topleft;
position = "{120, 1400}";
}
);
layerId = "38FA562F-EF2C-4367-983C-F15B205514DC";
paths = (
{
closed = 1;
nodes = (
"316 0 LINE",
"316 1400 LINE",
"200 1400 LINE",
"200 0 LINE"
);
},
{
closed = 1;
nodes = (
"424 1600 OFFCURVE",
"544 1748 OFFCURVE",
"540 1944 CURVE",
"438 1944 LINE",
"446 1796 OFFCURVE",
"370 1696 OFFCURVE",
"258 1696 CURVE SMOOTH",
"144 1696 OFFCURVE",
"68 1796 OFFCURVE",
"74 1944 CURVE",
"-26 1944 LINE",
"-32 1746 OFFCURVE",
"88 1600 OFFCURVE",
"258 1600 CURVE SMOOTH"
);
}
);
width = 516;
}
);
leftKerningGroup = Iaccent;
rightKerningGroup = Iaccent;
unicode = 012C;
},
{
color = 9;
glyphname = Icircumflex;
lastChange = "2022-02-16 15:07:55 +0000";
layers = (
{
anchors = (
{
name = bottom;
position = "{258, 0}";
},
{
name = ogonek;
position = "{316, 0}";
},
{
name = top;
position = "{258, 1884}";
},
{
name = top_right;
position = "{530, 1664}";
},
{
name = topleft;
position = "{120, 1400}";
}
);
layerId = "38FA562F-EF2C-4367-983C-F15B205514DC";
paths = (
{
closed = 1;
nodes = (
"316 0 LINE",
"316 1400 LINE",
"200 1400 LINE",
"200 0 LINE"
);
},
{
closed = 1;
nodes = (
"100 1610 LINE",
"262 1866 LINE",
"418 1610 LINE",
"536 1610 LINE",
"324 1944 LINE",
"206 1944 LINE",
"-18 1610 LINE"
);
}
);
width = 516;
}
);
leftKerningGroup = Iaccent;
rightKerningGroup = Iaccent;
unicode = 00CE;
},
{
color = 6;
glyphname = Idblgrave;
lastChange = "2022-02-16 15:07:45 +0000";
layers = (
{
anchors = (
{
name = bottom;
position = "{258, 0}";
},
{
name = ogonek;
position = "{316, 0}";
},
{
name = top;
position = "{258, 1400}";
},
{
name = topleft;
position = "{120, 1400}";
}
);
layerId = "38FA562F-EF2C-4367-983C-F15B205514DC";
paths = (
{
closed = 1;
nodes = (
"316 0 LINE",
"316 1400 LINE",
"200 1400 LINE",
"200 0 LINE"
);
},
{
closed = 1;
nodes = (
"342 1944 LINE",
"224 1944 LINE",
"344 1610 LINE",
"450 1610 LINE"
);
},
{
closed = 1;
nodes = (
"66 1944 LINE",
"-50 1944 LINE",
"70 1610 LINE",
"174 1610 LINE"
);
}
);
width = 516;
}
);
leftKerningGroup = Idblgrave;
rightKerningGroup = Iaccent;
unicode = 0208;
},
{
color = 9;
glyphname = Idieresis;
lastChange = "2022-02-16 15:07:55 +0000";
layers = (
{
anchors = (
{
name = bottom;
position = "{258, 0}";
},
{
name = ogonek;
position = "{316, 0}";
},
{
name = top;
position = "{258, 1724}";
},
{
name = topleft;
position = "{120, 1400}";
}
);
layerId = "38FA562F-EF2C-4367-983C-F15B205514DC";
paths = (
{
closed = 1;
nodes = (
"316 0 LINE",
"316 1400 LINE",
"200 1400 LINE",
"200 0 LINE"
);
},
{
closed = 1;
nodes = (
"178 1602 OFFCURVE",
"220 1644 OFFCURVE",
"220 1696 CURVE SMOOTH",
"220 1748 OFFCURVE",
"178 1790 OFFCURVE",
"126 1790 CURVE SMOOTH",
"74 1790 OFFCURVE",
"32 1748 OFFCURVE",
"32 1696 CURVE SMOOTH",
"32 1644 OFFCURVE",
"74 1602 OFFCURVE",
"126 1602 CURVE SMOOTH"
);
},
{
closed = 1;
nodes = (
"442 1602 OFFCURVE",
"484 1644 OFFCURVE",
"484 1696 CURVE SMOOTH",
"484 1748 OFFCURVE",
"442 1790 OFFCURVE",
"390 1790 CURVE SMOOTH",
"338 1790 OFFCURVE",
"296 1748 OFFCURVE",
"296 1696 CURVE SMOOTH",
"296 1644 OFFCURVE",
"338 1602 OFFCURVE",
"390 1602 CURVE SMOOTH"
);
}
);
width = 516;
}
);
leftKerningGroup = Iaccent;
rightKerningGroup = Iaccent;
unicode = 00CF;
},
{
color = 6;
glyphname = Idotaccent;
lastChange = "2022-02-16 15:07:45 +0000";
layers = (
{
anchors = (
{
name = bottom;
position = "{258, 0}";
},
{
name = ogonek;
position = "{316, 0}";
},
{
name = top;
position = "{258, 1706}";
},
{
name = topleft;
position = "{120, 1400}";
}
);
layerId = "38FA562F-EF2C-4367-983C-F15B205514DC";
paths = (
{
closed = 1;
nodes = (
"316 0 LINE",
"316 1400 LINE",
"200 1400 LINE",
"200 0 LINE"
);
},
{
closed = 1;
nodes = (
"310 1586 OFFCURVE",
"354 1628 OFFCURVE",
"354 1678 CURVE SMOOTH",
"354 1728 OFFCURVE",
"310 1768 OFFCURVE",
"258 1768 CURVE SMOOTH",
"206 1768 OFFCURVE",
"162 1728 OFFCURVE",
"162 1678 CURVE SMOOTH",
"162 1628 OFFCURVE",
"204 1586 OFFCURVE",
"258 1586 CURVE SMOOTH"
);
}
);
width = 516;
}
);
leftKerningGroup = Idot;
rightKerningGroup = Idot;
unicode = 0130;
},
{
color = 6;
glyphname = Idotbelow;
lastChange = "2022-02-16 15:07:45 +0000";
layers = (
{
anchors = (
{
name = bottom;
position = "{258, 0}";
},
{
name = ogonek;
position = "{316, 0}";
},
{
name = top;
position = "{258, 1400}";
},
{
name = topleft;
position = "{120, 1400}";
}
);
layerId = "38FA562F-EF2C-4367-983C-F15B205514DC";
paths = (
{
closed = 1;
nodes = (
"316 0 LINE",
"316 1400 LINE",
"200 1400 LINE",
"200 0 LINE"
);
},
{
closed = 1;
nodes = (
"310 -472 OFFCURVE",
"352 -430 OFFCURVE",
"352 -378 CURVE SMOOTH",
"352 -326 OFFCURVE",
"310 -284 OFFCURVE",
"258 -284 CURVE SMOOTH",
"206 -284 OFFCURVE",
"164 -326 OFFCURVE",
"164 -378 CURVE SMOOTH",
"164 -430 OFFCURVE",
"206 -472 OFFCURVE",
"258 -472 CURVE SMOOTH"
);
}
);
width = 516;
}
);
leftKerningGroup = Iaccentbelow;
rightKerningGroup = Iaccentbelow;
unicode = 1ECA;
},
{
color = 9;
glyphname = Igrave;
lastChange = "2022-02-16 15:07:55 +0000";
layers = (
{
anchors = (
{
name = bottom;
position = "{258, 0}";
},
{
name = ogonek;
position = "{316, 0}";
},
{
name = top;
position = "{258, 1400}";
},
{
name = topleft;
position = "{120, 1400}";
}
);
layerId = "38FA562F-EF2C-4367-983C-F15B205514DC";
paths = (
{
closed = 1;
nodes = (
"316 0 LINE",
"316 1400 LINE",
"200 1400 LINE",
"200 0 LINE"
);
},
{
closed = 1;
nodes = (
"340 1594 LINE",
"152 1906 LINE",
"26 1906 LINE",
"228 1594 LINE"
);
}
);
width = 516;
}
);
leftKerningGroup = Iaccent;
rightKerningGroup = Idot;
unicode = 00CC;
},
{
color = 6;
glyphname = Ihookabove;
lastChange = "2022-02-16 15:07:45 +0000";
layers = (
{
anchors = (
{
name = bottom;
position = "{258, 0}";
},
{
name = ogonek;
position = "{316, 0}";
},
{
name = top;
position = "{258, 1400}";
},
{
name = topleft;
position = "{120, 1400}";
}
);
layerId = "38FA562F-EF2C-4367-983C-F15B205514DC";
paths = (
{
closed = 1;
nodes = (
"316 0 LINE",
"316 1400 LINE",
"200 1400 LINE",
"200 0 LINE"
);
},
{
closed = 1;
nodes = (
"290 1610 LINE",
"260 1688 OFFCURVE",
"274 1714 OFFCURVE",
"350 1754 CURVE SMOOTH",
"444 1802 OFFCURVE",
"474 1838 OFFCURVE",
"474 1914 CURVE SMOOTH",
"474 2006 OFFCURVE",
"382 2074 OFFCURVE",
"260 2074 CURVE SMOOTH",
"190 2074 OFFCURVE",
"116 2058 OFFCURVE",
"58 2026 CURVE",
"88 1948 LINE",
"132 1974 OFFCURVE",
"196 1990 OFFCURVE",
"250 1990 CURVE SMOOTH",
"324 1990 OFFCURVE",
"380 1954 OFFCURVE",
"380 1896 CURVE SMOOTH",
"380 1850 OFFCURVE",
"360 1836 OFFCURVE",
"280 1800 CURVE SMOOTH",
"186 1758 OFFCURVE",
"162 1702 OFFCURVE",
"202 1610 CURVE"
);
}
);
width = 516;
}
);
leftKerningGroup = Iaccent;
rightKerningGroup = Iaccent;
unicode = 1EC8;
},
{
color = 6;
glyphname = Iinvertedbreve;
lastChange = "2022-02-16 15:07:45 +0000";
layers = (
{
anchors = (
{
name = bottom;
position = "{258, 0}";
},
{
name = ogonek;
position = "{316, 0}";
},
{
name = top;
position = "{258, 1400}";
},
{
name = topleft;
position = "{120, 1400}";
}
);
layerId = "38FA562F-EF2C-4367-983C-F15B205514DC";
paths = (
{
closed = 1;
nodes = (
"316 0 LINE",
"316 1400 LINE",
"200 1400 LINE",
"200 0 LINE"
);
},
{
closed = 1;
nodes = (
"74 1610 LINE",
"68 1758 OFFCURVE",
"144 1858 OFFCURVE",
"258 1858 CURVE SMOOTH",
"370 1858 OFFCURVE",
"446 1758 OFFCURVE",
"438 1610 CURVE",
"540 1610 LINE",
"544 1806 OFFCURVE",
"424 1954 OFFCURVE",
"258 1954 CURVE SMOOTH",
"88 1954 OFFCURVE",
"-32 1808 OFFCURVE",
"-26 1610 CURVE"
);
}
);
width = 516;
}
);
leftKerningGroup = Iaccent;
rightKerningGroup = Iaccent;
unicode = 020A;
},
{
color = 6;
glyphname = Imacron;
lastChange = "2022-02-16 15:07:45 +0000";
layers = (
{
anchors = (
{
name = bottom;
position = "{258, 0}";
},
{
name = ogonek;
position = "{316, 0}";
},
{
name = top;
position = "{258, 1400}";
},
{
name = topleft;
position = "{120, 1400}";
}
);
layerId = "38FA562F-EF2C-4367-983C-F15B205514DC";
paths = (
{
closed = 1;
nodes = (
"316 0 LINE",
"316 1400 LINE",
"200 1400 LINE",
"200 0 LINE"
);
},
{
closed = 1;
nodes = (
"510 1670 LINE",
"510 1774 LINE",
"8 1774 LINE",
"8 1670 LINE"
);
}
);
width = 516;
}
);
leftKerningGroup = Iaccent;
rightKerningGroup = Iaccent;
unicode = 012A;
},
{
color = 6;
glyphname = Iogonek;
lastChange = "2022-02-16 15:07:45 +0000";
layers = (
{
anchors = (
{
name = bottom;
position = "{258, 0}";
},
{
name = ogonek;
position = "{316, 0}";
},
{
name = top;
position = "{258, 1400}";
},
{
name = topleft;
position = "{120, 1400}";
}
);
layerId = "38FA562F-EF2C-4367-983C-F15B205514DC";
paths = (
{
closed = 1;
nodes = (
"316 0 LINE",
"316 1400 LINE",
"200 1400 LINE",
"200 0 LINE"
);
},
{
closed = 1;
nodes = (
"212 -450 OFFCURVE",
"269 -435 OFFCURVE",
"318 -409 CURVE",
"276 -313 LINE",
"247 -329 OFFCURVE",
"211 -340 OFFCURVE",
"172 -340 CURVE SMOOTH",
"98 -340 OFFCURVE",
"74 -291 OFFCURVE",
"76 -229 CURVE SMOOTH",
"80 -105 OFFCURVE",
"176 -38 OFFCURVE",
"316 0 CURVE",
"276 68 LINE",
"108 25 OFFCURVE",
"-40 -86 OFFCURVE",
"-44 -255 CURVE SMOOTH",
"-46 -362 OFFCURVE",
"24 -450 OFFCURVE",
"156 -450 CURVE SMOOTH"
);
}
);
width = 516;
}
);
leftKerningGroup = Iogonek;
rightKerningGroup = Iogonek;
unicode = 012E;
},
{
color = 6;
glyphname = Itilde;
lastChange = "2022-02-16 15:07:45 +0000";
layers = (
{
anchors = (
{
name = bottom;
position = "{258, 0}";
},
{
name = ogonek;
position = "{316, 0}";
},
{
name = top;
position = "{258, 1784}";
},
{
name = topleft;
position = "{120, 1400}";
}
);
layerId = "38FA562F-EF2C-4367-983C-F15B205514DC";
paths = (
{
closed = 1;
nodes = (
"316 0 LINE",
"316 1400 LINE",
"200 1400 LINE",
"200 0 LINE"
);
},
{
closed = 1;
nodes = (
"50 1732 OFFCURVE",
"84 1780 OFFCURVE",
"134 1780 CURVE SMOOTH",
"208 1780 OFFCURVE",
"286 1676 OFFCURVE",
"382 1676 CURVE SMOOTH",
"456 1676 OFFCURVE",
"520 1742 OFFCURVE",
"554 1854 CURVE",
"488 1900 LINE",
"466 1822 OFFCURVE",
"428 1774 OFFCURVE",
"382 1774 CURVE SMOOTH",
"308 1774 OFFCURVE",
"230 1880 OFFCURVE",
"134 1880 CURVE SMOOTH",
"54 1880 OFFCURVE",
"-4 1806 OFFCURVE",
"-40 1700 CURVE",
"26 1656 LINE"
);
}
);
width = 516;
}
);
leftKerningGroup = Iaccent;
rightKerningGroup = Iaccent;
unicode = 0128;
},
{
color = 1;
glyphname = J;
lastChange = "2022-02-16 15:08:08 +0000";
layers = (
{
anchors = (
{
name = top;
position = "{694, 1400}";
}
);
layerId = "38FA562F-EF2C-4367-983C-F15B205514DC";
paths = (
{
closed = 1;
nodes = (
"604 -30 OFFCURVE",
"752 120 OFFCURVE",
"752 362 CURVE SMOOTH",
"752 1400 LINE",
"636 1400 LINE",
"636 366 LINE SMOOTH",
"636 160 OFFCURVE",
"530 78 OFFCURVE",
"326 78 CURVE SMOOTH",
"244 78 OFFCURVE",
"168 102 OFFCURVE",
"100 144 CURVE",
"51 44 LINE",
"144 -6 OFFCURVE",
"237 -30 OFFCURVE",
"336 -30 CURVE SMOOTH"
);
}
);
width = 950;
}
);
leftKerningGroup = J;
rightKerningGroup = U;
rightMetricsKey = "=I-2";
unicode = 004A;
},
{
color = 6;
glyphname = Jcircumflex;
lastChange = "2022-02-16 15:07:45 +0000";
layers = (
{
anchors = (
{
name = top;
position = "{694, 1884}";
},
{
name = top_right;
position = "{966, 1664}";
}
);
layerId = "38FA562F-EF2C-4367-983C-F15B205514DC";
paths = (
{
closed = 1;
nodes = (
"604 -30 OFFCURVE",
"752 120 OFFCURVE",
"752 362 CURVE SMOOTH",
"752 1400 LINE",
"636 1400 LINE",
"636 366 LINE SMOOTH",
"636 160 OFFCURVE",
"530 78 OFFCURVE",
"326 78 CURVE SMOOTH",
"244 78 OFFCURVE",
"168 102 OFFCURVE",
"100 144 CURVE",
"51 44 LINE",
"144 -6 OFFCURVE",
"237 -30 OFFCURVE",
"336 -30 CURVE SMOOTH"
);
},
{
closed = 1;
nodes = (
"536 1610 LINE",
"698 1866 LINE",
"854 1610 LINE",
"972 1610 LINE",
"760 1944 LINE",
"642 1944 LINE",
"418 1610 LINE"
);
}
);
width = 950;
}
);
leftKerningGroup = J;
rightKerningGroup = Jaccent;
unicode = 0134;
},
{
color = 1;
glyphname = K;
lastChange = "2022-02-16 15:08:08 +0000";
layers = (
{
anchors = (
{
name = bottom;
position = "{692, 0}";
}
);
layerId = "38FA562F-EF2C-4367-983C-F15B205514DC";
paths = (
{
closed = 1;
nodes = (
"316 0 LINE",
"316 394 LINE",
"554 684 LINE",
"1072 0 LINE",
"1224 0 LINE",
"630 776 LINE",
"1136 1400 LINE",
"998 1400 LINE",
"316 564 LINE",
"316 1400 LINE",
"200 1400 LINE",
"200 0 LINE"
);
}
);
width = 1314;
}
);
leftKerningGroup = H;
leftMetricsKey = I;
rightKerningGroup = K;
unicode = 004B;
},
{
color = 6;
glyphname = Kcommaaccent;
lastChange = "2022-02-16 15:07:45 +0000";
layers = (
{
anchors = (
{
name = bottom;
position = "{692, 0}";
}
);
layerId = "38FA562F-EF2C-4367-983C-F15B205514DC";
paths = (
{
closed = 1;
nodes = (
"316 0 LINE",
"316 394 LINE",
"554 684 LINE",
"1072 0 LINE",
"1224 0 LINE",
"630 776 LINE",
"1136 1400 LINE",
"998 1400 LINE",
"316 564 LINE",
"316 1400 LINE",
"200 1400 LINE",
"200 0 LINE"
);
},
{
closed = 1;
nodes = (
"723 -583 OFFCURVE",
"797 -486 OFFCURVE",
"797 -400 CURVE SMOOTH",
"797 -327 OFFCURVE",
"755 -284 OFFCURVE",
"691 -284 CURVE SMOOTH",
"634 -284 OFFCURVE",
"592 -322 OFFCURVE",
"592 -372 CURVE SMOOTH",
"592 -423 OFFCURVE",
"638 -460 OFFCURVE",
"697 -456 CURVE",
"684 -501 OFFCURVE",
"619 -554 OFFCURVE",
"543 -591 CURVE",
"597 -653 LINE"
);
}
);
width = 1314;
}
);
leftKerningGroup = H;
rightKerningGroup = K;
unicode = 0136;
},
{
color = 1;
glyphname = L;
lastChange = "2022-02-16 15:08:08 +0000";
layers = (
{
anchors = (
{
name = bottom;
position = "{588, 0}";
},
{
name = caron;
position = "{316, 1440}";
},
{
name = top;
position = "{258, 1400}";
}
);
layerId = "38FA562F-EF2C-4367-983C-F15B205514DC";
paths = (
{
closed = 1;
nodes = (
"974 0 LINE",
"974 108 LINE",
"316 108 LINE",
"316 1400 LINE",
"200 1400 LINE",
"200 0 LINE"
);
}
);
width = 1054;
}
);
leftKerningGroup = H;
leftMetricsKey = I;
rightKerningGroup = L;
unicode = 004C;
},
{
color = 6;
glyphname = LJ;
lastChange = "2022-02-16 15:07:45 +0000";
layers = (
{
anchors = (
{
name = bottom;
position = "{588, 0}";
},
{
name = caron;
position = "{316, 1440}";
},
{
name = top;
position = "{1748, 1400}";
}
);
layerId = "38FA562F-EF2C-4367-983C-F15B205514DC";
paths = (
{
closed = 1;
nodes = (
"974 0 LINE",
"974 108 LINE",
"316 108 LINE",
"316 1400 LINE",
"200 1400 LINE",
"200 0 LINE"
);
},
{
closed = 1;
nodes = (
"1658 -30 OFFCURVE",
"1806 120 OFFCURVE",
"1806 362 CURVE SMOOTH",
"1806 1400 LINE",
"1690 1400 LINE",
"1690 366 LINE SMOOTH",
"1690 160 OFFCURVE",
"1584 78 OFFCURVE",
"1380 78 CURVE SMOOTH",
"1298 78 OFFCURVE",
"1222 102 OFFCURVE",
"1154 144 CURVE",
"1105 44 LINE",
"1198 -6 OFFCURVE",
"1291 -30 OFFCURVE",
"1390 -30 CURVE SMOOTH"
);
}
);
width = 2004;
}
);
leftKerningGroup = H;
rightKerningGroup = U;
unicode = 01C7;
},
{
color = 6;
glyphname = Lacute;
lastChange = "2022-02-16 15:07:45 +0000";
layers = (
{
anchors = (
{
name = bottom;
position = "{588, 0}";
},
{
name = caron;
position = "{316, 1440}";
},
{
name = top;
position = "{258, 1400}";
}
);
layerId = "38FA562F-EF2C-4367-983C-F15B205514DC";
paths = (
{
closed = 1;
nodes = (
"974 0 LINE",
"974 108 LINE",
"316 108 LINE",
"316 1400 LINE",
"200 1400 LINE",
"200 0 LINE"
);
},
{
closed = 1;
nodes = (
"302 1594 LINE",
"504 1906 LINE",
"384 1906 LINE",
"194 1594 LINE"
);
}
);
width = 1054;
}
);
leftKerningGroup = Idot;
rightKerningGroup = L;
unicode = 0139;
},
{
color = 6;
glyphname = Lcaron;
lastChange = "2022-02-16 15:07:45 +0000";
layers = (
{
anchors = (
{
name = bottom;
position = "{588, 0}";
},
{
name = caron;
position = "{316, 1440}";
},
{
name = top;
position = "{258, 1400}";
}
);
layerId = "38FA562F-EF2C-4367-983C-F15B205514DC";
paths = (
{
closed = 1;
nodes = (
"974 0 LINE",
"974 108 LINE",
"316 108 LINE",
"316 1400 LINE",
"200 1400 LINE",
"200 0 LINE"
);
},
{
closed = 1;
nodes = (
"552 992 LINE",
"598 1440 LINE",
"466 1440 LINE",
"466 992 LINE"
);
}
);
width = 1054;
}
);
leftKerningGroup = H;
rightKerningGroup = Lcaron;
unicode = 013D;
},
{
color = 6;
glyphname = Lcommaaccent;
lastChange = "2022-02-16 15:07:45 +0000";
layers = (
{
anchors = (
{
name = bottom;
position = "{588, 0}";
},
{
name = caron;
position = "{316, 1440}";
},
{
name = top;
position = "{258, 1400}";
}
);
layerId = "38FA562F-EF2C-4367-983C-F15B205514DC";
paths = (
{
closed = 1;
nodes = (
"974 0 LINE",
"974 108 LINE",
"316 108 LINE",
"316 1400 LINE",
"200 1400 LINE",
"200 0 LINE"
);
},
{
closed = 1;
nodes = (
"619 -583 OFFCURVE",
"693 -486 OFFCURVE",
"693 -400 CURVE SMOOTH",
"693 -327 OFFCURVE",
"651 -284 OFFCURVE",
"587 -284 CURVE SMOOTH",
"530 -284 OFFCURVE",
"488 -322 OFFCURVE",
"488 -372 CURVE SMOOTH",
"488 -423 OFFCURVE",
"534 -460 OFFCURVE",
"593 -456 CURVE",
"580 -501 OFFCURVE",
"515 -554 OFFCURVE",
"439 -591 CURVE",
"493 -653 LINE"
);
}
);
width = 1054;
}
);
leftKerningGroup = H;
rightKerningGroup = L;
unicode = 013B;
},
{
color = 6;
glyphname = Ldot;
lastChange = "2022-02-16 15:07:45 +0000";
layers = (
{
anchors = (
{
name = bottom;
position = "{588, 0}";
},
{
name = caron;
position = "{316, 1440}";
},
{
name = top;
position = "{258, 1400}";
}
);
layerId = "38FA562F-EF2C-4367-983C-F15B205514DC";
paths = (
{
closed = 1;
nodes = (
"974 0 LINE",
"974 108 LINE",
"316 108 LINE",
"316 1400 LINE",
"200 1400 LINE",
"200 0 LINE"
);
},
{
closed = 1;
nodes = (
"942 630 OFFCURVE",
"990 674 OFFCURVE",
"990 734 CURVE SMOOTH",
"990 794 OFFCURVE",
"942 838 OFFCURVE",
"880 838 CURVE SMOOTH",
"818 838 OFFCURVE",
"770 794 OFFCURVE",
"770 734 CURVE SMOOTH",
"770 674 OFFCURVE",
"818 630 OFFCURVE",
"880 630 CURVE SMOOTH"
);
}
);
width = 1054;
}
);
leftKerningGroup = H;
leftMetricsKey = H;
widthMetricsKey = L;
rightKerningGroup = Ldot;
unicode = 013F;
},
{
color = 6;
glyphname = Lslash;
lastChange = "2022-02-16 15:07:45 +0000";
layers = (
{
anchors = (
{
name = bottom;
position = "{628, 0}";
},
{
name = caron;
position = "{356, 1440}";
},
{
name = top;
position = "{298, 1400}";
}
);
guideLines = (
{
angle = 115.1292;
position = "{64, 556}";
},
{
position = "{34, 556}";
},
{
angle = 115.1292;
position = "{908, 941}";
}
);
layerId = "38FA562F-EF2C-4367-983C-F15B205514DC";
paths = (
{
closed = 1;
nodes = (
"294 614 LINE",
"294 604 LINE",
"927 900 LINE",
"890 980 LINE",
"294 702 LINE",
"294 712 LINE",
"45 596 LINE",
"82 516 LINE"
);
},
{
closed = 1;
nodes = (
"1014 0 LINE",
"1014 108 LINE",
"356 108 LINE",
"356 1400 LINE",
"240 1400 LINE",
"240 0 LINE"
);
}
);
width = 1094;
}
);
leftKerningGroup = Lslash;
widthMetricsKey = "=L+40";
rightKerningGroup = Lslash;
rightMetricsKey = L;
unicode = 0141;
},
{
color = 1;
glyphname = M;
lastChange = "2022-02-16 15:08:08 +0000";
layers = (
{
layerId = "38FA562F-EF2C-4367-983C-F15B205514DC";
paths = (
{
closed = 1;
nodes = (
"306 0 LINE",
"306 1228 LINE",
"290 1220 LINE",
"840 340 LINE",
"946 340 LINE",
"1494 1220 LINE",
"1468 1228 LINE",
"1468 0 LINE",
"1584 0 LINE",
"1584 1400 LINE",
"1476 1400 LINE",
"882 424 LINE",
"924 424 LINE",
"314 1400 LINE",
"200 1400 LINE",
"200 0 LINE"
);
}
);
width = 1784;
}
);
leftKerningGroup = H;
leftMetricsKey = I;
rightKerningGroup = H;
rightMetricsKey = I;
unicode = 004D;
},
{
color = 1;
glyphname = N;
lastChange = "2022-02-16 15:08:08 +0000";
layers = (
{
anchors = (
{
name = bottom;
position = "{726, 0}";
},
{
name = top;
position = "{726, 1400}";
}
);
guideLines = (
{
angle = 270;
position = "{568, 406}";
},
{
angle = 90;
position = "{158, 297}";
}
);
layerId = "38FA562F-EF2C-4367-983C-F15B205514DC";
paths = (
{
closed = 1;
nodes = (
"316 0 LINE",
"316 1188 LINE",
"1152 0 LINE",
"1252 0 LINE",
"1252 1400 LINE",
"1136 1400 LINE",
"1136 224 LINE",
"300 1400 LINE",
"200 1400 LINE",
"200 0 LINE"
);
}
);
width = 1452;
}
);
leftKerningGroup = H;
leftMetricsKey = I;
rightKerningGroup = H;
rightMetricsKey = I;
unicode = 004E;
},
{
color = 6;
glyphname = NJ;
lastChange = "2022-02-16 15:07:45 +0000";
layers = (
{
anchors = (
{
name = bottom;
position = "{726, 0}";
},
{
name = top;
position = "{2146, 1400}";
}
);
layerId = "38FA562F-EF2C-4367-983C-F15B205514DC";
paths = (
{
closed = 1;
nodes = (
"316 0 LINE",
"316 1188 LINE",
"1152 0 LINE",
"1252 0 LINE",
"1252 1400 LINE",
"1136 1400 LINE",
"1136 224 LINE",
"300 1400 LINE",
"200 1400 LINE",
"200 0 LINE"
);
},
{
closed = 1;
nodes = (
"2056 -30 OFFCURVE",
"2204 120 OFFCURVE",
"2204 362 CURVE SMOOTH",
"2204 1400 LINE",
"2088 1400 LINE",
"2088 366 LINE SMOOTH",
"2088 160 OFFCURVE",
"1982 78 OFFCURVE",
"1778 78 CURVE SMOOTH",
"1696 78 OFFCURVE",
"1620 102 OFFCURVE",
"1552 144 CURVE",
"1503 44 LINE",
"1596 -6 OFFCURVE",
"1689 -30 OFFCURVE",
"1788 -30 CURVE SMOOTH"
);
}
);
width = 2402;
}
);
leftKerningGroup = H;
rightKerningGroup = U;
unicode = 01CA;
},
{
color = 6;
glyphname = Nacute;
lastChange = "2022-02-16 15:07:45 +0000";
layers = (
{
anchors = (
{
name = bottom;
position = "{726, 0}";
},
{
name = top;
position = "{726, 1400}";
}
);
layerId = "38FA562F-EF2C-4367-983C-F15B205514DC";
paths = (
{
closed = 1;
nodes = (
"316 0 LINE",
"316 1188 LINE",
"1152 0 LINE",
"1252 0 LINE",
"1252 1400 LINE",
"1136 1400 LINE",
"1136 224 LINE",
"300 1400 LINE",
"200 1400 LINE",
"200 0 LINE"
);
},
{
closed = 1;
nodes = (
"770 1594 LINE",
"972 1906 LINE",
"852 1906 LINE",
"662 1594 LINE"
);
}
);
width = 1452;
}
);
leftKerningGroup = H;
rightKerningGroup = H;
unicode = 0143;
},
{
color = 6;
glyphname = Ncaron;
lastChange = "2022-02-16 15:07:45 +0000";
layers = (
{
anchors = (
{
name = bottom;
position = "{726, 0}";
},
{
name = top;
position = "{726, 1400}";
}
);
layerId = "38FA562F-EF2C-4367-983C-F15B205514DC";
paths = (
{
closed = 1;
nodes = (
"316 0 LINE",
"316 1188 LINE",
"1152 0 LINE",
"1252 0 LINE",
"1252 1400 LINE",
"1136 1400 LINE",
"1136 224 LINE",
"300 1400 LINE",
"200 1400 LINE",
"200 0 LINE"
);
},
{
closed = 1;
nodes = (
"780 1594 LINE",
"1050 1906 LINE",
"926 1906 LINE",
"720 1670 LINE",
"522 1906 LINE",
"402 1906 LINE",
"656 1594 LINE"
);
}
);
width = 1452;
}
);
leftKerningGroup = H;
rightKerningGroup = H;
unicode = 0147;
},
{
color = 6;
glyphname = Ncommaaccent;
lastChange = "2022-02-16 15:07:45 +0000";
layers = (
{
anchors = (
{
name = bottom;
position = "{726, 0}";
},
{
name = top;
position = "{726, 1400}";
}
);
layerId = "38FA562F-EF2C-4367-983C-F15B205514DC";
paths = (
{
closed = 1;
nodes = (
"316 0 LINE",
"316 1188 LINE",
"1152 0 LINE",
"1252 0 LINE",
"1252 1400 LINE",
"1136 1400 LINE",
"1136 224 LINE",
"300 1400 LINE",
"200 1400 LINE",
"200 0 LINE"
);
},
{
closed = 1;
nodes = (
"757 -583 OFFCURVE",
"831 -486 OFFCURVE",
"831 -400 CURVE SMOOTH",
"831 -327 OFFCURVE",
"789 -284 OFFCURVE",
"725 -284 CURVE SMOOTH",
"668 -284 OFFCURVE",
"626 -322 OFFCURVE",
"626 -372 CURVE SMOOTH",
"626 -423 OFFCURVE",
"672 -460 OFFCURVE",
"731 -456 CURVE",
"718 -501 OFFCURVE",
"653 -554 OFFCURVE",
"577 -591 CURVE",
"631 -653 LINE"
);
}
);
width = 1452;
}
);
leftKerningGroup = H;
rightKerningGroup = H;
unicode = 0145;
},
{
color = 9;
glyphname = Ntilde;
lastChange = "2022-02-16 15:07:55 +0000";
layers = (
{
anchors = (
{
name = bottom;
position = "{726, 0}";
},
{
name = top;
position = "{726, 1760}";
}
);
layerId = "38FA562F-EF2C-4367-983C-F15B205514DC";
paths = (
{
closed = 1;
nodes = (
"316 0 LINE",
"316 1188 LINE",
"1152 0 LINE",
"1252 0 LINE",
"1252 1400 LINE",
"1136 1400 LINE",
"1136 224 LINE",
"300 1400 LINE",
"200 1400 LINE",
"200 0 LINE"
);
},
{
closed = 1;
nodes = (
"478 1712 OFFCURVE",
"520 1750 OFFCURVE",
"576 1750 CURVE SMOOTH",
"666 1750 OFFCURVE",
"762 1654 OFFCURVE",
"874 1654 CURVE SMOOTH",
"962 1654 OFFCURVE",
"1036 1716 OFFCURVE",
"1080 1820 CURVE",
"1004 1866 LINE",
"976 1794 OFFCURVE",
"934 1750 OFFCURVE",
"876 1750 CURVE SMOOTH",
"786 1750 OFFCURVE",
"690 1848 OFFCURVE",
"576 1848 CURVE SMOOTH",
"484 1848 OFFCURVE",
"414 1780 OFFCURVE",
"372 1678 CURVE",
"448 1634 LINE"
);
}
);
width = 1452;
}
);
leftKerningGroup = H;
rightKerningGroup = H;
unicode = 00D1;
},
{
color = 6;
glyphname = Eng;
lastChange = "2022-02-16 15:07:45 +0000";
layers = (
{
guideLines = (
{
angle = 270;
position = "{568, 406}";
}
);
layerId = "38FA562F-EF2C-4367-983C-F15B205514DC";
paths = (
{
closed = 1;
nodes = (
"1154 198 LINE",
"300 1400 LINE",
"200 1400 LINE",
"200 0 LINE",
"316 0 LINE",
"316 1188 LINE",
"1154 -2 LINE"
);
},
{
closed = 1;
nodes = (
"1164 -450 OFFCURVE",
"1252 -356 OFFCURVE",
"1252 -194 CURVE SMOOTH",
"1252 1400 LINE",
"1136 1400 LINE",
"1136 -174 LINE SMOOTH",
"1136 -284 OFFCURVE",
"1104 -342 OFFCURVE",
"1004 -342 CURVE SMOOTH",
"950 -342 OFFCURVE",
"922 -330 OFFCURVE",
"890 -314 CURVE",
"852 -410 LINE",
"892 -430 OFFCURVE",
"952 -450 OFFCURVE",
"1020 -450 CURVE SMOOTH"
);
}
);
width = 1452;
}
);
leftKerningGroup = H;
leftMetricsKey = H;
rightKerningGroup = H;
rightMetricsKey = H;
unicode = 014A;
},
{
color = 1;
glyphname = O;
lastChange = "2022-02-16 15:08:08 +0000";
layers = (
{
anchors = (
{
name = bottom;
position = "{838, 0}";
},
{
name = horn;
position = "{1240, 1400}";
},
{
name = ogonek;
position = "{1050, 0}";
},
{
name = top;
position = "{838, 1400}";
},
{
name = topleft;
position = "{152, 1400}";
}
);
layerId = "38FA562F-EF2C-4367-983C-F15B205514DC";
paths = (
{
closed = 1;
nodes = (
"1246 -30 OFFCURVE",
"1564 286 OFFCURVE",
"1564 700 CURVE SMOOTH",
"1564 1108 OFFCURVE",
"1246 1430 OFFCURVE",
"838 1430 CURVE SMOOTH",
"426 1430 OFFCURVE",
"112 1116 OFFCURVE",
"112 700 CURVE SMOOTH",
"112 286 OFFCURVE",
"426 -30 OFFCURVE",
"838 -30 CURVE SMOOTH"
);
},
{
closed = 1;
nodes = (
"502 82 OFFCURVE",
"232 328 OFFCURVE",
"232 700 CURVE SMOOTH",
"232 1072 OFFCURVE",
"502 1318 OFFCURVE",
"838 1318 CURVE SMOOTH",
"1174 1318 OFFCURVE",
"1444 1072 OFFCURVE",
"1444 700 CURVE SMOOTH",
"1444 328 OFFCURVE",
"1174 82 OFFCURVE",
"838 82 CURVE SMOOTH"
);
}
);
width = 1676;
}
);
leftKerningGroup = O;
rightKerningGroup = O;
rightMetricsKey = "=|";
unicode = 004F;
},
{
color = 9;
glyphname = Oacute;
lastChange = "2022-02-16 15:07:55 +0000";
layers = (
{
anchors = (
{
name = bottom;
position = "{838, 0}";
},
{
name = horn;
position = "{1240, 1400}";
},
{
name = ogonek;
position = "{1050, 0}";
},
{
name = top;
position = "{838, 1400}";
},
{
name = topleft;
position = "{152, 1400}";
}
);
layerId = "38FA562F-EF2C-4367-983C-F15B205514DC";
paths = (
{
closed = 1;
nodes = (
"1246 -30 OFFCURVE",
"1564 286 OFFCURVE",
"1564 700 CURVE SMOOTH",
"1564 1108 OFFCURVE",
"1246 1430 OFFCURVE",
"838 1430 CURVE SMOOTH",
"426 1430 OFFCURVE",
"112 1116 OFFCURVE",
"112 700 CURVE SMOOTH",
"112 286 OFFCURVE",
"426 -30 OFFCURVE",
"838 -30 CURVE SMOOTH"
);
},
{
closed = 1;
nodes = (
"502 82 OFFCURVE",
"232 328 OFFCURVE",
"232 700 CURVE SMOOTH",
"232 1072 OFFCURVE",
"502 1318 OFFCURVE",
"838 1318 CURVE SMOOTH",
"1174 1318 OFFCURVE",
"1444 1072 OFFCURVE",
"1444 700 CURVE SMOOTH",
"1444 328 OFFCURVE",
"1174 82 OFFCURVE",
"838 82 CURVE SMOOTH"
);
},
{
closed = 1;
nodes = (
"882 1594 LINE",
"1084 1906 LINE",
"964 1906 LINE",
"774 1594 LINE"
);
}
);
width = 1676;
}
);
leftKerningGroup = O;
rightKerningGroup = O;
unicode = 00D3;
},
{
color = 6;
glyphname = Obreve;
lastChange = "2022-02-16 15:07:45 +0000";
layers = (
{
anchors = (
{
name = bottom;
position = "{838, 0}";
},
{
name = horn;
position = "{1240, 1400}";
},
{
name = ogonek;
position = "{1050, 0}";
},
{
name = top;
position = "{838, 1814}";
},
{
name = topleft;
position = "{152, 1400}";
}
);
layerId = "38FA562F-EF2C-4367-983C-F15B205514DC";
paths = (
{
closed = 1;
nodes = (
"1246 -30 OFFCURVE",
"1564 286 OFFCURVE",
"1564 700 CURVE SMOOTH",
"1564 1108 OFFCURVE",
"1246 1430 OFFCURVE",
"838 1430 CURVE SMOOTH",
"426 1430 OFFCURVE",
"112 1116 OFFCURVE",
"112 700 CURVE SMOOTH",
"112 286 OFFCURVE",
"426 -30 OFFCURVE",
"838 -30 CURVE SMOOTH"
);
},
{
closed = 1;
nodes = (
"502 82 OFFCURVE",
"232 328 OFFCURVE",
"232 700 CURVE SMOOTH",
"232 1072 OFFCURVE",
"502 1318 OFFCURVE",
"838 1318 CURVE SMOOTH",
"1174 1318 OFFCURVE",
"1444 1072 OFFCURVE",
"1444 700 CURVE SMOOTH",
"1444 328 OFFCURVE",
"1174 82 OFFCURVE",
"838 82 CURVE SMOOTH"
);
},
{
closed = 1;
nodes = (
"1032 1584 OFFCURVE",
"1178 1720 OFFCURVE",
"1172 1906 CURVE",
"1068 1906 LINE",
"1076 1770 OFFCURVE",
"984 1678 OFFCURVE",
"838 1678 CURVE SMOOTH",
"692 1678 OFFCURVE",
"596 1770 OFFCURVE",
"602 1906 CURVE",
"500 1906 LINE",
"492 1720 OFFCURVE",
"636 1584 OFFCURVE",
"838 1584 CURVE SMOOTH"
);
}
);
width = 1676;
}
);
leftKerningGroup = O;
rightKerningGroup = O;
unicode = 014E;
},
{
color = 9;
glyphname = Ocircumflex;
lastChange = "2022-02-16 15:07:55 +0000";
layers = (
{
anchors = (
{
name = bottom;
position = "{838, 0}";
},
{
name = horn;
position = "{1240, 1400}";
},
{
name = ogonek;
position = "{1050, 0}";
},
{
name = top;
position = "{838, 1850}";
},
{
name = top_right;
position = "{1156, 1648}";
},
{
name = topleft;
position = "{152, 1400}";
}
);
layerId = "38FA562F-EF2C-4367-983C-F15B205514DC";
paths = (
{
closed = 1;
nodes = (
"1246 -30 OFFCURVE",
"1564 286 OFFCURVE",
"1564 700 CURVE SMOOTH",
"1564 1108 OFFCURVE",
"1246 1430 OFFCURVE",
"838 1430 CURVE SMOOTH",
"426 1430 OFFCURVE",
"112 1116 OFFCURVE",
"112 700 CURVE SMOOTH",
"112 286 OFFCURVE",
"426 -30 OFFCURVE",
"838 -30 CURVE SMOOTH"
);
},
{
closed = 1;
nodes = (
"502 82 OFFCURVE",
"232 328 OFFCURVE",
"232 700 CURVE SMOOTH",
"232 1072 OFFCURVE",
"502 1318 OFFCURVE",
"838 1318 CURVE SMOOTH",
"1174 1318 OFFCURVE",
"1444 1072 OFFCURVE",
"1444 700 CURVE SMOOTH",
"1444 328 OFFCURVE",
"1174 82 OFFCURVE",
"838 82 CURVE SMOOTH"
);
},
{
closed = 1;
nodes = (
"638 1594 LINE",
"844 1830 LINE",
"1042 1594 LINE",
"1162 1594 LINE",
"910 1906 LINE",
"784 1906 LINE",
"514 1594 LINE"
);
}
);
width = 1676;
}
);
leftKerningGroup = O;
rightKerningGroup = O;
unicode = 00D4;
},
{
color = 6;
glyphname = Ocircumflexacute;
lastChange = "2022-02-16 15:07:45 +0000";
layers = (
{
anchors = (
{
name = bottom;
position = "{838, 0}";
},
{
name = horn;
position = "{1240, 1400}";
},
{
name = ogonek;
position = "{1050, 0}";
},
{
name = top;
position = "{838, 1850}";
},
{
name = top_right;
position = "{1156, 1648}";
},
{
name = topleft;
position = "{152, 1400}";
}
);
layerId = "38FA562F-EF2C-4367-983C-F15B205514DC";
paths = (
{
closed = 1;
nodes = (
"1246 -30 OFFCURVE",
"1564 286 OFFCURVE",
"1564 700 CURVE SMOOTH",
"1564 1108 OFFCURVE",
"1246 1430 OFFCURVE",
"838 1430 CURVE SMOOTH",
"426 1430 OFFCURVE",
"112 1116 OFFCURVE",
"112 700 CURVE SMOOTH",
"112 286 OFFCURVE",
"426 -30 OFFCURVE",
"838 -30 CURVE SMOOTH"
);
},
{
closed = 1;
nodes = (
"502 82 OFFCURVE",
"232 328 OFFCURVE",
"232 700 CURVE SMOOTH",
"232 1072 OFFCURVE",
"502 1318 OFFCURVE",
"838 1318 CURVE SMOOTH",
"1174 1318 OFFCURVE",
"1444 1072 OFFCURVE",
"1444 700 CURVE SMOOTH",
"1444 328 OFFCURVE",
"1174 82 OFFCURVE",
"838 82 CURVE SMOOTH"
);
},
{
closed = 1;
nodes = (
"638 1594 LINE",
"844 1830 LINE",
"1042 1594 LINE",
"1162 1594 LINE",
"910 1906 LINE",
"784 1906 LINE",
"514 1594 LINE"
);
},
{
closed = 1;
nodes = (
"1200 1842 LINE",
"1402 2154 LINE",
"1282 2154 LINE",
"1092 1842 LINE"
);
}
);
width = 1676;
}
);
leftKerningGroup = O;
rightKerningGroup = Oviet;
unicode = 1ED0;
},
{
color = 6;
glyphname = Ocircumflexdotbelow;
lastChange = "2022-02-16 15:07:45 +0000";
layers = (
{
anchors = (
{
name = bottom;
position = "{838, 0}";
},
{
name = horn;
position = "{1240, 1400}";
},
{
name = ogonek;
position = "{1050, 0}";
},
{
name = top;
position = "{838, 1850}";
},
{
name = top_right;
position = "{1156, 1648}";
},
{
name = topleft;
position = "{152, 1400}";
}
);
layerId = "38FA562F-EF2C-4367-983C-F15B205514DC";
paths = (
{
closed = 1;
nodes = (
"1246 -30 OFFCURVE",
"1564 286 OFFCURVE",
"1564 700 CURVE SMOOTH",
"1564 1108 OFFCURVE",
"1246 1430 OFFCURVE",
"838 1430 CURVE SMOOTH",
"426 1430 OFFCURVE",
"112 1116 OFFCURVE",
"112 700 CURVE SMOOTH",
"112 286 OFFCURVE",
"426 -30 OFFCURVE",
"838 -30 CURVE SMOOTH"
);
},
{
closed = 1;
nodes = (
"502 82 OFFCURVE",
"232 328 OFFCURVE",
"232 700 CURVE SMOOTH",
"232 1072 OFFCURVE",
"502 1318 OFFCURVE",
"838 1318 CURVE SMOOTH",
"1174 1318 OFFCURVE",
"1444 1072 OFFCURVE",
"1444 700 CURVE SMOOTH",
"1444 328 OFFCURVE",
"1174 82 OFFCURVE",
"838 82 CURVE SMOOTH"
);
},
{
closed = 1;
nodes = (
"890 -472 OFFCURVE",
"932 -430 OFFCURVE",
"932 -378 CURVE SMOOTH",
"932 -326 OFFCURVE",
"890 -284 OFFCURVE",
"838 -284 CURVE SMOOTH",
"786 -284 OFFCURVE",
"744 -326 OFFCURVE",
"744 -378 CURVE SMOOTH",
"744 -430 OFFCURVE",
"786 -472 OFFCURVE",
"838 -472 CURVE SMOOTH"
);
},
{
closed = 1;
nodes = (
"638 1594 LINE",
"844 1830 LINE",
"1042 1594 LINE",
"1162 1594 LINE",
"910 1906 LINE",
"784 1906 LINE",
"514 1594 LINE"
);
}
);
width = 1676;
}
);
leftKerningGroup = O;
rightKerningGroup = O;
unicode = 1ED8;
},
{
color = 6;
glyphname = Ocircumflexgrave;
lastChange = "2022-02-16 15:07:45 +0000";
layers = (
{
anchors = (
{
name = bottom;
position = "{838, 0}";
},
{
name = horn;
position = "{1240, 1400}";
},
{
name = ogonek;
position = "{1050, 0}";
},
{
name = top;
position = "{838, 1850}";
},
{
name = top_right;
position = "{1156, 1648}";
},
{
name = topleft;
position = "{152, 1400}";
}
);
layerId = "38FA562F-EF2C-4367-983C-F15B205514DC";
paths = (
{
closed = 1;
nodes = (
"1246 -30 OFFCURVE",
"1564 286 OFFCURVE",
"1564 700 CURVE SMOOTH",
"1564 1108 OFFCURVE",
"1246 1430 OFFCURVE",
"838 1430 CURVE SMOOTH",
"426 1430 OFFCURVE",
"112 1116 OFFCURVE",
"112 700 CURVE SMOOTH",
"112 286 OFFCURVE",
"426 -30 OFFCURVE",
"838 -30 CURVE SMOOTH"
);
},
{
closed = 1;
nodes = (
"502 82 OFFCURVE",
"232 328 OFFCURVE",
"232 700 CURVE SMOOTH",
"232 1072 OFFCURVE",
"502 1318 OFFCURVE",
"838 1318 CURVE SMOOTH",
"1174 1318 OFFCURVE",
"1444 1072 OFFCURVE",
"1444 700 CURVE SMOOTH",
"1444 328 OFFCURVE",
"1174 82 OFFCURVE",
"838 82 CURVE SMOOTH"
);
},
{
closed = 1;
nodes = (
"638 1594 LINE",
"844 1830 LINE",
"1042 1594 LINE",
"1162 1594 LINE",
"910 1906 LINE",
"784 1906 LINE",
"514 1594 LINE"
);
},
{
closed = 1;
nodes = (
"1238 1842 LINE",
"1050 2154 LINE",
"924 2154 LINE",
"1126 1842 LINE"
);
}
);
width = 1676;
}
);
leftKerningGroup = O;
rightKerningGroup = Oviet;
unicode = 1ED2;
},
{
color = 6;
glyphname = Ocircumflexhookabove;
lastChange = "2022-02-16 15:07:45 +0000";
layers = (
{
anchors = (
{
name = bottom;
position = "{838, 0}";
},
{
name = horn;
position = "{1240, 1400}";
},
{
name = ogonek;
position = "{1050, 0}";
},
{
name = top;
position = "{838, 1850}";
},
{
name = top_right;
position = "{1156, 1648}";
},
{
name = topleft;
position = "{152, 1400}";
}
);
layerId = "38FA562F-EF2C-4367-983C-F15B205514DC";
paths = (
{
closed = 1;
nodes = (
"1246 -30 OFFCURVE",
"1564 286 OFFCURVE",
"1564 700 CURVE SMOOTH",
"1564 1108 OFFCURVE",
"1246 1430 OFFCURVE",
"838 1430 CURVE SMOOTH",
"426 1430 OFFCURVE",
"112 1116 OFFCURVE",
"112 700 CURVE SMOOTH",
"112 286 OFFCURVE",
"426 -30 OFFCURVE",
"838 -30 CURVE SMOOTH"
);
},
{
closed = 1;
nodes = (
"502 82 OFFCURVE",
"232 328 OFFCURVE",
"232 700 CURVE SMOOTH",
"232 1072 OFFCURVE",
"502 1318 OFFCURVE",
"838 1318 CURVE SMOOTH",
"1174 1318 OFFCURVE",
"1444 1072 OFFCURVE",
"1444 700 CURVE SMOOTH",
"1444 328 OFFCURVE",
"1174 82 OFFCURVE",
"838 82 CURVE SMOOTH"
);
},
{
closed = 1;
nodes = (
"638 1594 LINE",
"844 1830 LINE",
"1042 1594 LINE",
"1162 1594 LINE",
"910 1906 LINE",
"784 1906 LINE",
"514 1594 LINE"
);
},
{
closed = 1;
nodes = (
"1188 1842 LINE",
"1152 1914 OFFCURVE",
"1168 1938 OFFCURVE",
"1258 1974 CURVE SMOOTH",
"1372 2020 OFFCURVE",
"1406 2052 OFFCURVE",
"1406 2124 CURVE SMOOTH",
"1406 2210 OFFCURVE",
"1300 2274 OFFCURVE",
"1158 2274 CURVE SMOOTH",
"1074 2274 OFFCURVE",
"992 2258 OFFCURVE",
"924 2228 CURVE",
"960 2154 LINE",
"1008 2176 OFFCURVE",
"1084 2192 OFFCURVE",
"1154 2192 CURVE SMOOTH",
"1244 2192 OFFCURVE",
"1310 2158 OFFCURVE",
"1310 2106 CURVE SMOOTH",
"1310 2064 OFFCURVE",
"1288 2052 OFFCURVE",
"1188 2018 CURVE SMOOTH",
"1076 1980 OFFCURVE",
"1050 1926 OFFCURVE",
"1094 1842 CURVE"
);
}
);
width = 1676;
}
);
leftKerningGroup = O;
rightKerningGroup = O;
unicode = 1ED4;
},
{
color = 6;
glyphname = Ocircumflextilde;
lastChange = "2022-02-16 15:07:45 +0000";
layers = (
{
anchors = (
{
name = bottom;
position = "{838, 0}";
},
{
name = horn;
position = "{1240, 1400}";
},
{
name = ogonek;
position = "{1050, 0}";
},
{
name = top;
position = "{838, 2210}";
},
{
name = top_right;
position = "{1156, 1648}";
},
{
name = topleft;
position = "{152, 1400}";
}
);
layerId = "38FA562F-EF2C-4367-983C-F15B205514DC";
paths = (
{
closed = 1;
nodes = (
"1246 -30 OFFCURVE",
"1564 286 OFFCURVE",
"1564 700 CURVE SMOOTH",
"1564 1108 OFFCURVE",
"1246 1430 OFFCURVE",
"838 1430 CURVE SMOOTH",
"426 1430 OFFCURVE",
"112 1116 OFFCURVE",
"112 700 CURVE SMOOTH",
"112 286 OFFCURVE",
"426 -30 OFFCURVE",
"838 -30 CURVE SMOOTH"
);
},
{
closed = 1;
nodes = (
"502 82 OFFCURVE",
"232 328 OFFCURVE",
"232 700 CURVE SMOOTH",
"232 1072 OFFCURVE",
"502 1318 OFFCURVE",
"838 1318 CURVE SMOOTH",
"1174 1318 OFFCURVE",
"1444 1072 OFFCURVE",
"1444 700 CURVE SMOOTH",
"1444 328 OFFCURVE",
"1174 82 OFFCURVE",
"838 82 CURVE SMOOTH"
);
},
{
closed = 1;
nodes = (
"638 1594 LINE",
"844 1830 LINE",
"1042 1594 LINE",
"1162 1594 LINE",
"910 1906 LINE",
"784 1906 LINE",
"514 1594 LINE"
);
},
{
closed = 1;
nodes = (
"590 2162 OFFCURVE",
"632 2200 OFFCURVE",
"688 2200 CURVE SMOOTH",
"778 2200 OFFCURVE",
"874 2104 OFFCURVE",
"986 2104 CURVE SMOOTH",
"1074 2104 OFFCURVE",
"1148 2166 OFFCURVE",
"1192 2270 CURVE",
"1116 2316 LINE",
"1088 2244 OFFCURVE",
"1046 2200 OFFCURVE",
"988 2200 CURVE SMOOTH",
"898 2200 OFFCURVE",
"802 2298 OFFCURVE",
"688 2298 CURVE SMOOTH",
"596 2298 OFFCURVE",
"526 2230 OFFCURVE",
"484 2128 CURVE",
"560 2084 LINE"
);
}
);
width = 1676;
}
);
leftKerningGroup = O;
rightKerningGroup = O;
unicode = 1ED6;
},
{
color = 6;
glyphname = Odblgrave;
lastChange = "2022-02-16 15:07:45 +0000";
layers = (
{
anchors = (
{
name = bottom;
position = "{838, 0}";
},
{
name = horn;
position = "{1240, 1400}";
},
{
name = ogonek;
position = "{1050, 0}";
},
{
name = top;
position = "{838, 1400}";
},
{
name = topleft;
position = "{152, 1400}";
}
);
layerId = "38FA562F-EF2C-4367-983C-F15B205514DC";
paths = (
{
closed = 1;
nodes = (
"1246 -30 OFFCURVE",
"1564 286 OFFCURVE",
"1564 700 CURVE SMOOTH",
"1564 1108 OFFCURVE",
"1246 1430 OFFCURVE",
"838 1430 CURVE SMOOTH",
"426 1430 OFFCURVE",
"112 1116 OFFCURVE",
"112 700 CURVE SMOOTH",
"112 286 OFFCURVE",
"426 -30 OFFCURVE",
"838 -30 CURVE SMOOTH"
);
},
{
closed = 1;
nodes = (
"502 82 OFFCURVE",
"232 328 OFFCURVE",
"232 700 CURVE SMOOTH",
"232 1072 OFFCURVE",
"502 1318 OFFCURVE",
"838 1318 CURVE SMOOTH",
"1174 1318 OFFCURVE",
"1444 1072 OFFCURVE",
"1444 700 CURVE SMOOTH",
"1444 328 OFFCURVE",
"1174 82 OFFCURVE",
"838 82 CURVE SMOOTH"
);
},
{
closed = 1;
nodes = (
"880 1906 LINE",
"758 1906 LINE",
"960 1594 LINE",
"1068 1594 LINE"
);
},
{
closed = 1;
nodes = (
"528 1906 LINE",
"408 1906 LINE",
"610 1594 LINE",
"718 1594 LINE"
);
}
);
width = 1676;
}
);
leftKerningGroup = Oaccent;
rightKerningGroup = O;
unicode = 020C;
},
{
color = 9;
glyphname = Odieresis;
lastChange = "2022-02-16 15:07:55 +0000";
layers = (
{
anchors = (
{
name = bottom;
position = "{838, 0}";
},
{
name = horn;
position = "{1240, 1400}";
},
{
name = ogonek;
position = "{1050, 0}";
},
{
name = top;
position = "{838, 1706}";
},
{
name = topleft;
position = "{152, 1400}";
}
);
layerId = "38FA562F-EF2C-4367-983C-F15B205514DC";
paths = (
{
closed = 1;
nodes = (
"1246 -30 OFFCURVE",
"1564 286 OFFCURVE",
"1564 700 CURVE SMOOTH",
"1564 1108 OFFCURVE",
"1246 1430 OFFCURVE",
"838 1430 CURVE SMOOTH",
"426 1430 OFFCURVE",
"112 1116 OFFCURVE",
"112 700 CURVE SMOOTH",
"112 286 OFFCURVE",
"426 -30 OFFCURVE",
"838 -30 CURVE SMOOTH"
);
},
{
closed = 1;
nodes = (
"502 82 OFFCURVE",
"232 328 OFFCURVE",
"232 700 CURVE SMOOTH",
"232 1072 OFFCURVE",
"502 1318 OFFCURVE",
"838 1318 CURVE SMOOTH",
"1174 1318 OFFCURVE",
"1444 1072 OFFCURVE",
"1444 700 CURVE SMOOTH",
"1444 328 OFFCURVE",
"1174 82 OFFCURVE",
"838 82 CURVE SMOOTH"
);
},
{
closed = 1;
nodes = (
"706 1586 OFFCURVE",
"748 1628 OFFCURVE",
"748 1678 CURVE SMOOTH",
"748 1728 OFFCURVE",
"704 1768 OFFCURVE",
"652 1768 CURVE SMOOTH",
"600 1768 OFFCURVE",
"556 1728 OFFCURVE",
"556 1678 CURVE SMOOTH",
"556 1628 OFFCURVE",
"598 1586 OFFCURVE",
"652 1586 CURVE SMOOTH"
);
},
{
closed = 1;
nodes = (
"1078 1586 OFFCURVE",
"1122 1628 OFFCURVE",
"1122 1678 CURVE SMOOTH",
"1122 1728 OFFCURVE",
"1078 1768 OFFCURVE",
"1026 1768 CURVE SMOOTH",
"972 1768 OFFCURVE",
"930 1726 OFFCURVE",
"930 1678 CURVE SMOOTH",
"930 1628 OFFCURVE",
"972 1586 OFFCURVE",
"1026 1586 CURVE SMOOTH"
);
}
);
width = 1676;
}
);
leftKerningGroup = O;
rightKerningGroup = O;
unicode = 00D6;
},
{
color = 6;
glyphname = Odieresismacron;
lastChange = "2022-02-16 15:07:45 +0000";
layers = (
{
anchors = (
{
name = bottom;
position = "{838, 0}";
},
{
name = horn;
position = "{1240, 1400}";
},
{
name = ogonek;
position = "{1050, 0}";
},
{
name = top;
position = "{838, 1706}";
},
{
name = topleft;
position = "{152, 1400}";
}
);
layerId = "38FA562F-EF2C-4367-983C-F15B205514DC";
paths = (
{
closed = 1;
nodes = (
"1246 -30 OFFCURVE",
"1564 286 OFFCURVE",
"1564 700 CURVE SMOOTH",
"1564 1108 OFFCURVE",
"1246 1430 OFFCURVE",
"838 1430 CURVE SMOOTH",
"426 1430 OFFCURVE",
"112 1116 OFFCURVE",
"112 700 CURVE SMOOTH",
"112 286 OFFCURVE",
"426 -30 OFFCURVE",
"838 -30 CURVE SMOOTH"
);
},
{
closed = 1;
nodes = (
"502 82 OFFCURVE",
"232 328 OFFCURVE",
"232 700 CURVE SMOOTH",
"232 1072 OFFCURVE",
"502 1318 OFFCURVE",
"838 1318 CURVE SMOOTH",
"1174 1318 OFFCURVE",
"1444 1072 OFFCURVE",
"1444 700 CURVE SMOOTH",
"1444 328 OFFCURVE",
"1174 82 OFFCURVE",
"838 82 CURVE SMOOTH"
);
},
{
closed = 1;
nodes = (
"706 1586 OFFCURVE",
"748 1628 OFFCURVE",
"748 1678 CURVE SMOOTH",
"748 1728 OFFCURVE",
"704 1768 OFFCURVE",
"652 1768 CURVE SMOOTH",
"600 1768 OFFCURVE",
"556 1728 OFFCURVE",
"556 1678 CURVE SMOOTH",
"556 1628 OFFCURVE",
"598 1586 OFFCURVE",
"652 1586 CURVE SMOOTH"
);
},
{
closed = 1;
nodes = (
"1078 1586 OFFCURVE",
"1122 1628 OFFCURVE",
"1122 1678 CURVE SMOOTH",
"1122 1728 OFFCURVE",
"1078 1768 OFFCURVE",
"1026 1768 CURVE SMOOTH",
"972 1768 OFFCURVE",
"930 1726 OFFCURVE",
"930 1678 CURVE SMOOTH",
"930 1628 OFFCURVE",
"972 1586 OFFCURVE",
"1026 1586 CURVE SMOOTH"
);
},
{
closed = 1;
nodes = (
"1136 1956 LINE",
"1136 2056 LINE",
"540 2056 LINE",
"540 1956 LINE"
);
}
);
width = 1676;
}
);
leftKerningGroup = O;
rightKerningGroup = O;
unicode = 022A;
},
{
color = 6;
glyphname = Odotaccentmacron;
lastChange = "2022-02-16 15:07:45 +0000";
layers = (
{
anchors = (
{
name = bottom;
position = "{838, 0}";
},
{
name = horn;
position = "{1240, 1400}";
},
{
name = ogonek;
position = "{1050, 0}";
},
{
name = top;
position = "{838, 1706}";
},
{
name = topleft;
position = "{152, 1400}";
}
);
layerId = "38FA562F-EF2C-4367-983C-F15B205514DC";
paths = (
{
closed = 1;
nodes = (
"1246 -30 OFFCURVE",
"1564 286 OFFCURVE",
"1564 700 CURVE SMOOTH",
"1564 1108 OFFCURVE",
"1246 1430 OFFCURVE",
"838 1430 CURVE SMOOTH",
"426 1430 OFFCURVE",
"112 1116 OFFCURVE",
"112 700 CURVE SMOOTH",
"112 286 OFFCURVE",
"426 -30 OFFCURVE",
"838 -30 CURVE SMOOTH"
);
},
{
closed = 1;
nodes = (
"502 82 OFFCURVE",
"232 328 OFFCURVE",
"232 700 CURVE SMOOTH",
"232 1072 OFFCURVE",
"502 1318 OFFCURVE",
"838 1318 CURVE SMOOTH",
"1174 1318 OFFCURVE",
"1444 1072 OFFCURVE",
"1444 700 CURVE SMOOTH",
"1444 328 OFFCURVE",
"1174 82 OFFCURVE",
"838 82 CURVE SMOOTH"
);
},
{
closed = 1;
nodes = (
"890 1586 OFFCURVE",
"934 1628 OFFCURVE",
"934 1678 CURVE SMOOTH",
"934 1728 OFFCURVE",
"890 1768 OFFCURVE",
"838 1768 CURVE SMOOTH",
"786 1768 OFFCURVE",
"742 1728 OFFCURVE",
"742 1678 CURVE SMOOTH",
"742 1628 OFFCURVE",
"784 1586 OFFCURVE",
"838 1586 CURVE SMOOTH"
);
},
{
closed = 1;
nodes = (
"1136 1956 LINE",
"1136 2056 LINE",
"540 2056 LINE",
"540 1956 LINE"
);
}
);
width = 1676;
}
);
leftKerningGroup = O;
rightKerningGroup = O;
unicode = 0230;
},
{
color = 6;
glyphname = Odotbelow;
lastChange = "2022-02-16 15:07:45 +0000";
layers = (
{
anchors = (
{
name = bottom;
position = "{838, 0}";
},
{
name = horn;
position = "{1240, 1400}";
},
{
name = ogonek;
position = "{1050, 0}";
},
{
name = top;
position = "{838, 1400}";
},
{
name = topleft;
position = "{152, 1400}";
}
);
layerId = "38FA562F-EF2C-4367-983C-F15B205514DC";
paths = (
{
closed = 1;
nodes = (
"1246 -30 OFFCURVE",
"1564 286 OFFCURVE",
"1564 700 CURVE SMOOTH",
"1564 1108 OFFCURVE",
"1246 1430 OFFCURVE",
"838 1430 CURVE SMOOTH",
"426 1430 OFFCURVE",
"112 1116 OFFCURVE",
"112 700 CURVE SMOOTH",
"112 286 OFFCURVE",
"426 -30 OFFCURVE",
"838 -30 CURVE SMOOTH"
);
},
{
closed = 1;
nodes = (
"502 82 OFFCURVE",
"232 328 OFFCURVE",
"232 700 CURVE SMOOTH",
"232 1072 OFFCURVE",
"502 1318 OFFCURVE",
"838 1318 CURVE SMOOTH",
"1174 1318 OFFCURVE",
"1444 1072 OFFCURVE",
"1444 700 CURVE SMOOTH",
"1444 328 OFFCURVE",
"1174 82 OFFCURVE",
"838 82 CURVE SMOOTH"
);
},
{
closed = 1;
nodes = (
"890 -472 OFFCURVE",
"932 -430 OFFCURVE",
"932 -378 CURVE SMOOTH",
"932 -326 OFFCURVE",
"890 -284 OFFCURVE",
"838 -284 CURVE SMOOTH",
"786 -284 OFFCURVE",
"744 -326 OFFCURVE",
"744 -378 CURVE SMOOTH",
"744 -430 OFFCURVE",
"786 -472 OFFCURVE",
"838 -472 CURVE SMOOTH"
);
}
);
width = 1676;
}
);
leftKerningGroup = O;
rightKerningGroup = O;
unicode = 1ECC;
},
{
color = 9;
glyphname = Ograve;
lastChange = "2022-02-16 15:07:55 +0000";
layers = (
{
anchors = (
{
name = bottom;
position = "{838, 0}";
},
{
name = horn;
position = "{1240, 1400}";
},
{
name = ogonek;
position = "{1050, 0}";
},
{
name = top;
position = "{838, 1400}";
},
{
name = topleft;
position = "{152, 1400}";
}
);
layerId = "38FA562F-EF2C-4367-983C-F15B205514DC";
paths = (
{
closed = 1;
nodes = (
"1246 -30 OFFCURVE",
"1564 286 OFFCURVE",
"1564 700 CURVE SMOOTH",
"1564 1108 OFFCURVE",
"1246 1430 OFFCURVE",
"838 1430 CURVE SMOOTH",
"426 1430 OFFCURVE",
"112 1116 OFFCURVE",
"112 700 CURVE SMOOTH",
"112 286 OFFCURVE",
"426 -30 OFFCURVE",
"838 -30 CURVE SMOOTH"
);
},
{
closed = 1;
nodes = (
"502 82 OFFCURVE",
"232 328 OFFCURVE",
"232 700 CURVE SMOOTH",
"232 1072 OFFCURVE",
"502 1318 OFFCURVE",
"838 1318 CURVE SMOOTH",
"1174 1318 OFFCURVE",
"1444 1072 OFFCURVE",
"1444 700 CURVE SMOOTH",
"1444 328 OFFCURVE",
"1174 82 OFFCURVE",
"838 82 CURVE SMOOTH"
);
},
{
closed = 1;
nodes = (
"920 1594 LINE",
"732 1906 LINE",
"606 1906 LINE",
"808 1594 LINE"
);
}
);
width = 1676;
}
);
leftKerningGroup = O;
rightKerningGroup = O;
unicode = 00D2;
},
{
color = 6;
glyphname = Ohookabove;
lastChange = "2022-02-16 15:07:45 +0000";
layers = (
{
anchors = (
{
name = bottom;
position = "{838, 0}";
},
{
name = horn;
position = "{1240, 1400}";
},
{
name = ogonek;
position = "{1050, 0}";
},
{
name = top;
position = "{838, 1400}";
},
{
name = topleft;
position = "{152, 1400}";
}
);
layerId = "38FA562F-EF2C-4367-983C-F15B205514DC";
paths = (
{
closed = 1;
nodes = (
"1246 -30 OFFCURVE",
"1564 286 OFFCURVE",
"1564 700 CURVE SMOOTH",
"1564 1108 OFFCURVE",
"1246 1430 OFFCURVE",
"838 1430 CURVE SMOOTH",
"426 1430 OFFCURVE",
"112 1116 OFFCURVE",
"112 700 CURVE SMOOTH",
"112 286 OFFCURVE",
"426 -30 OFFCURVE",
"838 -30 CURVE SMOOTH"
);
},
{
closed = 1;
nodes = (
"502 82 OFFCURVE",
"232 328 OFFCURVE",
"232 700 CURVE SMOOTH",
"232 1072 OFFCURVE",
"502 1318 OFFCURVE",
"838 1318 CURVE SMOOTH",
"1174 1318 OFFCURVE",
"1444 1072 OFFCURVE",
"1444 700 CURVE SMOOTH",
"1444 328 OFFCURVE",
"1174 82 OFFCURVE",
"838 82 CURVE SMOOTH"
);
},
{
closed = 1;
nodes = (
"870 1594 LINE",
"834 1666 OFFCURVE",
"850 1690 OFFCURVE",
"940 1726 CURVE SMOOTH",
"1054 1772 OFFCURVE",
"1088 1804 OFFCURVE",
"1088 1876 CURVE SMOOTH",
"1088 1962 OFFCURVE",
"982 2026 OFFCURVE",
"840 2026 CURVE SMOOTH",
"756 2026 OFFCURVE",
"674 2010 OFFCURVE",
"606 1980 CURVE",
"642 1906 LINE",
"690 1928 OFFCURVE",
"766 1944 OFFCURVE",
"836 1944 CURVE SMOOTH",
"926 1944 OFFCURVE",
"992 1910 OFFCURVE",
"992 1858 CURVE SMOOTH",
"992 1816 OFFCURVE",
"970 1804 OFFCURVE",
"870 1770 CURVE SMOOTH",
"758 1732 OFFCURVE",
"732 1678 OFFCURVE",
"776 1594 CURVE"
);
}
);
width = 1676;
}
);
leftKerningGroup = O;
rightKerningGroup = O;
unicode = 1ECE;
},
{
color = 6;
glyphname = Ohorn;
lastChange = "2022-02-16 15:07:45 +0000";
layers = (
{
anchors = (
{
name = bottom;
position = "{838, 0}";
},
{
name = horn;
position = "{1240, 1400}";
},
{
name = ogonek;
position = "{1050, 0}";
},
{
name = top;
position = "{838, 1400}";
},
{
name = topleft;
position = "{152, 1400}";
}
);
layerId = "38FA562F-EF2C-4367-983C-F15B205514DC";
paths = (
{
closed = 1;
nodes = (
"1246 -30 OFFCURVE",
"1564 286 OFFCURVE",
"1564 700 CURVE SMOOTH",
"1564 1108 OFFCURVE",
"1246 1430 OFFCURVE",
"838 1430 CURVE SMOOTH",
"426 1430 OFFCURVE",
"112 1116 OFFCURVE",
"112 700 CURVE SMOOTH",
"112 286 OFFCURVE",
"426 -30 OFFCURVE",
"838 -30 CURVE SMOOTH"
);
},
{
closed = 1;
nodes = (
"502 82 OFFCURVE",
"232 328 OFFCURVE",
"232 700 CURVE SMOOTH",
"232 1072 OFFCURVE",
"502 1318 OFFCURVE",
"838 1318 CURVE SMOOTH",
"1174 1318 OFFCURVE",
"1444 1072 OFFCURVE",
"1444 700 CURVE SMOOTH",
"1444 328 OFFCURVE",
"1174 82 OFFCURVE",
"838 82 CURVE SMOOTH"
);
},
{
closed = 1;
nodes = (
"1510 1228 OFFCURVE",
"1578 1308 OFFCURVE",
"1578 1402 CURVE SMOOTH",
"1578 1458 OFFCURVE",
"1552 1522 OFFCURVE",
"1500 1580 CURVE",
"1406 1540 LINE",
"1456 1480 OFFCURVE",
"1470 1430 OFFCURVE",
"1470 1400 CURVE SMOOTH",
"1470 1348 OFFCURVE",
"1438 1310 OFFCURVE",
"1360 1310 CURVE SMOOTH",
"1264 1310 OFFCURVE",
"1054 1430 OFFCURVE",
"838 1430 CURVE",
"838 1362 LINE",
"1066 1362 OFFCURVE",
"1254 1228 OFFCURVE",
"1380 1228 CURVE SMOOTH"
);
}
);
width = 1676;
}
);
leftKerningGroup = O;
rightKerningGroup = Ohorn;
unicode = 01A0;
},
{
color = 6;
glyphname = Ohornacute;
lastChange = "2022-02-16 15:07:45 +0000";
layers = (
{
anchors = (
{
name = bottom;
position = "{838, 0}";
},
{
name = horn;
position = "{1240, 1400}";
},
{
name = ogonek;
position = "{1050, 0}";
},
{
name = top;
position = "{838, 1400}";
},
{
name = topleft;
position = "{152, 1400}";
}
);
layerId = "38FA562F-EF2C-4367-983C-F15B205514DC";
paths = (
{
closed = 1;
nodes = (
"1246 -30 OFFCURVE",
"1564 286 OFFCURVE",
"1564 700 CURVE SMOOTH",
"1564 1108 OFFCURVE",
"1246 1430 OFFCURVE",
"838 1430 CURVE SMOOTH",
"426 1430 OFFCURVE",
"112 1116 OFFCURVE",
"112 700 CURVE SMOOTH",
"112 286 OFFCURVE",
"426 -30 OFFCURVE",
"838 -30 CURVE SMOOTH"
);
},
{
closed = 1;
nodes = (
"502 82 OFFCURVE",
"232 328 OFFCURVE",
"232 700 CURVE SMOOTH",
"232 1072 OFFCURVE",
"502 1318 OFFCURVE",
"838 1318 CURVE SMOOTH",
"1174 1318 OFFCURVE",
"1444 1072 OFFCURVE",
"1444 700 CURVE SMOOTH",
"1444 328 OFFCURVE",
"1174 82 OFFCURVE",
"838 82 CURVE SMOOTH"
);
},
{
closed = 1;
nodes = (
"1510 1228 OFFCURVE",
"1578 1308 OFFCURVE",
"1578 1402 CURVE SMOOTH",
"1578 1458 OFFCURVE",
"1552 1522 OFFCURVE",
"1500 1580 CURVE",
"1406 1540 LINE",
"1456 1480 OFFCURVE",
"1470 1430 OFFCURVE",
"1470 1400 CURVE SMOOTH",
"1470 1348 OFFCURVE",
"1438 1310 OFFCURVE",
"1360 1310 CURVE SMOOTH",
"1264 1310 OFFCURVE",
"1054 1430 OFFCURVE",
"838 1430 CURVE",
"838 1362 LINE",
"1066 1362 OFFCURVE",
"1254 1228 OFFCURVE",
"1380 1228 CURVE SMOOTH"
);
},
{
closed = 1;
nodes = (
"882 1594 LINE",
"1084 1906 LINE",
"964 1906 LINE",
"774 1594 LINE"
);
}
);
width = 1676;
}
);
leftKerningGroup = O;
rightKerningGroup = Ohorn;
unicode = 1EDA;
},
{
color = 6;
glyphname = Ohorndotbelow;
lastChange = "2022-02-16 15:07:45 +0000";
layers = (
{
anchors = (
{
name = bottom;
position = "{838, 0}";
},
{
name = horn;
position = "{1240, 1400}";
},
{
name = ogonek;
position = "{1050, 0}";
},
{
name = top;
position = "{838, 1400}";
},
{
name = topleft;
position = "{152, 1400}";
}
);
layerId = "38FA562F-EF2C-4367-983C-F15B205514DC";
paths = (
{
closed = 1;
nodes = (
"1246 -30 OFFCURVE",
"1564 286 OFFCURVE",
"1564 700 CURVE SMOOTH",
"1564 1108 OFFCURVE",
"1246 1430 OFFCURVE",
"838 1430 CURVE SMOOTH",
"426 1430 OFFCURVE",
"112 1116 OFFCURVE",
"112 700 CURVE SMOOTH",
"112 286 OFFCURVE",
"426 -30 OFFCURVE",
"838 -30 CURVE SMOOTH"
);
},
{
closed = 1;
nodes = (
"502 82 OFFCURVE",
"232 328 OFFCURVE",
"232 700 CURVE SMOOTH",
"232 1072 OFFCURVE",
"502 1318 OFFCURVE",
"838 1318 CURVE SMOOTH",
"1174 1318 OFFCURVE",
"1444 1072 OFFCURVE",
"1444 700 CURVE SMOOTH",
"1444 328 OFFCURVE",
"1174 82 OFFCURVE",
"838 82 CURVE SMOOTH"
);
},
{
closed = 1;
nodes = (
"1510 1228 OFFCURVE",
"1578 1308 OFFCURVE",
"1578 1402 CURVE SMOOTH",
"1578 1458 OFFCURVE",
"1552 1522 OFFCURVE",
"1500 1580 CURVE",
"1406 1540 LINE",
"1456 1480 OFFCURVE",
"1470 1430 OFFCURVE",
"1470 1400 CURVE SMOOTH",
"1470 1348 OFFCURVE",
"1438 1310 OFFCURVE",
"1360 1310 CURVE SMOOTH",
"1264 1310 OFFCURVE",
"1054 1430 OFFCURVE",
"838 1430 CURVE",
"838 1362 LINE",
"1066 1362 OFFCURVE",
"1254 1228 OFFCURVE",
"1380 1228 CURVE SMOOTH"
);
},
{
closed = 1;
nodes = (
"890 -472 OFFCURVE",
"932 -430 OFFCURVE",
"932 -378 CURVE SMOOTH",
"932 -326 OFFCURVE",
"890 -284 OFFCURVE",
"838 -284 CURVE SMOOTH",
"786 -284 OFFCURVE",
"744 -326 OFFCURVE",
"744 -378 CURVE SMOOTH",
"744 -430 OFFCURVE",
"786 -472 OFFCURVE",
"838 -472 CURVE SMOOTH"
);
}
);
width = 1676;
}
);
leftKerningGroup = O;
rightKerningGroup = Ohorn;
unicode = 1EE2;
},
{
color = 6;
glyphname = Ohorngrave;
lastChange = "2022-02-16 15:07:45 +0000";
layers = (
{
anchors = (
{
name = bottom;
position = "{838, 0}";
},
{
name = horn;
position = "{1240, 1400}";
},
{
name = ogonek;
position = "{1050, 0}";
},
{
name = top;
position = "{838, 1400}";
},
{
name = topleft;
position = "{152, 1400}";
}
);
layerId = "38FA562F-EF2C-4367-983C-F15B205514DC";
paths = (
{
closed = 1;
nodes = (
"1246 -30 OFFCURVE",
"1564 286 OFFCURVE",
"1564 700 CURVE SMOOTH",
"1564 1108 OFFCURVE",
"1246 1430 OFFCURVE",
"838 1430 CURVE SMOOTH",
"426 1430 OFFCURVE",
"112 1116 OFFCURVE",
"112 700 CURVE SMOOTH",
"112 286 OFFCURVE",
"426 -30 OFFCURVE",
"838 -30 CURVE SMOOTH"
);
},
{
closed = 1;
nodes = (
"502 82 OFFCURVE",
"232 328 OFFCURVE",
"232 700 CURVE SMOOTH",
"232 1072 OFFCURVE",
"502 1318 OFFCURVE",
"838 1318 CURVE SMOOTH",
"1174 1318 OFFCURVE",
"1444 1072 OFFCURVE",
"1444 700 CURVE SMOOTH",
"1444 328 OFFCURVE",
"1174 82 OFFCURVE",
"838 82 CURVE SMOOTH"
);
},
{
closed = 1;
nodes = (
"1510 1228 OFFCURVE",
"1578 1308 OFFCURVE",
"1578 1402 CURVE SMOOTH",
"1578 1458 OFFCURVE",
"1552 1522 OFFCURVE",
"1500 1580 CURVE",
"1406 1540 LINE",
"1456 1480 OFFCURVE",
"1470 1430 OFFCURVE",
"1470 1400 CURVE SMOOTH",
"1470 1348 OFFCURVE",
"1438 1310 OFFCURVE",
"1360 1310 CURVE SMOOTH",
"1264 1310 OFFCURVE",
"1054 1430 OFFCURVE",
"838 1430 CURVE",
"838 1362 LINE",
"1066 1362 OFFCURVE",
"1254 1228 OFFCURVE",
"1380 1228 CURVE SMOOTH"
);
},
{
closed = 1;
nodes = (
"920 1594 LINE",
"732 1906 LINE",
"606 1906 LINE",
"808 1594 LINE"
);
}
);
width = 1676;
}
);
leftKerningGroup = O;
rightKerningGroup = Ohorn;
unicode = 1EDC;
},
{
color = 6;
glyphname = Ohornhookabove;
lastChange = "2022-02-16 15:07:45 +0000";
layers = (
{
anchors = (
{
name = bottom;
position = "{838, 0}";
},
{
name = horn;
position = "{1240, 1400}";
},
{
name = ogonek;
position = "{1050, 0}";
},
{
name = top;
position = "{838, 1400}";
},
{
name = topleft;
position = "{152, 1400}";
}
);
layerId = "38FA562F-EF2C-4367-983C-F15B205514DC";
paths = (
{
closed = 1;
nodes = (
"1246 -30 OFFCURVE",
"1564 286 OFFCURVE",
"1564 700 CURVE SMOOTH",
"1564 1108 OFFCURVE",
"1246 1430 OFFCURVE",
"838 1430 CURVE SMOOTH",
"426 1430 OFFCURVE",
"112 1116 OFFCURVE",
"112 700 CURVE SMOOTH",
"112 286 OFFCURVE",
"426 -30 OFFCURVE",
"838 -30 CURVE SMOOTH"
);
},
{
closed = 1;
nodes = (
"502 82 OFFCURVE",
"232 328 OFFCURVE",
"232 700 CURVE SMOOTH",
"232 1072 OFFCURVE",
"502 1318 OFFCURVE",
"838 1318 CURVE SMOOTH",
"1174 1318 OFFCURVE",
"1444 1072 OFFCURVE",
"1444 700 CURVE SMOOTH",
"1444 328 OFFCURVE",
"1174 82 OFFCURVE",
"838 82 CURVE SMOOTH"
);
},
{
closed = 1;
nodes = (
"1510 1228 OFFCURVE",
"1578 1308 OFFCURVE",
"1578 1402 CURVE SMOOTH",
"1578 1458 OFFCURVE",
"1552 1522 OFFCURVE",
"1500 1580 CURVE",
"1406 1540 LINE",
"1456 1480 OFFCURVE",
"1470 1430 OFFCURVE",
"1470 1400 CURVE SMOOTH",
"1470 1348 OFFCURVE",
"1438 1310 OFFCURVE",
"1360 1310 CURVE SMOOTH",
"1264 1310 OFFCURVE",
"1054 1430 OFFCURVE",
"838 1430 CURVE",
"838 1362 LINE",
"1066 1362 OFFCURVE",
"1254 1228 OFFCURVE",
"1380 1228 CURVE SMOOTH"
);
},
{
closed = 1;
nodes = (
"870 1594 LINE",
"834 1666 OFFCURVE",
"850 1690 OFFCURVE",
"940 1726 CURVE SMOOTH",
"1054 1772 OFFCURVE",
"1088 1804 OFFCURVE",
"1088 1876 CURVE SMOOTH",
"1088 1962 OFFCURVE",
"982 2026 OFFCURVE",
"840 2026 CURVE SMOOTH",
"756 2026 OFFCURVE",
"674 2010 OFFCURVE",
"606 1980 CURVE",
"642 1906 LINE",
"690 1928 OFFCURVE",
"766 1944 OFFCURVE",
"836 1944 CURVE SMOOTH",
"926 1944 OFFCURVE",
"992 1910 OFFCURVE",
"992 1858 CURVE SMOOTH",
"992 1816 OFFCURVE",
"970 1804 OFFCURVE",
"870 1770 CURVE SMOOTH",
"758 1732 OFFCURVE",
"732 1678 OFFCURVE",
"776 1594 CURVE"
);
}
);
width = 1676;
}
);
leftKerningGroup = O;
rightKerningGroup = Ohorn;
unicode = 1EDE;
},
{
color = 6;
glyphname = Ohungarumlaut;
lastChange = "2022-02-16 15:07:45 +0000";
layers = (
{
anchors = (
{
name = bottom;
position = "{838, 0}";
},
{
name = horn;
position = "{1240, 1400}";
},
{
name = ogonek;
position = "{1050, 0}";
},
{
name = top;
position = "{838, 1400}";
},
{
name = topleft;
position = "{152, 1400}";
}
);
layerId = "38FA562F-EF2C-4367-983C-F15B205514DC";
paths = (
{
closed = 1;
nodes = (
"1246 -30 OFFCURVE",
"1564 286 OFFCURVE",
"1564 700 CURVE SMOOTH",
"1564 1108 OFFCURVE",
"1246 1430 OFFCURVE",
"838 1430 CURVE SMOOTH",
"426 1430 OFFCURVE",
"112 1116 OFFCURVE",
"112 700 CURVE SMOOTH",
"112 286 OFFCURVE",
"426 -30 OFFCURVE",
"838 -30 CURVE SMOOTH"
);
},
{
closed = 1;
nodes = (
"502 82 OFFCURVE",
"232 328 OFFCURVE",
"232 700 CURVE SMOOTH",
"232 1072 OFFCURVE",
"502 1318 OFFCURVE",
"838 1318 CURVE SMOOTH",
"1174 1318 OFFCURVE",
"1444 1072 OFFCURVE",
"1444 700 CURVE SMOOTH",
"1444 328 OFFCURVE",
"1174 82 OFFCURVE",
"838 82 CURVE SMOOTH"
);
},
{
closed = 1;
nodes = (
"1066 1594 LINE",
"1268 1906 LINE",
"1148 1906 LINE",
"958 1594 LINE"
);
},
{
closed = 1;
nodes = (
"716 1594 LINE",
"918 1906 LINE",
"798 1906 LINE",
"608 1594 LINE"
);
}
);
width = 1676;
}
);
leftKerningGroup = O;
rightKerningGroup = Oaccent;
unicode = 0150;
},
{
color = 6;
glyphname = Oinvertedbreve;
lastChange = "2022-02-16 15:07:45 +0000";
layers = (
{
anchors = (
{
name = bottom;
position = "{838, 0}";
},
{
name = horn;
position = "{1240, 1400}";
},
{
name = ogonek;
position = "{1050, 0}";
},
{
name = top;
position = "{838, 1400}";
},
{
name = topleft;
position = "{152, 1400}";
}
);
layerId = "38FA562F-EF2C-4367-983C-F15B205514DC";
paths = (
{
closed = 1;
nodes = (
"1246 -30 OFFCURVE",
"1564 286 OFFCURVE",
"1564 700 CURVE SMOOTH",
"1564 1108 OFFCURVE",
"1246 1430 OFFCURVE",
"838 1430 CURVE SMOOTH",
"426 1430 OFFCURVE",
"112 1116 OFFCURVE",
"112 700 CURVE SMOOTH",
"112 286 OFFCURVE",
"426 -30 OFFCURVE",
"838 -30 CURVE SMOOTH"
);
},
{
closed = 1;
nodes = (
"502 82 OFFCURVE",
"232 328 OFFCURVE",
"232 700 CURVE SMOOTH",
"232 1072 OFFCURVE",
"502 1318 OFFCURVE",
"838 1318 CURVE SMOOTH",
"1174 1318 OFFCURVE",
"1444 1072 OFFCURVE",
"1444 700 CURVE SMOOTH",
"1444 328 OFFCURVE",
"1174 82 OFFCURVE",
"838 82 CURVE SMOOTH"
);
},
{
closed = 1;
nodes = (
"602 1594 LINE",
"596 1730 OFFCURVE",
"692 1822 OFFCURVE",
"838 1822 CURVE SMOOTH",
"982 1822 OFFCURVE",
"1076 1730 OFFCURVE",
"1068 1594 CURVE",
"1172 1594 LINE",
"1178 1778 OFFCURVE",
"1034 1916 OFFCURVE",
"838 1916 CURVE SMOOTH",
"642 1916 OFFCURVE",
"492 1786 OFFCURVE",
"500 1594 CURVE"
);
}
);
width = 1676;
}
);
leftKerningGroup = O;
rightKerningGroup = O;
unicode = 020E;
},
{
color = 6;
glyphname = Omacron;
lastChange = "2022-02-16 15:07:45 +0000";
layers = (
{
anchors = (
{
name = bottom;
position = "{838, 0}";
},
{
name = horn;
position = "{1240, 1400}";
},
{
name = ogonek;
position = "{1050, 0}";
},
{
name = top;
position = "{838, 1400}";
},
{
name = topleft;
position = "{152, 1400}";
}
);
layerId = "38FA562F-EF2C-4367-983C-F15B205514DC";
paths = (
{
closed = 1;
nodes = (
"1246 -30 OFFCURVE",
"1564 286 OFFCURVE",
"1564 700 CURVE SMOOTH",
"1564 1108 OFFCURVE",
"1246 1430 OFFCURVE",
"838 1430 CURVE SMOOTH",
"426 1430 OFFCURVE",
"112 1116 OFFCURVE",
"112 700 CURVE SMOOTH",
"112 286 OFFCURVE",
"426 -30 OFFCURVE",
"838 -30 CURVE SMOOTH"
);
},
{
closed = 1;
nodes = (
"502 82 OFFCURVE",
"232 328 OFFCURVE",
"232 700 CURVE SMOOTH",
"232 1072 OFFCURVE",
"502 1318 OFFCURVE",
"838 1318 CURVE SMOOTH",
"1174 1318 OFFCURVE",
"1444 1072 OFFCURVE",
"1444 700 CURVE SMOOTH",
"1444 328 OFFCURVE",
"1174 82 OFFCURVE",
"838 82 CURVE SMOOTH"
);
},
{
closed = 1;
nodes = (
"1136 1650 LINE",
"1136 1750 LINE",
"540 1750 LINE",
"540 1650 LINE"
);
}
);
width = 1676;
}
);
leftKerningGroup = O;
rightKerningGroup = O;
unicode = 014C;
},
{
color = 6;
glyphname = Oogonek;
lastChange = "2022-02-16 15:07:45 +0000";
layers = (
{
anchors = (
{
name = top;
position = "{838, 1400}";
}
);
layerId = "38FA562F-EF2C-4367-983C-F15B205514DC";
paths = (
{
closed = 1;
nodes = (
"946 -450 OFFCURVE",
"1003 -435 OFFCURVE",
"1052 -409 CURVE",
"1010 -313 LINE",
"981 -329 OFFCURVE",
"945 -340 OFFCURVE",
"906 -340 CURVE SMOOTH",
"832 -340 OFFCURVE",
"808 -291 OFFCURVE",
"810 -229 CURVE SMOOTH",
"814 -105 OFFCURVE",
"910 -38 OFFCURVE",
"1050 0 CURVE",
"1010 68 LINE",
"842 25 OFFCURVE",
"694 -86 OFFCURVE",
"690 -255 CURVE SMOOTH",
"688 -362 OFFCURVE",
"758 -450 OFFCURVE",
"890 -450 CURVE SMOOTH"
);
},
{
closed = 1;
nodes = (
"1246 -30 OFFCURVE",
"1564 286 OFFCURVE",
"1564 700 CURVE SMOOTH",
"1564 1108 OFFCURVE",
"1246 1430 OFFCURVE",
"838 1430 CURVE SMOOTH",
"426 1430 OFFCURVE",
"112 1116 OFFCURVE",
"112 700 CURVE SMOOTH",
"112 286 OFFCURVE",
"426 -30 OFFCURVE",
"838 -30 CURVE SMOOTH"
);
},
{
closed = 1;
nodes = (
"502 82 OFFCURVE",
"232 328 OFFCURVE",
"232 700 CURVE SMOOTH",
"232 1072 OFFCURVE",
"502 1318 OFFCURVE",
"838 1318 CURVE SMOOTH",
"1174 1318 OFFCURVE",
"1444 1072 OFFCURVE",
"1444 700 CURVE SMOOTH",
"1444 328 OFFCURVE",
"1174 82 OFFCURVE",
"838 82 CURVE SMOOTH"
);
}
);
width = 1676;
}
);
leftKerningGroup = O;
leftMetricsKey = O;
rightKerningGroup = O;
rightMetricsKey = O;
unicode = 01EA;
},
{
color = 9;
glyphname = Oslash;
lastChange = "2022-02-16 15:07:55 +0000";
layers = (
{
anchors = (
{
name = top;
position = "{838, 1400}";
}
);
layerId = "38FA562F-EF2C-4367-983C-F15B205514DC";
paths = (
{
closed = 1;
nodes = (
"412 102 LINE",
"530 18 OFFCURVE",
"676 -30 OFFCURVE",
"838 -30 CURVE SMOOTH",
"1246 -30 OFFCURVE",
"1564 286 OFFCURVE",
"1564 700 CURVE SMOOTH",
"1564 908 OFFCURVE",
"1482 1094 OFFCURVE",
"1346 1226 CURVE",
"1472 1378 LINE",
"1392 1450 LINE",
"1264 1296 LINE",
"1144 1380 OFFCURVE",
"998 1430 OFFCURVE",
"838 1430 CURVE SMOOTH",
"426 1430 OFFCURVE",
"112 1116 OFFCURVE",
"112 700 CURVE SMOOTH",
"112 488 OFFCURVE",
"194 304 OFFCURVE",
"328 172 CURVE",
"204 22 LINE",
"284 -50 LINE"
);
},
{
closed = 1;
nodes = (
"296 366 OFFCURVE",
"232 518 OFFCURVE",
"232 700 CURVE SMOOTH",
"232 1072 OFFCURVE",
"502 1318 OFFCURVE",
"838 1318 CURVE SMOOTH",
"970 1318 OFFCURVE",
"1094 1280 OFFCURVE",
"1192 1210 CURVE",
"402 260 LINE"
);
},
{
closed = 1;
nodes = (
"706 82 OFFCURVE",
"582 120 OFFCURVE",
"484 190 CURVE",
"1274 1140 LINE",
"1380 1034 OFFCURVE",
"1444 882 OFFCURVE",
"1444 700 CURVE SMOOTH",
"1444 328 OFFCURVE",
"1174 82 OFFCURVE",
"838 82 CURVE SMOOTH"
);
}
);
width = 1676;
}
);
leftKerningGroup = Oslash;
widthMetricsKey = O;
rightKerningGroup = Oslash;
unicode = 00D8;
},
{
color = 6;
glyphname = Oslashacute;
lastChange = "2022-02-16 15:07:45 +0000";
layers = (
{
anchors = (
{
name = top;
position = "{838, 1400}";
}
);
layerId = "38FA562F-EF2C-4367-983C-F15B205514DC";
paths = (
{
closed = 1;
nodes = (
"412 102 LINE",
"530 18 OFFCURVE",
"676 -30 OFFCURVE",
"838 -30 CURVE SMOOTH",
"1246 -30 OFFCURVE",
"1564 286 OFFCURVE",
"1564 700 CURVE SMOOTH",
"1564 908 OFFCURVE",
"1482 1094 OFFCURVE",
"1346 1226 CURVE",
"1472 1378 LINE",
"1392 1450 LINE",
"1264 1296 LINE",
"1144 1380 OFFCURVE",
"998 1430 OFFCURVE",
"838 1430 CURVE SMOOTH",
"426 1430 OFFCURVE",
"112 1116 OFFCURVE",
"112 700 CURVE SMOOTH",
"112 488 OFFCURVE",
"194 304 OFFCURVE",
"328 172 CURVE",
"204 22 LINE",
"284 -50 LINE"
);
},
{
closed = 1;
nodes = (
"296 366 OFFCURVE",
"232 518 OFFCURVE",
"232 700 CURVE SMOOTH",
"232 1072 OFFCURVE",
"502 1318 OFFCURVE",
"838 1318 CURVE SMOOTH",
"970 1318 OFFCURVE",
"1094 1280 OFFCURVE",
"1192 1210 CURVE",
"402 260 LINE"
);
},
{
closed = 1;
nodes = (
"706 82 OFFCURVE",
"582 120 OFFCURVE",
"484 190 CURVE",
"1274 1140 LINE",
"1380 1034 OFFCURVE",
"1444 882 OFFCURVE",
"1444 700 CURVE SMOOTH",
"1444 328 OFFCURVE",
"1174 82 OFFCURVE",
"838 82 CURVE SMOOTH"
);
},
{
closed = 1;
nodes = (
"882 1594 LINE",
"1084 1906 LINE",
"964 1906 LINE",
"774 1594 LINE"
);
}
);
width = 1676;
}
);
leftKerningGroup = Oslash;
rightKerningGroup = Oslash;
unicode = 01FE;
},
{
color = 9;
glyphname = Otilde;
lastChange = "2022-02-16 15:07:55 +0000";
layers = (
{
anchors = (
{
name = bottom;
position = "{838, 0}";
},
{
name = horn;
position = "{1240, 1400}";
},
{
name = ogonek;
position = "{1050, 0}";
},
{
name = top;
position = "{838, 1760}";
},
{
name = topleft;
position = "{152, 1400}";
}
);
layerId = "38FA562F-EF2C-4367-983C-F15B205514DC";
paths = (
{
closed = 1;
nodes = (
"1246 -30 OFFCURVE",
"1564 286 OFFCURVE",
"1564 700 CURVE SMOOTH",
"1564 1108 OFFCURVE",
"1246 1430 OFFCURVE",
"838 1430 CURVE SMOOTH",
"426 1430 OFFCURVE",
"112 1116 OFFCURVE",
"112 700 CURVE SMOOTH",
"112 286 OFFCURVE",
"426 -30 OFFCURVE",
"838 -30 CURVE SMOOTH"
);
},
{
closed = 1;
nodes = (
"502 82 OFFCURVE",
"232 328 OFFCURVE",
"232 700 CURVE SMOOTH",
"232 1072 OFFCURVE",
"502 1318 OFFCURVE",
"838 1318 CURVE SMOOTH",
"1174 1318 OFFCURVE",
"1444 1072 OFFCURVE",
"1444 700 CURVE SMOOTH",
"1444 328 OFFCURVE",
"1174 82 OFFCURVE",
"838 82 CURVE SMOOTH"
);
},
{
closed = 1;
nodes = (
"590 1712 OFFCURVE",
"632 1750 OFFCURVE",
"688 1750 CURVE SMOOTH",
"778 1750 OFFCURVE",
"874 1654 OFFCURVE",
"986 1654 CURVE SMOOTH",
"1074 1654 OFFCURVE",
"1148 1716 OFFCURVE",
"1192 1820 CURVE",
"1116 1866 LINE",
"1088 1794 OFFCURVE",
"1046 1750 OFFCURVE",
"988 1750 CURVE SMOOTH",
"898 1750 OFFCURVE",
"802 1848 OFFCURVE",
"688 1848 CURVE SMOOTH",
"596 1848 OFFCURVE",
"526 1780 OFFCURVE",
"484 1678 CURVE",
"560 1634 LINE"
);
}
);
width = 1676;
}
);
leftKerningGroup = O;
rightKerningGroup = O;
unicode = 00D5;
},
{
color = 6;
glyphname = Otildemacron;
lastChange = "2022-02-16 15:07:45 +0000";
layers = (
{
anchors = (
{
name = bottom;
position = "{838, 0}";
},
{
name = horn;
position = "{1240, 1400}";
},
{
name = ogonek;
position = "{1050, 0}";
},
{
name = top;
position = "{838, 1760}";
},
{
name = topleft;
position = "{152, 1400}";
}
);
layerId = "38FA562F-EF2C-4367-983C-F15B205514DC";
paths = (
{
closed = 1;
nodes = (
"1246 -30 OFFCURVE",
"1564 286 OFFCURVE",
"1564 700 CURVE SMOOTH",
"1564 1108 OFFCURVE",
"1246 1430 OFFCURVE",
"838 1430 CURVE SMOOTH",
"426 1430 OFFCURVE",
"112 1116 OFFCURVE",
"112 700 CURVE SMOOTH",
"112 286 OFFCURVE",
"426 -30 OFFCURVE",
"838 -30 CURVE SMOOTH"
);
},
{
closed = 1;
nodes = (
"502 82 OFFCURVE",
"232 328 OFFCURVE",
"232 700 CURVE SMOOTH",
"232 1072 OFFCURVE",
"502 1318 OFFCURVE",
"838 1318 CURVE SMOOTH",
"1174 1318 OFFCURVE",
"1444 1072 OFFCURVE",
"1444 700 CURVE SMOOTH",
"1444 328 OFFCURVE",
"1174 82 OFFCURVE",
"838 82 CURVE SMOOTH"
);
},
{
closed = 1;
nodes = (
"590 1712 OFFCURVE",
"632 1750 OFFCURVE",
"688 1750 CURVE SMOOTH",
"778 1750 OFFCURVE",
"874 1654 OFFCURVE",
"986 1654 CURVE SMOOTH",
"1074 1654 OFFCURVE",
"1148 1716 OFFCURVE",
"1192 1820 CURVE",
"1116 1866 LINE",
"1088 1794 OFFCURVE",
"1046 1750 OFFCURVE",
"988 1750 CURVE SMOOTH",
"898 1750 OFFCURVE",
"802 1848 OFFCURVE",
"688 1848 CURVE SMOOTH",
"596 1848 OFFCURVE",
"526 1780 OFFCURVE",
"484 1678 CURVE",
"560 1634 LINE"
);
},
{
closed = 1;
nodes = (
"1136 2010 LINE",
"1136 2110 LINE",
"540 2110 LINE",
"540 2010 LINE"
);
}
);
width = 1676;
}
);
leftKerningGroup = O;
rightKerningGroup = O;
unicode = 022C;
},
{
color = 9;
glyphname = OE;
lastChange = "2022-02-16 15:07:55 +0000";
layers = (
{
layerId = "38FA562F-EF2C-4367-983C-F15B205514DC";
paths = (
{
closed = 1;
nodes = (
"1106 -30 OFFCURVE",
"1338 114 OFFCURVE",
"1460 336 CURVE",
"1444 358 LINE",
"1444 0 LINE",
"2274 0 LINE",
"2274 108 LINE",
"1560 108 LINE",
"1560 688 LINE",
"2188 688 LINE",
"2188 796 LINE",
"1560 796 LINE",
"1560 1292 LINE",
"2268 1292 LINE",
"2268 1400 LINE",
"1444 1400 LINE",
"1444 1040 LINE",
"1460 1062 LINE",
"1338 1284 OFFCURVE",
"1106 1430 OFFCURVE",
"832 1430 CURVE SMOOTH",
"424 1430 OFFCURVE",
"112 1116 OFFCURVE",
"112 700 CURVE SMOOTH",
"112 286 OFFCURVE",
"424 -30 OFFCURVE",
"832 -30 CURVE SMOOTH"
);
},
{
closed = 1;
nodes = (
"502 82 OFFCURVE",
"232 328 OFFCURVE",
"232 700 CURVE SMOOTH",
"232 1072 OFFCURVE",
"502 1318 OFFCURVE",
"838 1318 CURVE SMOOTH",
"1174 1318 OFFCURVE",
"1444 1072 OFFCURVE",
"1444 700 CURVE SMOOTH",
"1444 328 OFFCURVE",
"1174 82 OFFCURVE",
"838 82 CURVE SMOOTH"
);
}
);
width = 2424;
}
);
leftKerningGroup = O;
leftMetricsKey = O;
rightKerningGroup = E;
rightMetricsKey = E;
unicode = 0152;
},
{
color = 1;
glyphname = P;
lastChange = "2022-02-16 15:08:08 +0000";
layers = (
{
layerId = "38FA562F-EF2C-4367-983C-F15B205514DC";
paths = (
{
closed = 1;
nodes = (
"316 0 LINE",
"316 604 LINE",
"650 604 LINE SMOOTH",
"958 604 OFFCURVE",
"1130 742 OFFCURVE",
"1130 1000 CURVE SMOOTH",
"1130 1250 OFFCURVE",
"936 1400 OFFCURVE",
"652 1400 CURVE SMOOTH",
"200 1400 LINE",
"200 0 LINE"
);
},
{
closed = 1;
nodes = (
"316 1292 LINE",
"666 1292 LINE SMOOTH",
"882 1292 OFFCURVE",
"1014 1176 OFFCURVE",
"1014 996 CURVE SMOOTH",
"1014 810 OFFCURVE",
"886 712 OFFCURVE",
"664 712 CURVE SMOOTH",
"316 712 LINE"
);
}
);
width = 1220;
}
);
leftKerningGroup = H;
leftMetricsKey = I;
rightKerningGroup = P;
unicode = 0050;
},
{
color = 9;
glyphname = Thorn;
lastChange = "2022-02-16 15:07:55 +0000";
layers = (
{
layerId = "38FA562F-EF2C-4367-983C-F15B205514DC";
paths = (
{
closed = 1;
nodes = (
"316 0 LINE",
"316 322 LINE",
"670 322 LINE SMOOTH",
"978 322 OFFCURVE",
"1150 460 OFFCURVE",
"1150 718 CURVE SMOOTH",
"1150 968 OFFCURVE",
"956 1118 OFFCURVE",
"672 1118 CURVE SMOOTH",
"316 1118 LINE",
"316 1400 LINE",
"200 1400 LINE",
"200 0 LINE"
);
},
{
closed = 1;
nodes = (
"316 1010 LINE",
"686 1010 LINE SMOOTH",
"902 1010 OFFCURVE",
"1034 894 OFFCURVE",
"1034 714 CURVE SMOOTH",
"1034 528 OFFCURVE",
"906 430 OFFCURVE",
"684 430 CURVE SMOOTH",
"316 430 LINE"
);
}
);
width = 1230;
}
);
leftKerningGroup = H;
leftMetricsKey = H;
rightKerningGroup = Thorn;
rightMetricsKey = o;
unicode = 00DE;
},
{
color = 1;
glyphname = Q;
lastChange = "2022-02-16 15:08:08 +0000";
layers = (
{
layerId = "38FA562F-EF2C-4367-983C-F15B205514DC";
paths = (
{
closed = 1;
nodes = (
"1492 18 LINE",
"1354 180 LINE",
"1484 312 OFFCURVE",
"1564 494 OFFCURVE",
"1564 700 CURVE SMOOTH",
"1564 1108 OFFCURVE",
"1246 1430 OFFCURVE",
"838 1430 CURVE SMOOTH",
"426 1430 OFFCURVE",
"112 1116 OFFCURVE",
"112 700 CURVE SMOOTH",
"112 286 OFFCURVE",
"426 -30 OFFCURVE",
"838 -30 CURVE SMOOTH",
"1006 -30 OFFCURVE",
"1158 24 OFFCURVE",
"1280 114 CURVE",
"1418 -50 LINE"
);
},
{
closed = 1;
nodes = (
"502 82 OFFCURVE",
"232 328 OFFCURVE",
"232 700 CURVE SMOOTH",
"232 1072 OFFCURVE",
"502 1318 OFFCURVE",
"838 1318 CURVE SMOOTH",
"1174 1318 OFFCURVE",
"1444 1072 OFFCURVE",
"1444 700 CURVE SMOOTH",
"1444 522 OFFCURVE",
"1382 374 OFFCURVE",
"1282 266 CURVE",
"1036 548 LINE",
"962 480 LINE",
"1206 200 LINE",
"1104 124 OFFCURVE",
"978 82 OFFCURVE",
"838 82 CURVE SMOOTH"
);
}
);
width = 1676;
}
);
leftKerningGroup = O;
leftMetricsKey = O;
widthMetricsKey = O;
rightKerningGroup = Q;
unicode = 0051;
},
{
color = 1;
glyphname = R;
lastChange = "2022-02-16 15:08:08 +0000";
layers = (
{
anchors = (
{
name = bottom;
position = "{684, 0}";
},
{
name = top;
position = "{618, 1400}";
}
);
layerId = "38FA562F-EF2C-4367-983C-F15B205514DC";
paths = (
{
closed = 1;
nodes = (
"316 0 LINE",
"316 614 LINE",
"574 614 LINE",
"1036 0 LINE",
"1184 0 LINE",
"716 616 LINE",
"968 640 OFFCURVE",
"1124 786 OFFCURVE",
"1124 998 CURVE SMOOTH",
"1124 1240 OFFCURVE",
"958 1400 OFFCURVE",
"690 1400 CURVE SMOOTH",
"200 1400 LINE",
"200 0 LINE"
);
},
{
closed = 1;
nodes = (
"316 1292 LINE",
"680 1292 LINE SMOOTH",
"904 1292 OFFCURVE",
"1008 1174 OFFCURVE",
"1008 998 CURVE SMOOTH",
"1008 828 OFFCURVE",
"878 722 OFFCURVE",
"656 722 CURVE SMOOTH",
"316 722 LINE"
);
}
);
width = 1284;
}
);
leftKerningGroup = H;
leftMetricsKey = I;
rightKerningGroup = R;
unicode = 0052;
},
{
color = 6;
glyphname = Racute;
lastChange = "2022-02-16 15:07:45 +0000";
layers = (
{
anchors = (
{
name = bottom;
position = "{684, 0}";
},
{
name = top;
position = "{618, 1400}";
}
);
layerId = "38FA562F-EF2C-4367-983C-F15B205514DC";
paths = (
{
closed = 1;
nodes = (
"316 0 LINE",
"316 614 LINE",
"574 614 LINE",
"1036 0 LINE",
"1184 0 LINE",
"716 616 LINE",
"968 640 OFFCURVE",
"1124 786 OFFCURVE",
"1124 998 CURVE SMOOTH",
"1124 1240 OFFCURVE",
"958 1400 OFFCURVE",
"690 1400 CURVE SMOOTH",
"200 1400 LINE",
"200 0 LINE"
);
},
{
closed = 1;
nodes = (
"316 1292 LINE",
"680 1292 LINE SMOOTH",
"904 1292 OFFCURVE",
"1008 1174 OFFCURVE",
"1008 998 CURVE SMOOTH",
"1008 828 OFFCURVE",
"878 722 OFFCURVE",
"656 722 CURVE SMOOTH",
"316 722 LINE"
);
},
{
closed = 1;
nodes = (
"662 1594 LINE",
"864 1906 LINE",
"744 1906 LINE",
"554 1594 LINE"
);
}
);
width = 1284;
}
);
leftKerningGroup = H;
rightKerningGroup = R;
unicode = 0154;
},
{
color = 6;
glyphname = Rcaron;
lastChange = "2022-02-16 15:07:45 +0000";
layers = (
{
anchors = (
{
name = bottom;
position = "{684, 0}";
},
{
name = top;
position = "{618, 1400}";
}
);
layerId = "38FA562F-EF2C-4367-983C-F15B205514DC";
paths = (
{
closed = 1;
nodes = (
"316 0 LINE",
"316 614 LINE",
"574 614 LINE",
"1036 0 LINE",
"1184 0 LINE",
"716 616 LINE",
"968 640 OFFCURVE",
"1124 786 OFFCURVE",
"1124 998 CURVE SMOOTH",
"1124 1240 OFFCURVE",
"958 1400 OFFCURVE",
"690 1400 CURVE SMOOTH",
"200 1400 LINE",
"200 0 LINE"
);
},
{
closed = 1;
nodes = (
"316 1292 LINE",
"680 1292 LINE SMOOTH",
"904 1292 OFFCURVE",
"1008 1174 OFFCURVE",
"1008 998 CURVE SMOOTH",
"1008 828 OFFCURVE",
"878 722 OFFCURVE",
"656 722 CURVE SMOOTH",
"316 722 LINE"
);
},
{
closed = 1;
nodes = (
"672 1594 LINE",
"942 1906 LINE",
"818 1906 LINE",
"612 1670 LINE",
"414 1906 LINE",
"294 1906 LINE",
"548 1594 LINE"
);
}
);
width = 1284;
}
);
leftKerningGroup = Haccent;
rightKerningGroup = R;
unicode = 0158;
},
{
color = 6;
glyphname = Rcommaaccent;
lastChange = "2022-02-16 15:07:45 +0000";
layers = (
{
anchors = (
{
name = bottom;
position = "{684, 0}";
},
{
name = top;
position = "{618, 1400}";
}
);
layerId = "38FA562F-EF2C-4367-983C-F15B205514DC";
paths = (
{
closed = 1;
nodes = (
"316 0 LINE",
"316 614 LINE",
"574 614 LINE",
"1036 0 LINE",
"1184 0 LINE",
"716 616 LINE",
"968 640 OFFCURVE",
"1124 786 OFFCURVE",
"1124 998 CURVE SMOOTH",
"1124 1240 OFFCURVE",
"958 1400 OFFCURVE",
"690 1400 CURVE SMOOTH",
"200 1400 LINE",
"200 0 LINE"
);
},
{
closed = 1;
nodes = (
"316 1292 LINE",
"680 1292 LINE SMOOTH",
"904 1292 OFFCURVE",
"1008 1174 OFFCURVE",
"1008 998 CURVE SMOOTH",
"1008 828 OFFCURVE",
"878 722 OFFCURVE",
"656 722 CURVE SMOOTH",
"316 722 LINE"
);
},
{
closed = 1;
nodes = (
"715 -583 OFFCURVE",
"789 -486 OFFCURVE",
"789 -400 CURVE SMOOTH",
"789 -327 OFFCURVE",
"747 -284 OFFCURVE",
"683 -284 CURVE SMOOTH",
"626 -284 OFFCURVE",
"584 -322 OFFCURVE",
"584 -372 CURVE SMOOTH",
"584 -423 OFFCURVE",
"630 -460 OFFCURVE",
"689 -456 CURVE",
"676 -501 OFFCURVE",
"611 -554 OFFCURVE",
"535 -591 CURVE",
"589 -653 LINE"
);
}
);
width = 1284;
}
);
leftKerningGroup = H;
rightKerningGroup = R;
unicode = 0156;
},
{
color = 6;
glyphname = Rdblgrave;
lastChange = "2022-02-16 15:07:45 +0000";
layers = (
{
anchors = (
{
name = bottom;
position = "{684, 0}";
},
{
name = top;
position = "{618, 1400}";
}
);
layerId = "38FA562F-EF2C-4367-983C-F15B205514DC";
paths = (
{
closed = 1;
nodes = (
"316 0 LINE",
"316 614 LINE",
"574 614 LINE",
"1036 0 LINE",
"1184 0 LINE",
"716 616 LINE",
"968 640 OFFCURVE",
"1124 786 OFFCURVE",
"1124 998 CURVE SMOOTH",
"1124 1240 OFFCURVE",
"958 1400 OFFCURVE",
"690 1400 CURVE SMOOTH",
"200 1400 LINE",
"200 0 LINE"
);
},
{
closed = 1;
nodes = (
"316 1292 LINE",
"680 1292 LINE SMOOTH",
"904 1292 OFFCURVE",
"1008 1174 OFFCURVE",
"1008 998 CURVE SMOOTH",
"1008 828 OFFCURVE",
"878 722 OFFCURVE",
"656 722 CURVE SMOOTH",
"316 722 LINE"
);
},
{
closed = 1;
nodes = (
"660 1906 LINE",
"538 1906 LINE",
"740 1594 LINE",
"848 1594 LINE"
);
},
{
closed = 1;
nodes = (
"308 1906 LINE",
"188 1906 LINE",
"390 1594 LINE",
"498 1594 LINE"
);
}
);
width = 1284;
}
);
leftKerningGroup = Edblgrave;
rightKerningGroup = R;
unicode = 0210;
},
{
color = 6;
glyphname = Rinvertedbreve;
lastChange = "2022-02-16 15:07:45 +0000";
layers = (
{
anchors = (
{
name = bottom;
position = "{684, 0}";
},
{
name = top;
position = "{618, 1400}";
}
);
layerId = "38FA562F-EF2C-4367-983C-F15B205514DC";
paths = (
{
closed = 1;
nodes = (
"316 0 LINE",
"316 614 LINE",
"574 614 LINE",
"1036 0 LINE",
"1184 0 LINE",
"716 616 LINE",
"968 640 OFFCURVE",
"1124 786 OFFCURVE",
"1124 998 CURVE SMOOTH",
"1124 1240 OFFCURVE",
"958 1400 OFFCURVE",
"690 1400 CURVE SMOOTH",
"200 1400 LINE",
"200 0 LINE"
);
},
{
closed = 1;
nodes = (
"316 1292 LINE",
"680 1292 LINE SMOOTH",
"904 1292 OFFCURVE",
"1008 1174 OFFCURVE",
"1008 998 CURVE SMOOTH",
"1008 828 OFFCURVE",
"878 722 OFFCURVE",
"656 722 CURVE SMOOTH",
"316 722 LINE"
);
},
{
closed = 1;
nodes = (
"382 1594 LINE",
"376 1730 OFFCURVE",
"472 1822 OFFCURVE",
"618 1822 CURVE SMOOTH",
"762 1822 OFFCURVE",
"856 1730 OFFCURVE",
"848 1594 CURVE",
"952 1594 LINE",
"958 1778 OFFCURVE",
"814 1916 OFFCURVE",
"618 1916 CURVE SMOOTH",
"422 1916 OFFCURVE",
"272 1786 OFFCURVE",
"280 1594 CURVE"
);
}
);
width = 1284;
}
);
leftKerningGroup = H;
rightKerningGroup = R;
unicode = 0212;
},
{
color = 1;
glyphname = S;
lastChange = "2022-02-16 15:08:08 +0000";
layers = (
{
anchors = (
{
name = bottom;
position = "{622, 0}";
},
{
name = top;
position = "{636, 1400}";
}
);
layerId = "38FA562F-EF2C-4367-983C-F15B205514DC";
paths = (
{
closed = 1;
nodes = (
"940 -30 OFFCURVE",
"1110 128 OFFCURVE",
"1110 360 CURVE SMOOTH",
"1110 548 OFFCURVE",
"1000 658 OFFCURVE",
"768 726 CURVE SMOOTH",
"586 780 LINE SMOOTH",
"342 852 OFFCURVE",
"272 926 OFFCURVE",
"272 1050 CURVE SMOOTH",
"272 1228 OFFCURVE",
"416 1324 OFFCURVE",
"624 1324 CURVE SMOOTH",
"760 1324 OFFCURVE",
"894 1282 OFFCURVE",
"990 1208 CURVE",
"1055 1299 LINE",
"958 1378 OFFCURVE",
"811 1430 OFFCURVE",
"646 1430 CURVE SMOOTH",
"362 1430 OFFCURVE",
"164 1284 OFFCURVE",
"164 1042 CURVE SMOOTH",
"164 864 OFFCURVE",
"274 758 OFFCURVE",
"516 686 CURVE SMOOTH",
"684 636 LINE SMOOTH",
"928 564 OFFCURVE",
"1002 480 OFFCURVE",
"1002 352 CURVE SMOOTH",
"1002 172 OFFCURVE",
"852 78 OFFCURVE",
"624 78 CURVE SMOOTH",
"468 78 OFFCURVE",
"326 122 OFFCURVE",
"216 204 CURVE",
"152 108 LINE",
"266 18 OFFCURVE",
"446 -30 OFFCURVE",
"622 -30 CURVE SMOOTH"
);
}
);
width = 1234;
}
);
leftKerningGroup = S;
rightKerningGroup = S;
unicode = 0053;
},
{
color = 6;
glyphname = Sacute;
lastChange = "2022-02-16 15:07:45 +0000";
layers = (
{
anchors = (
{
name = bottom;
position = "{622, 0}";
},
{
name = top;
position = "{636, 1400}";
}
);
layerId = "38FA562F-EF2C-4367-983C-F15B205514DC";
paths = (
{
closed = 1;
nodes = (
"940 -30 OFFCURVE",
"1110 128 OFFCURVE",
"1110 360 CURVE SMOOTH",
"1110 548 OFFCURVE",
"1000 658 OFFCURVE",
"768 726 CURVE SMOOTH",
"586 780 LINE SMOOTH",
"342 852 OFFCURVE",
"272 926 OFFCURVE",
"272 1050 CURVE SMOOTH",
"272 1228 OFFCURVE",
"416 1324 OFFCURVE",
"624 1324 CURVE SMOOTH",
"760 1324 OFFCURVE",
"894 1282 OFFCURVE",
"990 1208 CURVE",
"1055 1299 LINE",
"958 1378 OFFCURVE",
"811 1430 OFFCURVE",
"646 1430 CURVE SMOOTH",
"362 1430 OFFCURVE",
"164 1284 OFFCURVE",
"164 1042 CURVE SMOOTH",
"164 864 OFFCURVE",
"274 758 OFFCURVE",
"516 686 CURVE SMOOTH",
"684 636 LINE SMOOTH",
"928 564 OFFCURVE",
"1002 480 OFFCURVE",
"1002 352 CURVE SMOOTH",
"1002 172 OFFCURVE",
"852 78 OFFCURVE",
"624 78 CURVE SMOOTH",
"468 78 OFFCURVE",
"326 122 OFFCURVE",
"216 204 CURVE",
"152 108 LINE",
"266 18 OFFCURVE",
"446 -30 OFFCURVE",
"622 -30 CURVE SMOOTH"
);
},
{
closed = 1;
nodes = (
"680 1594 LINE",
"882 1906 LINE",
"762 1906 LINE",
"572 1594 LINE"
);
}
);
width = 1234;
}
);
leftKerningGroup = S;
rightKerningGroup = S;
unicode = 015A;
},
{
color = 6;
glyphname = Scaron;
lastChange = "2022-02-16 15:07:45 +0000";
layers = (
{
anchors = (
{
name = bottom;
position = "{622, 0}";
},
{
name = top;
position = "{636, 1400}";
}
);
layerId = "38FA562F-EF2C-4367-983C-F15B205514DC";
paths = (
{
closed = 1;
nodes = (
"940 -30 OFFCURVE",
"1110 128 OFFCURVE",
"1110 360 CURVE SMOOTH",
"1110 548 OFFCURVE",
"1000 658 OFFCURVE",
"768 726 CURVE SMOOTH",
"586 780 LINE SMOOTH",
"342 852 OFFCURVE",
"272 926 OFFCURVE",
"272 1050 CURVE SMOOTH",
"272 1228 OFFCURVE",
"416 1324 OFFCURVE",
"624 1324 CURVE SMOOTH",
"760 1324 OFFCURVE",
"894 1282 OFFCURVE",
"990 1208 CURVE",
"1055 1299 LINE",
"958 1378 OFFCURVE",
"811 1430 OFFCURVE",
"646 1430 CURVE SMOOTH",
"362 1430 OFFCURVE",
"164 1284 OFFCURVE",
"164 1042 CURVE SMOOTH",
"164 864 OFFCURVE",
"274 758 OFFCURVE",
"516 686 CURVE SMOOTH",
"684 636 LINE SMOOTH",
"928 564 OFFCURVE",
"1002 480 OFFCURVE",
"1002 352 CURVE SMOOTH",
"1002 172 OFFCURVE",
"852 78 OFFCURVE",
"624 78 CURVE SMOOTH",
"468 78 OFFCURVE",
"326 122 OFFCURVE",
"216 204 CURVE",
"152 108 LINE",
"266 18 OFFCURVE",
"446 -30 OFFCURVE",
"622 -30 CURVE SMOOTH"
);
},
{
closed = 1;
nodes = (
"690 1594 LINE",
"960 1906 LINE",
"836 1906 LINE",
"630 1670 LINE",
"432 1906 LINE",
"312 1906 LINE",
"566 1594 LINE"
);
}
);
width = 1234;
}
);
leftKerningGroup = Saccent;
rightKerningGroup = Saccent;
unicode = 0160;
},
{
color = 6;
glyphname = Scedilla;
lastChange = "2022-02-16 15:07:45 +0000";
layers = (
{
anchors = (
{
name = bottom;
position = "{622, 0}";
},
{
name = top;
position = "{636, 1400}";
}
);
layerId = "38FA562F-EF2C-4367-983C-F15B205514DC";
paths = (
{
closed = 1;
nodes = (
"940 -30 OFFCURVE",
"1110 128 OFFCURVE",
"1110 360 CURVE SMOOTH",
"1110 548 OFFCURVE",
"1000 658 OFFCURVE",
"768 726 CURVE SMOOTH",
"586 780 LINE SMOOTH",
"342 852 OFFCURVE",
"272 926 OFFCURVE",
"272 1050 CURVE SMOOTH",
"272 1228 OFFCURVE",
"416 1324 OFFCURVE",
"624 1324 CURVE SMOOTH",
"760 1324 OFFCURVE",
"894 1282 OFFCURVE",
"990 1208 CURVE",
"1055 1299 LINE",
"958 1378 OFFCURVE",
"811 1430 OFFCURVE",
"646 1430 CURVE SMOOTH",
"362 1430 OFFCURVE",
"164 1284 OFFCURVE",
"164 1042 CURVE SMOOTH",
"164 864 OFFCURVE",
"274 758 OFFCURVE",
"516 686 CURVE SMOOTH",
"684 636 LINE SMOOTH",
"928 564 OFFCURVE",
"1002 480 OFFCURVE",
"1002 352 CURVE SMOOTH",
"1002 172 OFFCURVE",
"852 78 OFFCURVE",
"624 78 CURVE SMOOTH",
"468 78 OFFCURVE",
"326 122 OFFCURVE",
"216 204 CURVE",
"152 108 LINE",
"266 18 OFFCURVE",
"446 -30 OFFCURVE",
"622 -30 CURVE SMOOTH"
);
},
{
closed = 1;
nodes = (
"700 -450 OFFCURVE",
"840 -402 OFFCURVE",
"840 -266 CURVE SMOOTH",
"840 -160 OFFCURVE",
"746 -102 OFFCURVE",
"620 -94 CURVE",
"660 40 LINE",
"578 40 LINE",
"524 -126 LINE",
"558 -186 LINE",
"644 -174 OFFCURVE",
"732 -200 OFFCURVE",
"732 -270 CURVE SMOOTH",
"732 -336 OFFCURVE",
"662 -360 OFFCURVE",
"602 -360 CURVE SMOOTH",
"538 -360 OFFCURVE",
"464 -336 OFFCURVE",
"440 -308 CURVE",
"402 -394 LINE",
"458 -430 OFFCURVE",
"526 -450 OFFCURVE",
"606 -450 CURVE SMOOTH"
);
}
);
width = 1234;
}
);
leftKerningGroup = S;
rightKerningGroup = S;
unicode = 015E;
},
{
color = 6;
glyphname = Scircumflex;
lastChange = "2022-02-16 15:07:45 +0000";
layers = (
{
anchors = (
{
name = bottom;
position = "{622, 0}";
},
{
name = top;
position = "{636, 1850}";
},
{
name = top_right;
position = "{954, 1648}";
}
);
layerId = "38FA562F-EF2C-4367-983C-F15B205514DC";
paths = (
{
closed = 1;
nodes = (
"940 -30 OFFCURVE",
"1110 128 OFFCURVE",
"1110 360 CURVE SMOOTH",
"1110 548 OFFCURVE",
"1000 658 OFFCURVE",
"768 726 CURVE SMOOTH",
"586 780 LINE SMOOTH",
"342 852 OFFCURVE",
"272 926 OFFCURVE",
"272 1050 CURVE SMOOTH",
"272 1228 OFFCURVE",
"416 1324 OFFCURVE",
"624 1324 CURVE SMOOTH",
"760 1324 OFFCURVE",
"894 1282 OFFCURVE",
"990 1208 CURVE",
"1055 1299 LINE",
"958 1378 OFFCURVE",
"811 1430 OFFCURVE",
"646 1430 CURVE SMOOTH",
"362 1430 OFFCURVE",
"164 1284 OFFCURVE",
"164 1042 CURVE SMOOTH",
"164 864 OFFCURVE",
"274 758 OFFCURVE",
"516 686 CURVE SMOOTH",
"684 636 LINE SMOOTH",
"928 564 OFFCURVE",
"1002 480 OFFCURVE",
"1002 352 CURVE SMOOTH",
"1002 172 OFFCURVE",
"852 78 OFFCURVE",
"624 78 CURVE SMOOTH",
"468 78 OFFCURVE",
"326 122 OFFCURVE",
"216 204 CURVE",
"152 108 LINE",
"266 18 OFFCURVE",
"446 -30 OFFCURVE",
"622 -30 CURVE SMOOTH"
);
},
{
closed = 1;
nodes = (
"436 1594 LINE",
"642 1830 LINE",
"840 1594 LINE",
"960 1594 LINE",
"708 1906 LINE",
"582 1906 LINE",
"312 1594 LINE"
);
}
);
width = 1234;
}
);
leftKerningGroup = S;
rightKerningGroup = Saccent;
unicode = 015C;
},
{
color = 6;
glyphname = Scommaaccent;
lastChange = "2022-02-16 15:07:45 +0000";
layers = (
{
anchors = (
{
name = bottom;
position = "{622, 0}";
},
{
name = top;
position = "{636, 1400}";
}
);
layerId = "38FA562F-EF2C-4367-983C-F15B205514DC";
paths = (
{
closed = 1;
nodes = (
"940 -30 OFFCURVE",
"1110 128 OFFCURVE",
"1110 360 CURVE SMOOTH",
"1110 548 OFFCURVE",
"1000 658 OFFCURVE",
"768 726 CURVE SMOOTH",
"586 780 LINE SMOOTH",
"342 852 OFFCURVE",
"272 926 OFFCURVE",
"272 1050 CURVE SMOOTH",
"272 1228 OFFCURVE",
"416 1324 OFFCURVE",
"624 1324 CURVE SMOOTH",
"760 1324 OFFCURVE",
"894 1282 OFFCURVE",
"990 1208 CURVE",
"1055 1299 LINE",
"958 1378 OFFCURVE",
"811 1430 OFFCURVE",
"646 1430 CURVE SMOOTH",
"362 1430 OFFCURVE",
"164 1284 OFFCURVE",
"164 1042 CURVE SMOOTH",
"164 864 OFFCURVE",
"274 758 OFFCURVE",
"516 686 CURVE SMOOTH",
"684 636 LINE SMOOTH",
"928 564 OFFCURVE",
"1002 480 OFFCURVE",
"1002 352 CURVE SMOOTH",
"1002 172 OFFCURVE",
"852 78 OFFCURVE",
"624 78 CURVE SMOOTH",
"468 78 OFFCURVE",
"326 122 OFFCURVE",
"216 204 CURVE",
"152 108 LINE",
"266 18 OFFCURVE",
"446 -30 OFFCURVE",
"622 -30 CURVE SMOOTH"
);
},
{
closed = 1;
nodes = (
"653 -583 OFFCURVE",
"727 -486 OFFCURVE",
"727 -400 CURVE SMOOTH",
"727 -327 OFFCURVE",
"685 -284 OFFCURVE",
"621 -284 CURVE SMOOTH",
"564 -284 OFFCURVE",
"522 -322 OFFCURVE",
"522 -372 CURVE SMOOTH",
"522 -423 OFFCURVE",
"568 -460 OFFCURVE",
"627 -456 CURVE",
"614 -501 OFFCURVE",
"549 -554 OFFCURVE",
"473 -591 CURVE",
"527 -653 LINE"
);
}
);
width = 1234;
}
);
leftKerningGroup = S;
rightKerningGroup = S;
unicode = 0218;
},
{
color = 6;
glyphname = Germandbls;
lastChange = "2022-02-16 15:07:45 +0000";
layers = (
{
guideLines = (
{
angle = 40.0608;
position = "{431, 491}";
},
{
angle = 220.7108;
position = "{478, 464}";
}
);
layerId = "38FA562F-EF2C-4367-983C-F15B205514DC";
paths = (
{
closed = 1;
nodes = (
"1148 -30 OFFCURVE",
"1318 94 OFFCURVE",
"1318 296 CURVE SMOOTH",
"1318 572 OFFCURVE",
"862 590 OFFCURVE",
"862 814 CURVE SMOOTH",
"862 914 OFFCURVE",
"922 1006 OFFCURVE",
"1154 1222 CURVE",
"1154 1318 LINE",
"1052 1374 OFFCURVE",
"922 1430 OFFCURVE",
"738 1430 CURVE SMOOTH",
"414 1430 OFFCURVE",
"198 1210 OFFCURVE",
"198 908 CURVE SMOOTH",
"198 0 LINE",
"314 0 LINE",
"314 908 LINE SMOOTH",
"314 1160 OFFCURVE",
"466 1320 OFFCURVE",
"738 1320 CURVE SMOOTH",
"874 1320 OFFCURVE",
"954 1282 OFFCURVE",
"1026 1250 CURVE",
"824 1050 OFFCURVE",
"732 950 OFFCURVE",
"732 804 CURVE SMOOTH",
"732 498 OFFCURVE",
"1192 522 OFFCURVE",
"1192 282 CURVE SMOOTH",
"1192 150 OFFCURVE",
"1080 76 OFFCURVE",
"904 75 CURVE SMOOTH",
"812 74 OFFCURVE",
"728 90 OFFCURVE",
"664 112 CURVE",
"624 14 LINE",
"740 -24 OFFCURVE",
"834 -32 OFFCURVE",
"892 -32 CURVE SMOOTH"
);
}
);
userData = {
RMXScaler = {
height = 97.3;
weight = 2;
width = 116;
};
};
width = 1388;
}
);
leftKerningGroup = H;
leftMetricsKey = "=H-2";
rightKerningGroup = S;
rightMetricsKey = "=germandbls-10";
unicode = 1E9E;
userData = {
RMXScaler = {
source = germandbls;
};
};
},
{
color = 1;
glyphname = T;
lastChange = "2022-02-16 15:08:08 +0000";
layers = (
{
anchors = (
{
name = bar;
position = "{542, 722}";
},
{
name = bottom;
position = "{542, 0}";
},
{
name = top;
position = "{542, 1400}";
}
);
layerId = "38FA562F-EF2C-4367-983C-F15B205514DC";
paths = (
{
closed = 1;
nodes = (
"600 0 LINE",
"600 1292 LINE",
"1014 1292 LINE",
"1014 1400 LINE",
"70 1400 LINE",
"70 1292 LINE",
"484 1292 LINE",
"484 0 LINE"
);
}
);
width = 1084;
}
);
leftKerningGroup = T;
rightKerningGroup = T;
unicode = 0054;
},
{
color = 6;
glyphname = Tbar;
lastChange = "2022-02-16 15:31:08 +0000";
layers = (
{
anchors = (
{
name = bar;
position = "{492, 722}";
},
{
name = bottom;
position = "{492, 0}";
},
{
name = top;
position = "{492, 1400}";
}
);
layerId = "38FA562F-EF2C-4367-983C-F15B205514DC";
paths = (
{
closed = 1;
nodes = (
"550 0 LINE",
"550 1292 LINE",
"964 1292 LINE",
"964 1400 LINE",
"20 1400 LINE",
"20 1292 LINE",
"434 1292 LINE",
"434 0 LINE"
);
},
{
closed = 1;
nodes = (
"904 678 LINE",
"904 766 LINE",
"80 766 LINE",
"80 678 LINE"
);
}
);
width = 984;
}
);
leftKerningGroup = Tbar;
leftMetricsKey = "=+20";
rightKerningGroup = Tbar;
rightMetricsKey = "=+20";
unicode = 0166;
},
{
color = 6;
glyphname = Tcaron;
lastChange = "2022-02-16 15:07:45 +0000";
layers = (
{
anchors = (
{
name = bar;
position = "{542, 722}";
},
{
name = bottom;
position = "{542, 0}";
},
{
name = top;
position = "{542, 1400}";
}
);
layerId = "38FA562F-EF2C-4367-983C-F15B205514DC";
paths = (
{
closed = 1;
nodes = (
"600 0 LINE",
"600 1292 LINE",
"1014 1292 LINE",
"1014 1400 LINE",
"70 1400 LINE",
"70 1292 LINE",
"484 1292 LINE",
"484 0 LINE"
);
},
{
closed = 1;
nodes = (
"596 1594 LINE",
"866 1906 LINE",
"742 1906 LINE",
"536 1670 LINE",
"338 1906 LINE",
"218 1906 LINE",
"472 1594 LINE"
);
}
);
width = 1084;
}
);
leftKerningGroup = Taccent;
rightKerningGroup = Taccent;
unicode = 0164;
},
{
color = 6;
glyphname = Tcedilla;
lastChange = "2022-02-16 15:07:45 +0000";
layers = (
{
anchors = (
{
name = bar;
position = "{542, 722}";
},
{
name = bottom;
position = "{542, 0}";
},
{
name = top;
position = "{542, 1400}";
}
);
layerId = "38FA562F-EF2C-4367-983C-F15B205514DC";
paths = (
{
closed = 1;
nodes = (
"600 0 LINE",
"600 1292 LINE",
"1014 1292 LINE",
"1014 1400 LINE",
"70 1400 LINE",
"70 1292 LINE",
"484 1292 LINE",
"484 0 LINE"
);
},
{
closed = 1;
nodes = (
"620 -450 OFFCURVE",
"760 -402 OFFCURVE",
"760 -266 CURVE SMOOTH",
"760 -160 OFFCURVE",
"666 -102 OFFCURVE",
"540 -94 CURVE",
"580 40 LINE",
"498 40 LINE",
"444 -126 LINE",
"478 -186 LINE",
"564 -174 OFFCURVE",
"652 -200 OFFCURVE",
"652 -270 CURVE SMOOTH",
"652 -336 OFFCURVE",
"582 -360 OFFCURVE",
"522 -360 CURVE SMOOTH",
"458 -360 OFFCURVE",
"384 -336 OFFCURVE",
"360 -308 CURVE",
"322 -394 LINE",
"378 -430 OFFCURVE",
"446 -450 OFFCURVE",
"526 -450 CURVE SMOOTH"
);
}
);
width = 1084;
}
);
leftKerningGroup = T;
rightKerningGroup = T;
unicode = 0162;
},
{
color = 6;
glyphname = Tcommaaccent;
lastChange = "2022-02-16 15:07:45 +0000";
layers = (
{
anchors = (
{
name = bar;
position = "{542, 722}";
},
{
name = bottom;
position = "{542, 0}";
},
{
name = top;
position = "{542, 1400}";
}
);
layerId = "38FA562F-EF2C-4367-983C-F15B205514DC";
paths = (
{
closed = 1;
nodes = (
"600 0 LINE",
"600 1292 LINE",
"1014 1292 LINE",
"1014 1400 LINE",
"70 1400 LINE",
"70 1292 LINE",
"484 1292 LINE",
"484 0 LINE"
);
},
{
closed = 1;
nodes = (
"573 -583 OFFCURVE",
"647 -486 OFFCURVE",
"647 -400 CURVE SMOOTH",
"647 -327 OFFCURVE",
"605 -284 OFFCURVE",
"541 -284 CURVE SMOOTH",
"484 -284 OFFCURVE",
"442 -322 OFFCURVE",
"442 -372 CURVE SMOOTH",
"442 -423 OFFCURVE",
"488 -460 OFFCURVE",
"547 -456 CURVE",
"534 -501 OFFCURVE",
"469 -554 OFFCURVE",
"393 -591 CURVE",
"447 -653 LINE"
);
}
);
width = 1084;
}
);
leftKerningGroup = T;
rightKerningGroup = T;
unicode = 021A;
},
{
color = 1;
glyphname = U;
lastChange = "2022-02-16 15:08:08 +0000";
layers = (
{
anchors = (
{
name = bottom;
position = "{722, 0}";
},
{
name = horn;
position = "{1254, 1400}";
},
{
name = ogonek;
position = "{1038, 0}";
},
{
name = top;
position = "{722, 1400}";
}
);
guideLines = (
{
angle = 90;
position = "{1138, 0}";
}
);
layerId = "38FA562F-EF2C-4367-983C-F15B205514DC";
paths = (
{
closed = 1;
nodes = (
"1078 -30 OFFCURVE",
"1254 218 OFFCURVE",
"1254 516 CURVE SMOOTH",
"1254 1400 LINE",
"1138 1400 LINE",
"1138 532 LINE SMOOTH",
"1138 230 OFFCURVE",
"974 82 OFFCURVE",
"722 82 CURVE SMOOTH",
"470 82 OFFCURVE",
"306 230 OFFCURVE",
"306 532 CURVE SMOOTH",
"306 1400 LINE",
"190 1400 LINE",
"190 516 LINE SMOOTH",
"190 218 OFFCURVE",
"366 -30 OFFCURVE",
"722 -30 CURVE SMOOTH"
);
}
);
width = 1444;
}
);
leftKerningGroup = U;
leftMetricsKey = "=I/1.05";
rightKerningGroup = U;
rightMetricsKey = "=|";
unicode = 0055;
},
{
color = 9;
glyphname = Uacute;
lastChange = "2022-02-16 15:07:55 +0000";
layers = (
{
anchors = (
{
name = bottom;
position = "{722, 0}";
},
{
name = horn;
position = "{1254, 1400}";
},
{
name = ogonek;
position = "{1038, 0}";
},
{
name = top;
position = "{722, 1400}";
}
);
layerId = "38FA562F-EF2C-4367-983C-F15B205514DC";
paths = (
{
closed = 1;
nodes = (
"1078 -30 OFFCURVE",
"1254 218 OFFCURVE",
"1254 516 CURVE SMOOTH",
"1254 1400 LINE",
"1138 1400 LINE",
"1138 532 LINE SMOOTH",
"1138 230 OFFCURVE",
"974 82 OFFCURVE",
"722 82 CURVE SMOOTH",
"470 82 OFFCURVE",
"306 230 OFFCURVE",
"306 532 CURVE SMOOTH",
"306 1400 LINE",
"190 1400 LINE",
"190 516 LINE SMOOTH",
"190 218 OFFCURVE",
"366 -30 OFFCURVE",
"722 -30 CURVE SMOOTH"
);
},
{
closed = 1;
nodes = (
"766 1594 LINE",
"968 1906 LINE",
"848 1906 LINE",
"658 1594 LINE"
);
}
);
width = 1444;
}
);
leftKerningGroup = U;
rightKerningGroup = U;
unicode = 00DA;
},
{
color = 6;
glyphname = Ubreve;
lastChange = "2022-02-16 15:07:45 +0000";
layers = (
{
anchors = (
{
name = bottom;
position = "{722, 0}";
},
{
name = horn;
position = "{1254, 1400}";
},
{
name = ogonek;
position = "{1038, 0}";
},
{
name = top;
position = "{722, 1814}";
}
);
layerId = "38FA562F-EF2C-4367-983C-F15B205514DC";
paths = (
{
closed = 1;
nodes = (
"1078 -30 OFFCURVE",
"1254 218 OFFCURVE",
"1254 516 CURVE SMOOTH",
"1254 1400 LINE",
"1138 1400 LINE",
"1138 532 LINE SMOOTH",
"1138 230 OFFCURVE",
"974 82 OFFCURVE",
"722 82 CURVE SMOOTH",
"470 82 OFFCURVE",
"306 230 OFFCURVE",
"306 532 CURVE SMOOTH",
"306 1400 LINE",
"190 1400 LINE",
"190 516 LINE SMOOTH",
"190 218 OFFCURVE",
"366 -30 OFFCURVE",
"722 -30 CURVE SMOOTH"
);
},
{
closed = 1;
nodes = (
"916 1584 OFFCURVE",
"1062 1720 OFFCURVE",
"1056 1906 CURVE",
"952 1906 LINE",
"960 1770 OFFCURVE",
"868 1678 OFFCURVE",
"722 1678 CURVE SMOOTH",
"576 1678 OFFCURVE",
"480 1770 OFFCURVE",
"486 1906 CURVE",
"384 1906 LINE",
"376 1720 OFFCURVE",
"520 1584 OFFCURVE",
"722 1584 CURVE SMOOTH"
);
}
);
width = 1444;
}
);
leftKerningGroup = U;
rightKerningGroup = U;
unicode = 016C;
},
{
color = 9;
glyphname = Ucircumflex;
lastChange = "2022-02-16 15:07:55 +0000";
layers = (
{
anchors = (
{
name = bottom;
position = "{722, 0}";
},
{
name = horn;
position = "{1254, 1400}";
},
{
name = ogonek;
position = "{1038, 0}";
},
{
name = top;
position = "{722, 1850}";
},
{
name = top_right;
position = "{1040, 1648}";
}
);
layerId = "38FA562F-EF2C-4367-983C-F15B205514DC";
paths = (
{
closed = 1;
nodes = (
"1078 -30 OFFCURVE",
"1254 218 OFFCURVE",
"1254 516 CURVE SMOOTH",
"1254 1400 LINE",
"1138 1400 LINE",
"1138 532 LINE SMOOTH",
"1138 230 OFFCURVE",
"974 82 OFFCURVE",
"722 82 CURVE SMOOTH",
"470 82 OFFCURVE",
"306 230 OFFCURVE",
"306 532 CURVE SMOOTH",
"306 1400 LINE",
"190 1400 LINE",
"190 516 LINE SMOOTH",
"190 218 OFFCURVE",
"366 -30 OFFCURVE",
"722 -30 CURVE SMOOTH"
);
},
{
closed = 1;
nodes = (
"522 1594 LINE",
"728 1830 LINE",
"926 1594 LINE",
"1046 1594 LINE",
"794 1906 LINE",
"668 1906 LINE",
"398 1594 LINE"
);
}
);
width = 1444;
}
);
leftKerningGroup = U;
rightKerningGroup = U;
unicode = 00DB;
},
{
color = 6;
glyphname = Udblgrave;
lastChange = "2022-02-16 15:07:45 +0000";
layers = (
{
anchors = (
{
name = bottom;
position = "{722, 0}";
},
{
name = horn;
position = "{1254, 1400}";
},
{
name = ogonek;
position = "{1038, 0}";
},
{
name = top;
position = "{722, 1400}";
}
);
layerId = "38FA562F-EF2C-4367-983C-F15B205514DC";
paths = (
{
closed = 1;
nodes = (
"1078 -30 OFFCURVE",
"1254 218 OFFCURVE",
"1254 516 CURVE SMOOTH",
"1254 1400 LINE",
"1138 1400 LINE",
"1138 532 LINE SMOOTH",
"1138 230 OFFCURVE",
"974 82 OFFCURVE",
"722 82 CURVE SMOOTH",
"470 82 OFFCURVE",
"306 230 OFFCURVE",
"306 532 CURVE SMOOTH",
"306 1400 LINE",
"190 1400 LINE",
"190 516 LINE SMOOTH",
"190 218 OFFCURVE",
"366 -30 OFFCURVE",
"722 -30 CURVE SMOOTH"
);
},
{
closed = 1;
nodes = (
"764 1906 LINE",
"642 1906 LINE",
"844 1594 LINE",
"952 1594 LINE"
);
},
{
closed = 1;
nodes = (
"412 1906 LINE",
"292 1906 LINE",
"494 1594 LINE",
"602 1594 LINE"
);
}
);
width = 1444;
}
);
leftKerningGroup = Uaccent;
rightKerningGroup = U;
unicode = 0214;
},
{
color = 9;
glyphname = Udieresis;
lastChange = "2022-02-16 15:07:55 +0000";
layers = (
{
anchors = (
{
name = bottom;
position = "{722, 0}";
},
{
name = horn;
position = "{1254, 1400}";
},
{
name = ogonek;
position = "{1038, 0}";
},
{
name = top;
position = "{722, 1706}";
}
);
layerId = "38FA562F-EF2C-4367-983C-F15B205514DC";
paths = (
{
closed = 1;
nodes = (
"1078 -30 OFFCURVE",
"1254 218 OFFCURVE",
"1254 516 CURVE SMOOTH",
"1254 1400 LINE",
"1138 1400 LINE",
"1138 532 LINE SMOOTH",
"1138 230 OFFCURVE",
"974 82 OFFCURVE",
"722 82 CURVE SMOOTH",
"470 82 OFFCURVE",
"306 230 OFFCURVE",
"306 532 CURVE SMOOTH",
"306 1400 LINE",
"190 1400 LINE",
"190 516 LINE SMOOTH",
"190 218 OFFCURVE",
"366 -30 OFFCURVE",
"722 -30 CURVE SMOOTH"
);
},
{
closed = 1;
nodes = (
"590 1586 OFFCURVE",
"632 1628 OFFCURVE",
"632 1678 CURVE SMOOTH",
"632 1728 OFFCURVE",
"588 1768 OFFCURVE",
"536 1768 CURVE SMOOTH",
"484 1768 OFFCURVE",
"440 1728 OFFCURVE",
"440 1678 CURVE SMOOTH",
"440 1628 OFFCURVE",
"482 1586 OFFCURVE",
"536 1586 CURVE SMOOTH"
);
},
{
closed = 1;
nodes = (
"962 1586 OFFCURVE",
"1006 1628 OFFCURVE",
"1006 1678 CURVE SMOOTH",
"1006 1728 OFFCURVE",
"962 1768 OFFCURVE",
"910 1768 CURVE SMOOTH",
"856 1768 OFFCURVE",
"814 1726 OFFCURVE",
"814 1678 CURVE SMOOTH",
"814 1628 OFFCURVE",
"856 1586 OFFCURVE",
"910 1586 CURVE SMOOTH"
);
}
);
width = 1444;
}
);
leftKerningGroup = U;
rightKerningGroup = U;
unicode = 00DC;
},
{
color = 6;
glyphname = Udotbelow;
lastChange = "2022-02-16 15:07:45 +0000";
layers = (
{
anchors = (
{
name = bottom;
position = "{722, 0}";
},
{
name = horn;
position = "{1254, 1400}";
},
{
name = ogonek;
position = "{1038, 0}";
},
{
name = top;
position = "{722, 1400}";
}
);
layerId = "38FA562F-EF2C-4367-983C-F15B205514DC";
paths = (
{
closed = 1;
nodes = (
"1078 -30 OFFCURVE",
"1254 218 OFFCURVE",
"1254 516 CURVE SMOOTH",
"1254 1400 LINE",
"1138 1400 LINE",
"1138 532 LINE SMOOTH",
"1138 230 OFFCURVE",
"974 82 OFFCURVE",
"722 82 CURVE SMOOTH",
"470 82 OFFCURVE",
"306 230 OFFCURVE",
"306 532 CURVE SMOOTH",
"306 1400 LINE",
"190 1400 LINE",
"190 516 LINE SMOOTH",
"190 218 OFFCURVE",
"366 -30 OFFCURVE",
"722 -30 CURVE SMOOTH"
);
},
{
closed = 1;
nodes = (
"774 -472 OFFCURVE",
"816 -430 OFFCURVE",
"816 -378 CURVE SMOOTH",
"816 -326 OFFCURVE",
"774 -284 OFFCURVE",
"722 -284 CURVE SMOOTH",
"670 -284 OFFCURVE",
"628 -326 OFFCURVE",
"628 -378 CURVE SMOOTH",
"628 -430 OFFCURVE",
"670 -472 OFFCURVE",
"722 -472 CURVE SMOOTH"
);
}
);
width = 1444;
}
);
leftKerningGroup = U;
rightKerningGroup = U;
unicode = 1EE4;
},
{
color = 9;
glyphname = Ugrave;
lastChange = "2022-02-16 15:07:55 +0000";
layers = (
{
anchors = (
{
name = bottom;
position = "{722, 0}";
},
{
name = horn;
position = "{1254, 1400}";
},
{
name = ogonek;
position = "{1038, 0}";
},
{
name = top;
position = "{722, 1400}";
}
);
layerId = "38FA562F-EF2C-4367-983C-F15B205514DC";
paths = (
{
closed = 1;
nodes = (
"1078 -30 OFFCURVE",
"1254 218 OFFCURVE",
"1254 516 CURVE SMOOTH",
"1254 1400 LINE",
"1138 1400 LINE",
"1138 532 LINE SMOOTH",
"1138 230 OFFCURVE",
"974 82 OFFCURVE",
"722 82 CURVE SMOOTH",
"470 82 OFFCURVE",
"306 230 OFFCURVE",
"306 532 CURVE SMOOTH",
"306 1400 LINE",
"190 1400 LINE",
"190 516 LINE SMOOTH",
"190 218 OFFCURVE",
"366 -30 OFFCURVE",
"722 -30 CURVE SMOOTH"
);
},
{
closed = 1;
nodes = (
"804 1594 LINE",
"616 1906 LINE",
"490 1906 LINE",
"692 1594 LINE"
);
}
);
width = 1444;
}
);
leftKerningGroup = U;
rightKerningGroup = U;
unicode = 00D9;
},
{
color = 6;
glyphname = Uhookabove;
lastChange = "2022-02-16 15:07:45 +0000";
layers = (
{
anchors = (
{
name = bottom;
position = "{722, 0}";
},
{
name = horn;
position = "{1254, 1400}";
},
{
name = ogonek;
position = "{1038, 0}";
},
{
name = top;
position = "{722, 1400}";
}
);
layerId = "38FA562F-EF2C-4367-983C-F15B205514DC";
paths = (
{
closed = 1;
nodes = (
"1078 -30 OFFCURVE",
"1254 218 OFFCURVE",
"1254 516 CURVE SMOOTH",
"1254 1400 LINE",
"1138 1400 LINE",
"1138 532 LINE SMOOTH",
"1138 230 OFFCURVE",
"974 82 OFFCURVE",
"722 82 CURVE SMOOTH",
"470 82 OFFCURVE",
"306 230 OFFCURVE",
"306 532 CURVE SMOOTH",
"306 1400 LINE",
"190 1400 LINE",
"190 516 LINE SMOOTH",
"190 218 OFFCURVE",
"366 -30 OFFCURVE",
"722 -30 CURVE SMOOTH"
);
},
{
closed = 1;
nodes = (
"754 1594 LINE",
"718 1666 OFFCURVE",
"734 1690 OFFCURVE",
"824 1726 CURVE SMOOTH",
"938 1772 OFFCURVE",
"972 1804 OFFCURVE",
"972 1876 CURVE SMOOTH",
"972 1962 OFFCURVE",
"866 2026 OFFCURVE",
"724 2026 CURVE SMOOTH",
"640 2026 OFFCURVE",
"558 2010 OFFCURVE",
"490 1980 CURVE",
"526 1906 LINE",
"574 1928 OFFCURVE",
"650 1944 OFFCURVE",
"720 1944 CURVE SMOOTH",
"810 1944 OFFCURVE",
"876 1910 OFFCURVE",
"876 1858 CURVE SMOOTH",
"876 1816 OFFCURVE",
"854 1804 OFFCURVE",
"754 1770 CURVE SMOOTH",
"642 1732 OFFCURVE",
"616 1678 OFFCURVE",
"660 1594 CURVE"
);
}
);
width = 1444;
}
);
leftKerningGroup = U;
rightKerningGroup = U;
unicode = 1EE6;
},
{
color = 6;
glyphname = Uhorn;
lastChange = "2022-02-16 15:31:18 +0000";
layers = (
{
anchors = (
{
name = bottom;
position = "{722, 0}";
},
{
name = horn;
position = "{1254, 1400}";
},
{
name = ogonek;
position = "{1038, 0}";
},
{
name = top;
position = "{722, 1400}";
}
);
layerId = "38FA562F-EF2C-4367-983C-F15B205514DC";
rightMetricsKey = "=+100";
paths = (
{
closed = 1;
nodes = (
"1078 -30 OFFCURVE",
"1254 218 OFFCURVE",
"1254 516 CURVE SMOOTH",
"1254 1400 LINE",
"1138 1400 LINE",
"1138 532 LINE SMOOTH",
"1138 230 OFFCURVE",
"974 82 OFFCURVE",
"722 82 CURVE SMOOTH",
"470 82 OFFCURVE",
"306 230 OFFCURVE",
"306 532 CURVE SMOOTH",
"306 1400 LINE",
"190 1400 LINE",
"190 516 LINE SMOOTH",
"190 218 OFFCURVE",
"366 -30 OFFCURVE",
"722 -30 CURVE SMOOTH"
);
},
{
closed = 1;
nodes = (
"1484 1188 OFFCURVE",
"1552 1278 OFFCURVE",
"1552 1382 CURVE SMOOTH",
"1552 1444 OFFCURVE",
"1526 1516 OFFCURVE",
"1474 1580 CURVE",
"1380 1540 LINE",
"1430 1472 OFFCURVE",
"1444 1414 OFFCURVE",
"1444 1380 CURVE SMOOTH",
"1444 1316 OFFCURVE",
"1412 1270 OFFCURVE",
"1334 1270 CURVE SMOOTH",
"1286 1270 OFFCURVE",
"1208 1300 OFFCURVE",
"1146 1330 CURVE",
"1146 1256 LINE",
"1210 1222 OFFCURVE",
"1290 1188 OFFCURVE",
"1354 1188 CURVE SMOOTH"
);
}
);
width = 1652;
}
);
leftKerningGroup = U;
rightKerningGroup = Uhorn;
rightMetricsKey = "=+200";
unicode = 01AF;
},
{
color = 6;
glyphname = Uhornacute;
lastChange = "2022-02-16 15:07:45 +0000";
layers = (
{
anchors = (
{
name = bottom;
position = "{722, 0}";
},
{
name = horn;
position = "{1254, 1400}";
},
{
name = ogonek;
position = "{1038, 0}";
},
{
name = top;
position = "{722, 1400}";
}
);
layerId = "38FA562F-EF2C-4367-983C-F15B205514DC";
paths = (
{
closed = 1;
nodes = (
"1078 -30 OFFCURVE",
"1254 218 OFFCURVE",
"1254 516 CURVE SMOOTH",
"1254 1400 LINE",
"1138 1400 LINE",
"1138 532 LINE SMOOTH",
"1138 230 OFFCURVE",
"974 82 OFFCURVE",
"722 82 CURVE SMOOTH",
"470 82 OFFCURVE",
"306 230 OFFCURVE",
"306 532 CURVE SMOOTH",
"306 1400 LINE",
"190 1400 LINE",
"190 516 LINE SMOOTH",
"190 218 OFFCURVE",
"366 -30 OFFCURVE",
"722 -30 CURVE SMOOTH"
);
},
{
closed = 1;
nodes = (
"1484 1188 OFFCURVE",
"1552 1278 OFFCURVE",
"1552 1382 CURVE SMOOTH",
"1552 1444 OFFCURVE",
"1526 1516 OFFCURVE",
"1474 1580 CURVE",
"1380 1540 LINE",
"1430 1472 OFFCURVE",
"1444 1414 OFFCURVE",
"1444 1380 CURVE SMOOTH",
"1444 1316 OFFCURVE",
"1412 1270 OFFCURVE",
"1334 1270 CURVE SMOOTH",
"1286 1270 OFFCURVE",
"1208 1300 OFFCURVE",
"1146 1330 CURVE",
"1146 1256 LINE",
"1210 1222 OFFCURVE",
"1290 1188 OFFCURVE",
"1354 1188 CURVE SMOOTH"
);
},
{
closed = 1;
nodes = (
"766 1594 LINE",
"968 1906 LINE",
"848 1906 LINE",
"658 1594 LINE"
);
}
);
width = 1544;
}
);
leftKerningGroup = U;
rightKerningGroup = Uhorn;
unicode = 1EE8;
},
{
color = 6;
glyphname = Uhorndotbelow;
lastChange = "2022-02-16 15:07:45 +0000";
layers = (
{
anchors = (
{
name = bottom;
position = "{722, 0}";
},
{
name = horn;
position = "{1254, 1400}";
},
{
name = ogonek;
position = "{1038, 0}";
},
{
name = top;
position = "{722, 1400}";
}
);
layerId = "38FA562F-EF2C-4367-983C-F15B205514DC";
paths = (
{
closed = 1;
nodes = (
"1078 -30 OFFCURVE",
"1254 218 OFFCURVE",
"1254 516 CURVE SMOOTH",
"1254 1400 LINE",
"1138 1400 LINE",
"1138 532 LINE SMOOTH",
"1138 230 OFFCURVE",
"974 82 OFFCURVE",
"722 82 CURVE SMOOTH",
"470 82 OFFCURVE",
"306 230 OFFCURVE",
"306 532 CURVE SMOOTH",
"306 1400 LINE",
"190 1400 LINE",
"190 516 LINE SMOOTH",
"190 218 OFFCURVE",
"366 -30 OFFCURVE",
"722 -30 CURVE SMOOTH"
);
},
{
closed = 1;
nodes = (
"1484 1188 OFFCURVE",
"1552 1278 OFFCURVE",
"1552 1382 CURVE SMOOTH",
"1552 1444 OFFCURVE",
"1526 1516 OFFCURVE",
"1474 1580 CURVE",
"1380 1540 LINE",
"1430 1472 OFFCURVE",
"1444 1414 OFFCURVE",
"1444 1380 CURVE SMOOTH",
"1444 1316 OFFCURVE",
"1412 1270 OFFCURVE",
"1334 1270 CURVE SMOOTH",
"1286 1270 OFFCURVE",
"1208 1300 OFFCURVE",
"1146 1330 CURVE",
"1146 1256 LINE",
"1210 1222 OFFCURVE",
"1290 1188 OFFCURVE",
"1354 1188 CURVE SMOOTH"
);
},
{
closed = 1;
nodes = (
"774 -472 OFFCURVE",
"816 -430 OFFCURVE",
"816 -378 CURVE SMOOTH",
"816 -326 OFFCURVE",
"774 -284 OFFCURVE",
"722 -284 CURVE SMOOTH",
"670 -284 OFFCURVE",
"628 -326 OFFCURVE",
"628 -378 CURVE SMOOTH",
"628 -430 OFFCURVE",
"670 -472 OFFCURVE",
"722 -472 CURVE SMOOTH"
);
}
);
width = 1544;
}
);
leftKerningGroup = U;
rightKerningGroup = Uhorn;
unicode = 1EF0;
},
{
color = 6;
glyphname = Uhorngrave;
lastChange = "2022-02-16 15:07:45 +0000";
layers = (
{
anchors = (
{
name = bottom;
position = "{722, 0}";
},
{
name = horn;
position = "{1254, 1400}";
},
{
name = ogonek;
position = "{1038, 0}";
},
{
name = top;
position = "{722, 1400}";
}
);
layerId = "38FA562F-EF2C-4367-983C-F15B205514DC";
paths = (
{
closed = 1;
nodes = (
"1078 -30 OFFCURVE",
"1254 218 OFFCURVE",
"1254 516 CURVE SMOOTH",
"1254 1400 LINE",
"1138 1400 LINE",
"1138 532 LINE SMOOTH",
"1138 230 OFFCURVE",
"974 82 OFFCURVE",
"722 82 CURVE SMOOTH",
"470 82 OFFCURVE",
"306 230 OFFCURVE",
"306 532 CURVE SMOOTH",
"306 1400 LINE",
"190 1400 LINE",
"190 516 LINE SMOOTH",
"190 218 OFFCURVE",
"366 -30 OFFCURVE",
"722 -30 CURVE SMOOTH"
);
},
{
closed = 1;
nodes = (
"1484 1188 OFFCURVE",
"1552 1278 OFFCURVE",
"1552 1382 CURVE SMOOTH",
"1552 1444 OFFCURVE",
"1526 1516 OFFCURVE",
"1474 1580 CURVE",
"1380 1540 LINE",
"1430 1472 OFFCURVE",
"1444 1414 OFFCURVE",
"1444 1380 CURVE SMOOTH",
"1444 1316 OFFCURVE",
"1412 1270 OFFCURVE",
"1334 1270 CURVE SMOOTH",
"1286 1270 OFFCURVE",
"1208 1300 OFFCURVE",
"1146 1330 CURVE",
"1146 1256 LINE",
"1210 1222 OFFCURVE",
"1290 1188 OFFCURVE",
"1354 1188 CURVE SMOOTH"
);
},
{
closed = 1;
nodes = (
"804 1594 LINE",
"616 1906 LINE",
"490 1906 LINE",
"692 1594 LINE"
);
}
);
width = 1544;
}
);
leftKerningGroup = U;
rightKerningGroup = Uhorn;
unicode = 1EEA;
},
{
color = 6;
glyphname = Uhornhookabove;
lastChange = "2022-02-16 15:07:45 +0000";
layers = (
{
anchors = (
{
name = bottom;
position = "{722, 0}";
},
{
name = horn;
position = "{1254, 1400}";
},
{
name = ogonek;
position = "{1038, 0}";
},
{
name = top;
position = "{722, 1400}";
}
);
layerId = "38FA562F-EF2C-4367-983C-F15B205514DC";
paths = (
{
closed = 1;
nodes = (
"1078 -30 OFFCURVE",
"1254 218 OFFCURVE",
"1254 516 CURVE SMOOTH",
"1254 1400 LINE",
"1138 1400 LINE",
"1138 532 LINE SMOOTH",
"1138 230 OFFCURVE",
"974 82 OFFCURVE",
"722 82 CURVE SMOOTH",
"470 82 OFFCURVE",
"306 230 OFFCURVE",
"306 532 CURVE SMOOTH",
"306 1400 LINE",
"190 1400 LINE",
"190 516 LINE SMOOTH",
"190 218 OFFCURVE",
"366 -30 OFFCURVE",
"722 -30 CURVE SMOOTH"
);
},
{
closed = 1;
nodes = (
"1484 1188 OFFCURVE",
"1552 1278 OFFCURVE",
"1552 1382 CURVE SMOOTH",
"1552 1444 OFFCURVE",
"1526 1516 OFFCURVE",
"1474 1580 CURVE",
"1380 1540 LINE",
"1430 1472 OFFCURVE",
"1444 1414 OFFCURVE",
"1444 1380 CURVE SMOOTH",
"1444 1316 OFFCURVE",
"1412 1270 OFFCURVE",
"1334 1270 CURVE SMOOTH",
"1286 1270 OFFCURVE",
"1208 1300 OFFCURVE",
"1146 1330 CURVE",
"1146 1256 LINE",
"1210 1222 OFFCURVE",
"1290 1188 OFFCURVE",
"1354 1188 CURVE SMOOTH"
);
},
{
closed = 1;
nodes = (
"754 1594 LINE",
"718 1666 OFFCURVE",
"734 1690 OFFCURVE",
"824 1726 CURVE SMOOTH",
"938 1772 OFFCURVE",
"972 1804 OFFCURVE",
"972 1876 CURVE SMOOTH",
"972 1962 OFFCURVE",
"866 2026 OFFCURVE",
"724 2026 CURVE SMOOTH",
"640 2026 OFFCURVE",
"558 2010 OFFCURVE",
"490 1980 CURVE",
"526 1906 LINE",
"574 1928 OFFCURVE",
"650 1944 OFFCURVE",
"720 1944 CURVE SMOOTH",
"810 1944 OFFCURVE",
"876 1910 OFFCURVE",
"876 1858 CURVE SMOOTH",
"876 1816 OFFCURVE",
"854 1804 OFFCURVE",
"754 1770 CURVE SMOOTH",
"642 1732 OFFCURVE",
"616 1678 OFFCURVE",
"660 1594 CURVE"
);
}
);
width = 1544;
}
);
leftKerningGroup = U;
rightKerningGroup = Uhorn;
unicode = 1EEC;
},
{
color = 6;
glyphname = Uhorntilde;
lastChange = "2022-02-16 15:07:45 +0000";
layers = (
{
anchors = (
{
name = bottom;
position = "{722, 0}";
},
{
name = horn;
position = "{1254, 1400}";
},
{
name = ogonek;
position = "{1038, 0}";
},
{
name = top;
position = "{722, 1760}";
}
);
layerId = "38FA562F-EF2C-4367-983C-F15B205514DC";
paths = (
{
closed = 1;
nodes = (
"1078 -30 OFFCURVE",
"1254 218 OFFCURVE",
"1254 516 CURVE SMOOTH",
"1254 1400 LINE",
"1138 1400 LINE",
"1138 532 LINE SMOOTH",
"1138 230 OFFCURVE",
"974 82 OFFCURVE",
"722 82 CURVE SMOOTH",
"470 82 OFFCURVE",
"306 230 OFFCURVE",
"306 532 CURVE SMOOTH",
"306 1400 LINE",
"190 1400 LINE",
"190 516 LINE SMOOTH",
"190 218 OFFCURVE",
"366 -30 OFFCURVE",
"722 -30 CURVE SMOOTH"
);
},
{
closed = 1;
nodes = (
"1484 1188 OFFCURVE",
"1552 1278 OFFCURVE",
"1552 1382 CURVE SMOOTH",
"1552 1444 OFFCURVE",
"1526 1516 OFFCURVE",
"1474 1580 CURVE",
"1380 1540 LINE",
"1430 1472 OFFCURVE",
"1444 1414 OFFCURVE",
"1444 1380 CURVE SMOOTH",
"1444 1316 OFFCURVE",
"1412 1270 OFFCURVE",
"1334 1270 CURVE SMOOTH",
"1286 1270 OFFCURVE",
"1208 1300 OFFCURVE",
"1146 1330 CURVE",
"1146 1256 LINE",
"1210 1222 OFFCURVE",
"1290 1188 OFFCURVE",
"1354 1188 CURVE SMOOTH"
);
},
{
closed = 1;
nodes = (
"474 1712 OFFCURVE",
"516 1750 OFFCURVE",
"572 1750 CURVE SMOOTH",
"662 1750 OFFCURVE",
"758 1654 OFFCURVE",
"870 1654 CURVE SMOOTH",
"958 1654 OFFCURVE",
"1032 1716 OFFCURVE",
"1076 1820 CURVE",
"1000 1866 LINE",
"972 1794 OFFCURVE",
"930 1750 OFFCURVE",
"872 1750 CURVE SMOOTH",
"782 1750 OFFCURVE",
"686 1848 OFFCURVE",
"572 1848 CURVE SMOOTH",
"480 1848 OFFCURVE",
"410 1780 OFFCURVE",
"368 1678 CURVE",
"444 1634 LINE"
);
}
);
width = 1544;
}
);
leftKerningGroup = U;
rightKerningGroup = Uhorn;
unicode = 1EEE;
},
{
color = 6;
glyphname = Uhungarumlaut;
lastChange = "2022-02-16 15:07:45 +0000";
layers = (
{
anchors = (
{
name = bottom;
position = "{722, 0}";
},
{
name = horn;
position = "{1254, 1400}";
},
{
name = ogonek;
position = "{1038, 0}";
},
{
name = top;
position = "{722, 1400}";
}
);
layerId = "38FA562F-EF2C-4367-983C-F15B205514DC";
paths = (
{
closed = 1;
nodes = (
"1078 -30 OFFCURVE",
"1254 218 OFFCURVE",
"1254 516 CURVE SMOOTH",
"1254 1400 LINE",
"1138 1400 LINE",
"1138 532 LINE SMOOTH",
"1138 230 OFFCURVE",
"974 82 OFFCURVE",
"722 82 CURVE SMOOTH",
"470 82 OFFCURVE",
"306 230 OFFCURVE",
"306 532 CURVE SMOOTH",
"306 1400 LINE",
"190 1400 LINE",
"190 516 LINE SMOOTH",
"190 218 OFFCURVE",
"366 -30 OFFCURVE",
"722 -30 CURVE SMOOTH"
);
},
{
closed = 1;
nodes = (
"950 1594 LINE",
"1152 1906 LINE",
"1032 1906 LINE",
"842 1594 LINE"
);
},
{
closed = 1;
nodes = (
"600 1594 LINE",
"802 1906 LINE",
"682 1906 LINE",
"492 1594 LINE"
);
}
);
width = 1444;
}
);
leftKerningGroup = U;
rightKerningGroup = Uaccent;
unicode = 0170;
},
{
color = 6;
glyphname = Uinvertedbreve;
lastChange = "2022-02-16 15:07:45 +0000";
layers = (
{
anchors = (
{
name = bottom;
position = "{722, 0}";
},
{
name = horn;
position = "{1254, 1400}";
},
{
name = ogonek;
position = "{1038, 0}";
},
{
name = top;
position = "{722, 1400}";
}
);
layerId = "38FA562F-EF2C-4367-983C-F15B205514DC";
paths = (
{
closed = 1;
nodes = (
"1078 -30 OFFCURVE",
"1254 218 OFFCURVE",
"1254 516 CURVE SMOOTH",
"1254 1400 LINE",
"1138 1400 LINE",
"1138 532 LINE SMOOTH",
"1138 230 OFFCURVE",
"974 82 OFFCURVE",
"722 82 CURVE SMOOTH",
"470 82 OFFCURVE",
"306 230 OFFCURVE",
"306 532 CURVE SMOOTH",
"306 1400 LINE",
"190 1400 LINE",
"190 516 LINE SMOOTH",
"190 218 OFFCURVE",
"366 -30 OFFCURVE",
"722 -30 CURVE SMOOTH"
);
},
{
closed = 1;
nodes = (
"486 1594 LINE",
"480 1730 OFFCURVE",
"576 1822 OFFCURVE",
"722 1822 CURVE SMOOTH",
"866 1822 OFFCURVE",
"960 1730 OFFCURVE",
"952 1594 CURVE",
"1056 1594 LINE",
"1062 1778 OFFCURVE",
"918 1916 OFFCURVE",
"722 1916 CURVE SMOOTH",
"526 1916 OFFCURVE",
"376 1786 OFFCURVE",
"384 1594 CURVE"
);
}
);
width = 1444;
}
);
leftKerningGroup = U;
rightKerningGroup = U;
unicode = 0216;
},
{
color = 6;
glyphname = Umacron;
lastChange = "2022-02-16 15:07:45 +0000";
layers = (
{
anchors = (
{
name = bottom;
position = "{722, 0}";
},
{
name = horn;
position = "{1254, 1400}";
},
{
name = ogonek;
position = "{1038, 0}";
},
{
name = top;
position = "{722, 1400}";
}
);
layerId = "38FA562F-EF2C-4367-983C-F15B205514DC";
paths = (
{
closed = 1;
nodes = (
"1078 -30 OFFCURVE",
"1254 218 OFFCURVE",
"1254 516 CURVE SMOOTH",
"1254 1400 LINE",
"1138 1400 LINE",
"1138 532 LINE SMOOTH",
"1138 230 OFFCURVE",
"974 82 OFFCURVE",
"722 82 CURVE SMOOTH",
"470 82 OFFCURVE",
"306 230 OFFCURVE",
"306 532 CURVE SMOOTH",
"306 1400 LINE",
"190 1400 LINE",
"190 516 LINE SMOOTH",
"190 218 OFFCURVE",
"366 -30 OFFCURVE",
"722 -30 CURVE SMOOTH"
);
},
{
closed = 1;
nodes = (
"1020 1650 LINE",
"1020 1750 LINE",
"424 1750 LINE",
"424 1650 LINE"
);
}
);
width = 1444;
}
);
leftKerningGroup = U;
rightKerningGroup = U;
unicode = 016A;
},
{
color = 6;
glyphname = Uogonek;
lastChange = "2022-02-16 15:07:45 +0000";
layers = (
{
anchors = (
{
name = top;
position = "{722, 1400}";
}
);
layerId = "38FA562F-EF2C-4367-983C-F15B205514DC";
paths = (
{
closed = 1;
nodes = (
"934 -450 OFFCURVE",
"991 -435 OFFCURVE",
"1040 -409 CURVE",
"998 -313 LINE",
"969 -329 OFFCURVE",
"933 -340 OFFCURVE",
"894 -340 CURVE SMOOTH",
"820 -340 OFFCURVE",
"796 -291 OFFCURVE",
"798 -229 CURVE SMOOTH",
"802 -109 OFFCURVE",
"881 -28 OFFCURVE",
"996 33 CURVE SMOOTH",
"1168 124 OFFCURVE",
"1254 308 OFFCURVE",
"1254 516 CURVE SMOOTH",
"1254 1400 LINE",
"1138 1400 LINE",
"1138 532 LINE SMOOTH",
"1138 230 OFFCURVE",
"974 82 OFFCURVE",
"722 82 CURVE SMOOTH",
"470 82 OFFCURVE",
"306 230 OFFCURVE",
"306 532 CURVE SMOOTH",
"306 1400 LINE",
"190 1400 LINE",
"190 516 LINE SMOOTH",
"190 160 OFFCURVE",
"416 -46 OFFCURVE",
"782 -28 CURVE",
"721 -90 OFFCURVE",
"680 -164 OFFCURVE",
"678 -255 CURVE SMOOTH",
"676 -362 OFFCURVE",
"746 -450 OFFCURVE",
"878 -450 CURVE SMOOTH"
);
}
);
width = 1444;
}
);
leftKerningGroup = U;
leftMetricsKey = U;
rightKerningGroup = U;
rightMetricsKey = U;
unicode = 0172;
},
{
color = 6;
glyphname = Uring;
lastChange = "2022-02-16 15:07:45 +0000";
layers = (
{
anchors = (
{
name = bottom;
position = "{722, 0}";
},
{
name = horn;
position = "{1254, 1400}";
},
{
name = ogonek;
position = "{1038, 0}";
},
{
name = top;
position = "{722, 1888}";
}
);
layerId = "38FA562F-EF2C-4367-983C-F15B205514DC";
paths = (
{
closed = 1;
nodes = (
"1078 -30 OFFCURVE",
"1254 218 OFFCURVE",
"1254 516 CURVE SMOOTH",
"1254 1400 LINE",
"1138 1400 LINE",
"1138 532 LINE SMOOTH",
"1138 230 OFFCURVE",
"974 82 OFFCURVE",
"722 82 CURVE SMOOTH",
"470 82 OFFCURVE",
"306 230 OFFCURVE",
"306 532 CURVE SMOOTH",
"306 1400 LINE",
"190 1400 LINE",
"190 516 LINE SMOOTH",
"190 218 OFFCURVE",
"366 -30 OFFCURVE",
"722 -30 CURVE SMOOTH"
);
},
{
closed = 1;
nodes = (
"872 1462 OFFCURVE",
"998 1578 OFFCURVE",
"998 1726 CURVE SMOOTH",
"998 1874 OFFCURVE",
"872 1990 OFFCURVE",
"722 1990 CURVE SMOOTH",
"574 1990 OFFCURVE",
"446 1874 OFFCURVE",
"446 1726 CURVE SMOOTH",
"446 1578 OFFCURVE",
"574 1462 OFFCURVE",
"722 1462 CURVE SMOOTH"
);
},
{
closed = 1;
nodes = (
"620 1554 OFFCURVE",
"542 1626 OFFCURVE",
"542 1726 CURVE SMOOTH",
"542 1826 OFFCURVE",
"620 1898 OFFCURVE",
"722 1898 CURVE SMOOTH",
"824 1898 OFFCURVE",
"902 1826 OFFCURVE",
"902 1726 CURVE SMOOTH",
"902 1626 OFFCURVE",
"824 1554 OFFCURVE",
"722 1554 CURVE SMOOTH"
);
}
);
width = 1444;
}
);
leftKerningGroup = U;
rightKerningGroup = U;
unicode = 016E;
},
{
color = 6;
glyphname = Utilde;
lastChange = "2022-02-16 15:07:45 +0000";
layers = (
{
anchors = (
{
name = bottom;
position = "{722, 0}";
},
{
name = horn;
position = "{1254, 1400}";
},
{
name = ogonek;
position = "{1038, 0}";
},
{
name = top;
position = "{722, 1760}";
}
);
layerId = "38FA562F-EF2C-4367-983C-F15B205514DC";
paths = (
{
closed = 1;
nodes = (
"1078 -30 OFFCURVE",
"1254 218 OFFCURVE",
"1254 516 CURVE SMOOTH",
"1254 1400 LINE",
"1138 1400 LINE",
"1138 532 LINE SMOOTH",
"1138 230 OFFCURVE",
"974 82 OFFCURVE",
"722 82 CURVE SMOOTH",
"470 82 OFFCURVE",
"306 230 OFFCURVE",
"306 532 CURVE SMOOTH",
"306 1400 LINE",
"190 1400 LINE",
"190 516 LINE SMOOTH",
"190 218 OFFCURVE",
"366 -30 OFFCURVE",
"722 -30 CURVE SMOOTH"
);
},
{
closed = 1;
nodes = (
"474 1712 OFFCURVE",
"516 1750 OFFCURVE",
"572 1750 CURVE SMOOTH",
"662 1750 OFFCURVE",
"758 1654 OFFCURVE",
"870 1654 CURVE SMOOTH",
"958 1654 OFFCURVE",
"1032 1716 OFFCURVE",
"1076 1820 CURVE",
"1000 1866 LINE",
"972 1794 OFFCURVE",
"930 1750 OFFCURVE",
"872 1750 CURVE SMOOTH",
"782 1750 OFFCURVE",
"686 1848 OFFCURVE",
"572 1848 CURVE SMOOTH",
"480 1848 OFFCURVE",
"410 1780 OFFCURVE",
"368 1678 CURVE",
"444 1634 LINE"
);
}
);
width = 1444;
}
);
leftKerningGroup = U;
rightKerningGroup = U;
unicode = 0168;
},
{
color = 1;
glyphname = V;
lastChange = "2022-02-16 15:08:08 +0000";
layers = (
{
layerId = "38FA562F-EF2C-4367-983C-F15B205514DC";
paths = (
{
closed = 1;
nodes = (
"690 0 LINE",
"1226 1400 LINE",
"1100 1400 LINE",
"642 176 LINE",
"160 1400 LINE",
"30 1400 LINE",
"590 0 LINE"
);
}
);
width = 1256;
}
);
leftKerningGroup = V;
rightKerningGroup = V;
rightMetricsKey = "=|";
unicode = 0056;
},
{
color = 1;
glyphname = W;
lastChange = "2022-02-16 15:08:08 +0000";
layers = (
{
anchors = (
{
name = top;
position = "{1002, 1400}";
}
);
layerId = "38FA562F-EF2C-4367-983C-F15B205514DC";
paths = (
{
closed = 1;
nodes = (
"630 0 LINE",
"1004 1218 LINE",
"1372 0 LINE",
"1520 0 LINE",
"1936 1400 LINE",
"1814 1400 LINE",
"1446 128 LINE",
"1070 1400 LINE",
"936 1400 LINE",
"558 126 LINE",
"190 1400 LINE",
"64 1400 LINE",
"482 0 LINE"
);
}
);
width = 2000;
}
);
leftKerningGroup = V;
rightKerningGroup = V;
unicode = 0057;
},
{
color = 6;
glyphname = Wacute;
lastChange = "2022-02-16 15:07:45 +0000";
layers = (
{
anchors = (
{
name = top;
position = "{1002, 1400}";
}
);
layerId = "38FA562F-EF2C-4367-983C-F15B205514DC";
paths = (
{
closed = 1;
nodes = (
"630 0 LINE",
"1004 1218 LINE",
"1372 0 LINE",
"1520 0 LINE",
"1936 1400 LINE",
"1814 1400 LINE",
"1446 128 LINE",
"1070 1400 LINE",
"936 1400 LINE",
"558 126 LINE",
"190 1400 LINE",
"64 1400 LINE",
"482 0 LINE"
);
},
{
closed = 1;
nodes = (
"1046 1594 LINE",
"1248 1906 LINE",
"1128 1906 LINE",
"938 1594 LINE"
);
}
);
width = 2000;
}
);
leftKerningGroup = V;
rightKerningGroup = V;
unicode = 1E82;
},
{
color = 6;
glyphname = Wcircumflex;
lastChange = "2022-02-16 15:07:45 +0000";
layers = (
{
anchors = (
{
name = top;
position = "{1002, 1850}";
},
{
name = top_right;
position = "{1320, 1648}";
}
);
layerId = "38FA562F-EF2C-4367-983C-F15B205514DC";
paths = (
{
closed = 1;
nodes = (
"630 0 LINE",
"1004 1218 LINE",
"1372 0 LINE",
"1520 0 LINE",
"1936 1400 LINE",
"1814 1400 LINE",
"1446 128 LINE",
"1070 1400 LINE",
"936 1400 LINE",
"558 126 LINE",
"190 1400 LINE",
"64 1400 LINE",
"482 0 LINE"
);
},
{
closed = 1;
nodes = (
"802 1594 LINE",
"1008 1830 LINE",
"1206 1594 LINE",
"1326 1594 LINE",
"1074 1906 LINE",
"948 1906 LINE",
"678 1594 LINE"
);
}
);
width = 2000;
}
);
leftKerningGroup = V;
rightKerningGroup = V;
unicode = 0174;
},
{
color = 6;
glyphname = Wdieresis;
lastChange = "2022-02-16 15:07:45 +0000";
layers = (
{
anchors = (
{
name = top;
position = "{1002, 1706}";
}
);
layerId = "38FA562F-EF2C-4367-983C-F15B205514DC";
paths = (
{
closed = 1;
nodes = (
"630 0 LINE",
"1004 1218 LINE",
"1372 0 LINE",
"1520 0 LINE",
"1936 1400 LINE",
"1814 1400 LINE",
"1446 128 LINE",
"1070 1400 LINE",
"936 1400 LINE",
"558 126 LINE",
"190 1400 LINE",
"64 1400 LINE",
"482 0 LINE"
);
},
{
closed = 1;
nodes = (
"870 1586 OFFCURVE",
"912 1628 OFFCURVE",
"912 1678 CURVE SMOOTH",
"912 1728 OFFCURVE",
"868 1768 OFFCURVE",
"816 1768 CURVE SMOOTH",
"764 1768 OFFCURVE",
"720 1728 OFFCURVE",
"720 1678 CURVE SMOOTH",
"720 1628 OFFCURVE",
"762 1586 OFFCURVE",
"816 1586 CURVE SMOOTH"
);
},
{
closed = 1;
nodes = (
"1242 1586 OFFCURVE",
"1286 1628 OFFCURVE",
"1286 1678 CURVE SMOOTH",
"1286 1728 OFFCURVE",
"1242 1768 OFFCURVE",
"1190 1768 CURVE SMOOTH",
"1136 1768 OFFCURVE",
"1094 1726 OFFCURVE",
"1094 1678 CURVE SMOOTH",
"1094 1628 OFFCURVE",
"1136 1586 OFFCURVE",
"1190 1586 CURVE SMOOTH"
);
}
);
width = 2000;
}
);
leftKerningGroup = V;
rightKerningGroup = V;
unicode = 1E84;
},
{
color = 6;
glyphname = Wgrave;
lastChange = "2022-02-16 15:07:45 +0000";
layers = (
{
anchors = (
{
name = top;
position = "{1002, 1400}";
}
);
layerId = "38FA562F-EF2C-4367-983C-F15B205514DC";
paths = (
{
closed = 1;
nodes = (
"630 0 LINE",
"1004 1218 LINE",
"1372 0 LINE",
"1520 0 LINE",
"1936 1400 LINE",
"1814 1400 LINE",
"1446 128 LINE",
"1070 1400 LINE",
"936 1400 LINE",
"558 126 LINE",
"190 1400 LINE",
"64 1400 LINE",
"482 0 LINE"
);
},
{
closed = 1;
nodes = (
"1084 1594 LINE",
"896 1906 LINE",
"770 1906 LINE",
"972 1594 LINE"
);
}
);
width = 2000;
}
);
leftKerningGroup = V;
rightKerningGroup = V;
unicode = 1E80;
},
{
color = 1;
glyphname = X;
lastChange = "2022-02-16 15:08:08 +0000";
layers = (
{
layerId = "38FA562F-EF2C-4367-983C-F15B205514DC";
paths = (
{
closed = 1;
nodes = (
"208 0 LINE",
"632 640 LINE",
"1078 0 LINE",
"1214 0 LINE",
"716 716 LINE",
"1196 1400 LINE",
"1066 1400 LINE",
"638 800 LINE",
"244 1400 LINE",
"108 1400 LINE",
"552 722 LINE",
"78 0 LINE"
);
}
);
width = 1292;
}
);
leftKerningGroup = X;
rightKerningGroup = X;
rightMetricsKey = "=|";
unicode = 0058;
},
{
color = 1;
glyphname = Y;
lastChange = "2022-02-16 15:08:08 +0000";
layers = (
{
anchors = (
{
name = bottom;
position = "{590, 0}";
},
{
name = top;
position = "{590, 1400}";
},
{
name = topleft;
position = "{-20, 1400}";
}
);
layerId = "38FA562F-EF2C-4367-983C-F15B205514DC";
paths = (
{
closed = 1;
nodes = (
"648 0 LINE",
"648 624 LINE",
"1146 1400 LINE",
"1010 1400 LINE",
"594 738 LINE",
"174 1400 LINE",
"34 1400 LINE",
"532 624 LINE",
"532 0 LINE"
);
}
);
width = 1180;
}
);
leftKerningGroup = Y;
rightKerningGroup = Y;
rightMetricsKey = "=|";
unicode = 0059;
},
{
color = 9;
glyphname = Yacute;
lastChange = "2022-02-16 15:07:55 +0000";
layers = (
{
anchors = (
{
name = bottom;
position = "{590, 0}";
},
{
name = top;
position = "{590, 1400}";
},
{
name = topleft;
position = "{-20, 1400}";
}
);
layerId = "38FA562F-EF2C-4367-983C-F15B205514DC";
paths = (
{
closed = 1;
nodes = (
"648 0 LINE",
"648 624 LINE",
"1146 1400 LINE",
"1010 1400 LINE",
"594 738 LINE",
"174 1400 LINE",
"34 1400 LINE",
"532 624 LINE",
"532 0 LINE"
);
},
{
closed = 1;
nodes = (
"634 1594 LINE",
"836 1906 LINE",
"716 1906 LINE",
"526 1594 LINE"
);
}
);
width = 1180;
}
);
leftKerningGroup = Y;
rightKerningGroup = Y;
unicode = 00DD;
},
{
color = 6;
glyphname = Ycircumflex;
lastChange = "2022-02-16 15:07:45 +0000";
layers = (
{
anchors = (
{
name = bottom;
position = "{590, 0}";
},
{
name = top;
position = "{590, 1850}";
},
{
name = top_right;
position = "{908, 1648}";
},
{
name = topleft;
position = "{-20, 1400}";
}
);
layerId = "38FA562F-EF2C-4367-983C-F15B205514DC";
paths = (
{
closed = 1;
nodes = (
"648 0 LINE",
"648 624 LINE",
"1146 1400 LINE",
"1010 1400 LINE",
"594 738 LINE",
"174 1400 LINE",
"34 1400 LINE",
"532 624 LINE",
"532 0 LINE"
);
},
{
closed = 1;
nodes = (
"390 1594 LINE",
"596 1830 LINE",
"794 1594 LINE",
"914 1594 LINE",
"662 1906 LINE",
"536 1906 LINE",
"266 1594 LINE"
);
}
);
width = 1180;
}
);
leftKerningGroup = Y;
rightKerningGroup = Y;
unicode = 0176;
},
{
color = 6;
glyphname = Ydieresis;
lastChange = "2022-02-16 15:07:45 +0000";
layers = (
{
anchors = (
{
name = bottom;
position = "{590, 0}";
},
{
name = top;
position = "{590, 1706}";
},
{
name = topleft;
position = "{-20, 1400}";
}
);
layerId = "38FA562F-EF2C-4367-983C-F15B205514DC";
paths = (
{
closed = 1;
nodes = (
"648 0 LINE",
"648 624 LINE",
"1146 1400 LINE",
"1010 1400 LINE",
"594 738 LINE",
"174 1400 LINE",
"34 1400 LINE",
"532 624 LINE",
"532 0 LINE"
);
},
{
closed = 1;
nodes = (
"458 1586 OFFCURVE",
"500 1628 OFFCURVE",
"500 1678 CURVE SMOOTH",
"500 1728 OFFCURVE",
"456 1768 OFFCURVE",
"404 1768 CURVE SMOOTH",
"352 1768 OFFCURVE",
"308 1728 OFFCURVE",
"308 1678 CURVE SMOOTH",
"308 1628 OFFCURVE",
"350 1586 OFFCURVE",
"404 1586 CURVE SMOOTH"
);
},
{
closed = 1;
nodes = (
"830 1586 OFFCURVE",
"874 1628 OFFCURVE",
"874 1678 CURVE SMOOTH",
"874 1728 OFFCURVE",
"830 1768 OFFCURVE",
"778 1768 CURVE SMOOTH",
"724 1768 OFFCURVE",
"682 1726 OFFCURVE",
"682 1678 CURVE SMOOTH",
"682 1628 OFFCURVE",
"724 1586 OFFCURVE",
"778 1586 CURVE SMOOTH"
);
}
);
width = 1180;
}
);
leftKerningGroup = Yaccent;
rightKerningGroup = Y;
unicode = 0178;
},
